/* XPM */
static char *xpm_[] = {
/* columns rows colors chars-per-pixel */
"80 80 250 2 ",
"   c black",
".  c #010101",
"X  c #020202",
"o  c gray1",
"O  c #040404",
"+  c gray2",
"@  c #060606",
"#  c #070707",
"$  c gray3",
"%  c #090909",
"&  c gray4",
"*  c #0B0B0B",
"=  c #0C0C0C",
"-  c gray5",
";  c #0E0E0E",
":  c gray6",
">  c #101010",
",  c #111111",
"<  c gray7",
"1  c #131313",
"2  c gray8",
"3  c #151515",
"4  c #161616",
"5  c gray9",
"6  c #181818",
"7  c #191919",
"8  c gray10",
"9  c #1B1B1B",
"0  c gray11",
"q  c #1D1D1D",
"w  c #1E1E1E",
"e  c gray12",
"r  c #202020",
"t  c gray13",
"y  c #222222",
"u  c #232323",
"i  c gray14",
"p  c #252525",
"a  c gray15",
"s  c #272727",
"d  c #282828",
"f  c gray16",
"g  c #2A2A2A",
"h  c gray17",
"j  c #2C2C2C",
"k  c #2D2D2D",
"l  c gray18",
"z  c #2F2F2F",
"x  c gray19",
"c  c #313131",
"v  c #323232",
"b  c gray20",
"n  c #343434",
"m  c #353535",
"M  c gray21",
"N  c #373737",
"B  c gray22",
"V  c #393939",
"C  c #3A3A3A",
"Z  c gray23",
"A  c #3C3C3C",
"S  c gray24",
"D  c #3E3E3E",
"F  c #3F3F3F",
"G  c gray25",
"H  c #414141",
"J  c gray26",
"K  c #434343",
"L  c #444444",
"P  c gray27",
"I  c #464646",
"U  c gray28",
"Y  c #484848",
"T  c #494949",
"R  c gray29",
"E  c #4B4B4B",
"W  c #4C4C4C",
"Q  c gray30",
"!  c #4E4E4E",
"~  c gray31",
"^  c #505050",
"/  c gray32",
"(  c #535353",
")  c gray33",
"_  c #555555",
"`  c #565656",
"'  c #585858",
"]  c gray35",
"[  c #5A5A5A",
"{  c #5B5B5B",
"}  c gray36",
"|  c #5D5D5D",
" . c gray37",
".. c #5F5F5F",
"X. c #606060",
"o. c gray38",
"O. c #626262",
"+. c gray39",
"@. c #646464",
"#. c #656565",
"$. c gray40",
"%. c #676767",
"&. c #686868",
"*. c DimGray",
"=. c #6A6A6A",
"-. c gray42",
";. c #6C6C6C",
":. c #6D6D6D",
">. c gray43",
",. c #6F6F6F",
"<. c gray44",
"1. c #717171",
"2. c #727272",
"3. c gray45",
"4. c #747474",
"5. c gray46",
"6. c #767676",
"7. c gray47",
"8. c #797979",
"9. c gray48",
"0. c #7B7B7B",
"q. c #7C7C7C",
"w. c gray49",
"e. c #7E7E7E",
"r. c gray50",
"t. c #808080",
"y. c #818181",
"u. c gray51",
"i. c #838383",
"p. c #848484",
"a. c gray52",
"s. c #868686",
"d. c gray53",
"f. c #888888",
"g. c #898989",
"h. c gray54",
"j. c #8B8B8B",
"k. c #8D8D8D",
"l. c #8E8E8E",
"z. c gray56",
"x. c #909090",
"c. c gray57",
"v. c #929292",
"b. c #939393",
"n. c gray58",
"m. c #959595",
"M. c gray59",
"N. c #979797",
"B. c #989898",
"V. c gray60",
"C. c #9A9A9A",
"Z. c #9B9B9B",
"A. c gray61",
"S. c #9D9D9D",
"D. c gray62",
"F. c #9F9F9F",
"G. c #A0A0A0",
"H. c gray63",
"J. c #A2A2A2",
"K. c #A4A4A4",
"L. c #A5A5A5",
"P. c gray65",
"I. c #A7A7A7",
"U. c gray66",
"Y. c #AAAAAA",
"T. c gray67",
"R. c #ACACAC",
"E. c gray68",
"W. c #AFAFAF",
"Q. c gray69",
"!. c #B1B1B1",
"~. c #B2B2B2",
"^. c gray70",
"/. c #B4B4B4",
"(. c gray71",
"). c #B6B6B6",
"_. c #B7B7B7",
"`. c gray72",
"'. c #B9B9B9",
"]. c gray73",
"[. c #BBBBBB",
"{. c #BCBCBC",
"}. c gray74",
"|. c gray",
" X c gray75",
".X c #C0C0C0",
"XX c #C1C1C1",
"oX c gray76",
"OX c #C3C3C3",
"+X c gray77",
"@X c #C5C5C5",
"#X c #C6C6C6",
"$X c gray78",
"%X c #C8C8C8",
"&X c gray79",
"*X c #CACACA",
"=X c #CBCBCB",
"-X c gray80",
";X c #CDCDCD",
":X c #CECECE",
">X c gray81",
",X c #D0D0D0",
"<X c gray82",
"1X c #D2D2D2",
"2X c LightGray",
"3X c gray83",
"4X c #D5D5D5",
"5X c gray84",
"6X c #D7D7D7",
"7X c #D8D8D8",
"8X c gray85",
"9X c #DADADA",
"0X c gray86",
"qX c gainsboro",
"wX c #DDDDDD",
"eX c gray87",
"rX c #DFDFDF",
"tX c gray88",
"yX c #E1E1E1",
"uX c #E2E2E2",
"iX c gray89",
"pX c #E4E4E4",
"aX c gray90",
"sX c #E6E6E6",
"dX c #E7E7E7",
"fX c gray91",
"gX c #E9E9E9",
"hX c #EAEAEA",
"jX c gray92",
"kX c #ECECEC",
"lX c gray93",
"zX c #EEEEEE",
"xX c #EFEFEF",
"cX c gray94",
"vX c #F1F1F1",
"bX c gray95",
"nX c #F3F3F3",
"mX c #F4F4F4",
"MX c gray96",
"NX c #F6F6F6",
"BX c gray97",
"VX c #F8F8F8",
"CX c #F9F9F9",
"ZX c gray98",
"AX c #FBFBFB",
"SX c gray99",
"DX c #FDFDFD",
"FX c #FEFEFE",
"GX c white",
"HX c None",
/* pixels */
"HXHXHXHXHXHXHXHXHXHXHXHXHXHXHXHXHXHXHXHXHXHXHXHXHXHXHXHXHXHXHXHXHXHXHXHXHXHXHXHXHXHXHXHXHXHXHXHXHXHXHXHXHXHXHXHXHXHXHXHXHXHXHXHXHXHXHXHXHXHXHXHXHXHXHXHXHXHXHXHX",
"HXHXHXHXHXHXHXHXHXHXHXHXHXHXHXHXHXHXHXHXHXHXHXHXHXHXHXHXHXHXHXHXHXHXHXHXHXHXHXHXHXHXHXHXHXHXHXHXHXHXHXHXHXHXHXHXHXHXHXHXHXHXHXHXHXHXHXHXHXHXHXHXHXHXHXHXHXHXHXHX",
"HXHXHXHXHXHXHXHXHXHXHXHXHXHXHXHXHXHXHXHXHXHXHXHXHXHXHXHXHXHXHXHXHXHXHXHXHXHXHXHXHXHXHXHXHXHXHXHXHXHXHXHXHXHXHXHXHXHXHXHXHXHXHXHXHXHXHXHXHXHXHXHXHXHXHXHXHXHXHXHX",
"HXHXHXHXHXHXHXHXHXHXHXHXHXHXHXHXHXHXHXHXHXHXHXHXHXHXHXHXHXHXHXHXHXHXHXHXHXHXHXHXHXHXHXHXHXHXHXHXHXHXHXHXHXHXHXHXHXHXHXHXHXHXHXHXHXHXHXHXHXHXHXHXHXHXHXHXHXHXHXHX",
"HXHXHXHXHXHXHXHXHXHXHXHXHXHXHXHXHXHXHXHXHXHXHXHXHXHXHXHXHXHXHXHXHXHXHXHXHXHXHXHXHXHXHXHXHXHXHXHXHXHXHXHXHXHXHXHXHXHXHXHXHXHXHXHXHXHXHXHXHXHXHXHXHXHXHXHXHXHXHXHX",
"HXHXHXHXHXHXHXHXHXHXHXHXHXHXHXHXHXHXHXHXHXHXHXHXHXHXHXHXHXHXHXHXHXHXHXHXHXHXHXHXHXHXHXHXHXHXHXHXHXHXHXHXHXHXHXHXHXHXHXHXHXHXHXHXHXHXHXHXHXHXHXHXHXHXHXHXHXHXHXHX",
"HXHXHXHXHXHXHXHXHXHXHXHXHXHXHXHXHXHXHXHXHXHXHXHXHXHXHXHXHXHXHXHXHXHXHXHXHXHXHXHXHXHXHXHXHXHXHXHXHXHXHXHXHXHXHXHXHXHXHXHXHXHXHXHXHXHXHXHXHXHXHXHXHXHXHXHXHXHXHXHX",
"HXHXHXHXHXHXHXHXHXHXHXHXHXHXHXHXHXHXHXHXHXHXHXHXHXHXHXHXHXHXHXHXHXHXHXHXHXHXHXHXHXHXHXHXHXHXHXHXHXHXHXHXHXHXHXHXHXHXHXHXHXHXHXHXHXHXHXHXHXHXHXHXHXHXHXHXHXHXHXHX",
"HXHXHXHXHXHXHXHXHXHXHXHXHXHXHXHXHXHXHXHXHXHXHXHXHXHXHXHXHXHXHXHXHXHXHXHXHXHXHXHXHXHXHXHXHXHXHXHXHXHXHXHXHXHXHXHXHXHXHXHXHXHXHXHXHXHXHXHXHXHXHXHXHXHXHXHXHXHXHXHX",
"HXHXHXHXHXHXHXHXHXHXHXHXHXHXHXHXHXHXHXHXHXHXHXHXHXHXHXHXHXHXHXHXHXHXHXHXHXHXHXHX. HXHXHXHXHXHXHXHXHXHXHXHXHXHXHXHXHXHXHXHXHXHXHXHXHXHXHXHXHXHXHXHXHXHXHXHXHXHXHX",
"HXHXHXHXHXHXHXHXHXHXHXHXHXHXHXHXHXHXHXHXHXHXHXHXHXHXHXHXHXHXHXHXHXHXHXHXHXHXHX. . . HXHXHXHXHXHXHXHXHXHXHXHXHXHXHXHXHXHXHXHXHXHXHXHXHXHXHXHXHXHXHXHXHXHXHXHXHXHX",
"HXHXHXHXHXHXHXHXHXHXHXHXHXHXHXHXHXHXHXHXHXHXHXHXHXHXHXHXHXHXHXHXHXHXHXHXHXHXHX. . . HXHXHXHXHXHXHXHXHXHXHXHXHXHXHXHXHXHXHXHXHXHXHXHXHXHXHXHXHXHXHXHXHXHXHXHXHXHX",
"HXHXHXHXHXHXHXHXHXHXHXHXHXHXHXHXHXHXHXHXHXHXHXHXHXHXHXHXHXHXHXHXHXHXHXHX. . . . . . . . . HXHXHXHXHXHXHXHXHXHXHXHXHXHXHXHXHXHXHXHXHXHXHXHXHXHXHXHXHXHXHXHXHXHXHX",
"HXHXHXHXHXHXHXHXHXHXHXHXHXHXHXHXHXHXHXHXHXHXHXHXHXHXHXHXHXHXHXHXHXHXHX. . . . . . . . . . . HXHXHXHXHXHXHXHXHXHXHXHXHXHXHXHXHXHXHXHXHXHXHXHXHXHXHXHXHXHXHXHXHXHX",
"HXHXHXHXHXHXHXHXHXHXHXHXHXHXHXHXHXHXHXHXHXHXHXHXHXHXHXHXHXHXHXHXHXHXHX. . . . . . . . . . HXHXHXHXHXHXHXHXHXHXHXHXHXHXHXHXHXHXHXHXHXHXHXHXHXHXHXHXHXHXHXHXHXHXHX",
"HXHXHXHXHXHXHXHXHXHXHXHXHXHXHXHXHXHXHXHXHXHXHXHXHXHXHXHXHXHXHXHXHXHXHXHXHXHXHX. . . HXHXHXHXHXHXHXHXHXHXHXHXHXHXHXHXHXHXHXHXHXHXHXHXHXHXHXHXHXHXHXHXHXHXHXHXHXHX",
"HXHXHXHXHXHXHXHXHXHXHXHXHXHXHXHXHXHXHXHXHXHXHXHXHXHXHXHXHXHXHXHXHXHXHXHXHXHXHX. . . HXHXHXHXHXHXHXHXHXHXHXHXHXHXHXHXHXHXHXHXHXHXHXHXHXHXHXHXHXHXHXHXHXHXHXHXHXHX",
"HXHXHXHXHXHXHXHXHXHXHXHXHXHXHXHXHXHXHXHXHXHXHXHXHXHXHXHXHXHXHXHXHXHXHXHXHXHXHX. . . HXHXHXHXHXHXHXHXHXHXHXHXHXHXHXHXHXHXHXHXHXHXHXHXHXHXHXHXHXHXHXHXHXHXHXHXHXHX",
"HXHXHXHXHXHXHXHXHXHXHXHXHXHXHXHXHXHXHXHXHXHXHXHXHXHXHXHXHXHXHXHXHXHXHXHXHXHXHX. . . HXHXHXHXHXHXHXHXHXHXHXHXHXHXHXHXHXHXHXHXHXHXHXHXHXHXHXHXHXHXHXHXHXHXHXHXHXHX",
"HXHXHXHXHXHXHXHXHXHXHXHXHXHXHXHXHXHXHXHXHXHXHXHXHXHXHXHXHXHXHXHXHXHXHXHXHXHXHX. . . HXHXHXHXHXHXHXHXHXHXHXHXHXHXHXHXHXHXHXHXHXHXHXHXHXHXHXHXHXHXHXHXHXHXHXHXHXHX",
"HXHXHXHXHXHXHXHXHXHXHXHXHXHXHXHXHXHXHXHXHXHXHXHXHXHXHXHXHXHXHXHXHXHXHXHXHX. . . . . . . HXHXHXHXHXHXHXHXHXHXHXHXHXHXHXHXHXHXHXHXHXHXHXHXHXHXHXHXHXHXHXHXHXHXHXHX",
"HXHXHXHXHXHXHXHXHXHXHXHXHXHXHXHXHXHXHXHXHXHXHXHXHXHXHXHXHXHXHXHXHXHXHXHX. . . . . . . . . HXHXHXHXHXHXHXHXHXHXHXHXHXHXHXHXHXHXHXHXHXHXHXHXHXHXHXHXHXHXHXHXHXHXHX",
"HXHXHXHXHXHXHXHXHXHXHXHXHXHXHXHXHXHXHXHXHXHXHXHXHXHXHXHXHXHXHXHXHXHXHX. . . . . . . . . . . HXHXHXHXHXHXHXHXHXHXHXHXHXHXHXHXHXHXHXHXHXHXHXHXHXHXHXHXHXHXHXHXHXHX",
"HXHXHXHXHXHXHXHXHXHXHXHXHXHXHXHXHXHXHXHXHXHXHXHXHXHXHXHXHXHXHXHXHXHXHX. . . . . . . . . . . HXHXHXHXHXHXHXHXHXHXHXHXHXHXHXHXHXHXHXHXHXHXHXHXHXHXHXHXHXHXHXHXHXHX",
"HXHXHXHXHXHXHXHXHXHXHXHXHXHXHXHXHXHXHXHXHXHXHXHXHXHXHXHXHXHXHXHXHXHX. . . . . . . . . . . . . HXHXHXHXHXHXHXHXHXHXHXHXHXHXHXHXHXHXHXHXHXHXHXHXHXHXHXHXHXHXHXHXHX",
"HXHXHXHXHXHXHXHXHXHXHXHXHXHXHXHXHXHXHXHXHXHXHXHXHXHXHXHXHXHXHXHXHXHX. . . . . . . . . . . . . HXHXHXHXHXHXHXHXHXHXHXHXHXHXHXHXHXHXHXHXHXHXHXHXHXHXHXHXHXHXHXHXHX",
"HXHXHXHXHXHXHXHXHXHXHXHXHXHXHXHXHXHXHXHXHXHXHXHXHXHXHXHXHXHXHXHXHX. . . . . . . . . . . . . . . HXHXHXHXHXHXHXHXHXHXHXHXHXHXHXHXHXHXHXHXHXHXHXHXHXHXHXHXHXHXHXHX",
"HXHXHXHXHXHXHXHXHXHXHXHXHXHXHXHXHX& , 3 3 3 3 3 , = @ HXHXHXHXHXHX. . . . . . . . . . . . . . . HXHXHXHX. @ & = 3 3 6 3 3 3 = HXHXHXHXHXHXHXHXHXHXHXHXHXHXHXHXHX",
"HXHXHXHXHXHXHXHXHXHXHXHXHXHXHX. . v ..0.s.v.M.s.o.G r @ . . HXHXHX. . . . . . . . . . . . . . . HXHX. . @ 3 n ] e.M.M.f.e.%.Z & . HXHXHXHXHXHXHXHXHXHXHXHXHXHXHX",
"HXHXHXHXHXHXHXHXHXHXHXHXHXHX3 T t.E.;XwXpXfXfXyX1X XU.l.] p . . HX. . . . . . . . . . . . . . . . . , I t.P. X;XwXlXfXyXwX1X).l...p HXHXHXHXHXHXHXHXHXHXHXHXHXHX",
"HXHXHXHXHXHXHXHXHXHXHXHXHXp ] U.fXFXcX4X;X$X$X1XyXcXFXAX$Xs.` n = . . . . . . . . . . . . . . . e G 4.Q.lXFXAXpX4X&X$X;X1XfXFXMX X0.I HXHXHXHXHXHXHXHXHXHXHXHXHX",
"HXHXHXHXHXHXHXHXHXHXHXHX, ,.$XAXlX1XG.*.] T T o.t.P.&XpXcXAXwXZ.G 3 . . . . . . . . . . . . & p 2.$XcXMXfX1XQ.f.*.! T ] %.v.$XpXAXcXG.n HXHXHXHXHXHXHXHXHXHXHXHX",
"HXHXHXHXHXHXHXHXHXHXHXHX` '.FXfXs.F 6 = = & & = 3 3 h ..P.yXAXlX1X2.r . . . . . . . . . . @ G U.yXAXlX$X4.Z 6 3 = = & = = 3 k %.XXcXfXE.n HXHXHXHXHXHXHXHXHXHXHX",
"HXHXHXHXHXHXHXHXHXHXHXn Q.MXpXf.k @ . . . . . . . . . , n ] F.pXFX7Xv.G @ . . . . . . . 3 %.).lXFX'.4.G r . . . . . . . . . . 3 ! ).MXfXZ.I HXHXHXHXHXHXHXHXHXHX",
"HXHXHXHXHXHXHXHXHXHXHXo.fXMXG.k . . . . . . . . . . . . . . v s.&XAXlXP.G = . . . . . 3 *.&XAXfXU.` 3 . . . . . . . . . . . . . . ` ).AXpX%.HXHXHXHXHXHXHXHXHXHX",
"HXHXHXHXHXHXHXHXHXHX! M.lX$X... . . . . . . . . . . . . . . . , o.'.MXcXE.G @ . . . , ( 4XAXwXZ.k @ . . . . . . . . . . . . . . . @ ..pXFXe.r HXHXHXHXHXHXHXHXHX",
"HXHXHXHXHXHXHXHXHXHX` XXcXF.v . . . . . . . . . . . . . . . . . = Z Z.MXcXG.F . . . ! &XMXyXs.6 @ . . . . . . . . . . . . . . . . . F '.cXZ.T HXHXHXHXHXHXHXHXHX",
"HXHXHXHXHXHXHXHXHXHXo.fXAX0., . . . . . . . . . . . . . . . . . . @ F F.MXlXM.k @ I E.cXfXf.h . . . . . . . . . . . . . . . . . . . k M.lX).%.HXHXHXHXHXHXHXHXHX",
"HXHXHXHXHXHXHXHXHX. o.AXAX%.. . . . . . . . . . . . . . . . . . . . & G ).MXyXt.n M.lXlXF.v . . . . . . . . . . . . . . . . . . . . h f.lXXX2.HXHXHXHXHXHXHXHXHX",
"HXHXHXHXHXHXHXHXHXHX..fXAX,.@ . . . . . . . . . . . . . . . . . . . . = ! XXFXwXf.;XAX'.v @ . . . . . . . . . . . . . . . . . . . . k Z.lXQ.o.HXHXHXHXHXHXHXHXHX",
"HXHXHXHXHXHXHXHXHXHX] 4XMXe.3 . . . . . . . . . . . . . . . . . . . . . = s.pXAXlXFX;X%., . . . . . . . . . . . . . . . . . . . . . F  XcXZ.T HXHXHXHXHXHXHXHXHX",
"HXHXHXHXHXHXHXHXHXHX(  XMXU.F . . . . . . . . . . . . . . . . . . . . . . G U.FXFXAXG.e . . . . . . . . . . . . . . . . . . . . . @ ..pXFX0.r HXHXHXHXHXHXHXHXHX",
"HXHXHXHXHXHXHXHXHXHXF t.lXwX4.@ . . . . . . . . . . . . . . . . . . . . . = *.fXFX1X*.. . . . . . . . . . . . . . . . . . . . . . v Z.AXwXo.@ HXHXHXHXHXHXHXHXHX",
"HXHXHXHXHXHXHXHXHXHXHXI 7XFXQ.k @ . . . . . . . . . . . . . . . . . . . . . I $XMXG.n . . . . . . . . . . . . . . . . . . . . . = e.7XlXZ.G HXHXHXHXHXHXHXHXHXHX",
"HXHXHXHXHXHXHXHXHXHXHXh P.fXfXZ.e . . . . . . . . . . . . . . . . . . . . . F '.MXZ.v . . . . . . . . . . . . . . . . . . . . = ..$XFX7XI HXHXHXHXHXHXHXHXHXHXHX",
"HXHXHXHXHXHXHXHXHXHXHXHXT ).AXwXt.h . . . . . . . . . . . . . . . . . . . . Z ).MXM.k . . . . . . . . . . . . . . . . . . . = (  XAX7Xs.p HXHXHXHXHXHXHXHXHXHXHX",
"HXHXHXHXHXHXHXHXHXHXHXHX& ,.XXAXwXf.F & . . . . . . . . . . . . . . . . & = T E.lXM.v @ . . . . . . . . . . . . . . . . . e o.Q.FXpXZ.n HXHXHXHXHXHXHXHXHXHXHXHX",
"HXHXHXHXHXHXHXHXHXHXHXHXHXe *.4XMXcXU.G 3 . . . . . . & , 3 3 e e r h F ! ] t.'.pXG.] F k r e e 6 3 , & . . . . . . . & r 0.;XFXfXM.I HXHXHXHXHXHXHXHXHXHXHXHXHX",
"HXHXHXHXHXHXHXHXHXHXHXHXHXHXr ! '.cXMX;X4.p . . . . 6 I ,.v.P.).$X4XwXyXyXpXfXcXFXcXpXyXwX4X$X).P.v.2.I 6 @ . . . . & n P.yXAXyXt.F HXHXHXHXHXHXHXHXHXHXHXHXHXHX",
"HXHXHXHXHXHXHXHXHXHXHXHXHXHXHX6 ! M.wXFX4XP.o.n %.l.U.XX4XfXcXAXFXFXFXMXfXwX1X$X&X7XfXMXFXFXFXFXMXfX7X$XE.l.,.F , k 2.).lXAX X*.Z HXHXHXHXHXHXHXHXHXHXHXHXHXHXHX",
"HXHXHXHXHXHXHXHXHXHXHXHXHXHXHXHX. G s.XXcXcX$XF.1XAXFXMXwX&X'.).E.G.M.f.t.2.o...%.,.e.f.M.G.U.).'.&X7XcXFXAX4XP.0.M.1XFXyXU.%.3 HXHXHXHXHXHXHXHXHXHXHXHXHXHXHXHX",
"HXHXHXHXHXHXHXHXHXHXHXHXHXHXHXHXHXHX6 ..1XAXAXAXfXpX;XP.4.( n r 3 @ . . . . . . . . . . . @ , r v ! 4.G.;XyXlXMXFXFXFXpXZ.F . HXHXHXHXHXHXHXHXHXHXHXHXHXHXHXHXHX",
"HXHXHXHXHXHXHXHXHXHXHXHXHXHXHXHXHXHXHX2.fXFXMX1Xl.! p 6 , = @ @ . . . . . . . . . . . . . . . @ & & , 6 p T f.;XAXFXyXG.n HXHXHXHXHXHXHXHXHXHXHXHXHXHXHXHXHXHXHX",
"HXHXHXHXHXHXHXHXHXHXHXHXHXHXHXHXHXHXHX( G.F.0.! h = . . . . @ = e h n I ( o.*.4.*.o.( I Z k e , @ . . . . & p T 2.F.M...HXHXHXHXHXHXHXHXHXHXHXHXHXHXHXHXHXHXHXHX",
"HXHXHXHXHXHXHXHXHXHXHXHXHXHXHXHXHXHXHXHXG Z 3 . . = p Z ! o.,.0.s.M.G.Q. X&X4XyX4X;X XE.P.M.f.0.,...! Z p , . . = n F 3 HXHXHXHXHXHXHXHXHXHXHXHXHXHXHXHXHXHXHXHX",
"HXHXHXHXHXHXHXHXHXHXHXHXHXHXHXHXHXHXHXHX. . & 6 k ( t.Q.7XMXFXAXAXMXcXcXlXfXfXpXfXfXlXlXcXMXMXAXAXAXwX).s.] v 6 = @ . . HXHXHXHXHXHXHXHXHXHXHXHXHXHXHXHXHXHXHXHX",
"HXHXHXHXHXHXHXHXHXHXHXHXHXHXHXHXHXHXHXHX. 6 ( M.1XpXlXcXMXAXlXwX;X XU.Z.f.e.*.o.*.0.f.Z.U.'.&X7XfXAXAXMXlXfX1XG.] e . . HXHXHXHXHXHXHXHXHXHXHXHXHXHXHXHXHXHXHXHX",
"HXHXHXHXHXHXHXHXHXHXHXHXHXHXHXHXHXHXHXHX,.F.&XfXFXcX1XU.s.%.` ! I F Z v h r 6 3 6 r h k n G I ! ` %.t.P.;XcXFXlX;XG.2.n HXHXHXHXHXHXHXHXHXHXHXHXHXHXHXHXHXHXHXHX",
"HXHXHXHXHXHXHXHXHXHXHXHXHXHXHXHXHXHXHXHX4XFXMX4XQ.f.%.F e . . . . . . . . . . . . . . . . . . . . . 3 F o.f.E.1XMXFX;X4.HXHXHXHXHXHXHXHXHXHXHXHXHXHXHXHXHXHXHXHX",
"HXHXHXHXHXHXHXHXHXHXHXHXHXHXHXHXHXHXHXe.7X7XQ.*.p & . . @ & = , , 3 6 6 e r h v h r e e 6 6 3 , = & @ . . @ r %.U.7X$Xf.HXHXHXHXHXHXHXHXHXHXHXHXHXHXHXHXHXHXHXHX",
"HXHXHXHXHXHXHXHXHXHXHXHXHXHXHXHXHXHXHXHXZ v r = @ . . & h T ..2.t.v.G.Q.XX1XwXwXwX1X$XQ.G.M.t.2.o.! k = . . @ = 6 v Z r HXHXHXHXHXHXHXHXHXHXHXHXHXHXHXHXHXHXHXHX",
"HXHXHXHXHXHXHXHXHXHXHXHXHXHXHXHXHXHXHXHX. . . . v ] 0.Z.).$X1X7XyXfXcXAXFXFXFXFXFXFXFXAXcXfXpX7X1X$X).F.e...v @ . . . . HXHXHXHXHXHXHXHXHXHXHXHXHXHXHXHXHXHXHXHX",
"HXHXHXHXHXHXHXHXHXHXHXHXHXHXHXHXHXHXHXHX@ e F %.Z.XXpXFXFXlXyX7X1X&XXX'.Q.U.F.Z.F.P.E.).XX&X;X4XyXfXFXFXfX$XZ.,.I r & . HXHXHXHXHXHXHXHXHXHXHXHXHXHXHXHXHXHXHXHX",
"HXHXHXHXHXHXHXHXHXHXHXHXHXHXHXHXHXHXHXHXZ 2. XcXMXcXfXwX XF.t.,...! G k r = . . . = e h F ! ..,.e.Z. XwXpXlXAXcXXXe.G 3 HXHXHXHXHXHXHXHXHXHXHXHXHXHXHXHXHXHXHXHX",
"HXHXHXHXHXHXHXHXHXHXHXHXHXHXHXHXHXHXHXHX;XfXMXMX;XZ.o.Z r 3 3 , = & & @ . . . . . . . @ @ & = , , 6 e n o.v.&XAXMXlXXX0.HXHXHXHXHXHXHXHXHXHXHXHXHXHXHXHXHXHXHXHX",
"HXHXHXHXHXHXHXHXHXHXHXHXHXHXHXHXHXHXHXHXwX4XE.0.T k 6 . . . . . . . . . . . . . . . . . . . . . . . . . 3 k T 2.P.4X1XZ.HXHXHXHXHXHXHXHXHXHXHXHXHXHXHXHXHXHXHXHX",
"HXHXHXHXHXHXHXHXHXHXHXHXHXHXHXHXHXHXHXHX$XM.! 3 . . . . . . . . . . . . . . . . . . . . . . . . . . . . . . . = T v.'.HXHXHXHXHXHXHXHXHXHXHXHXHXHXHXHXHXHXHXHXHX",
"HXHXHXHXHXHXHXHXHXHXHXHXHXHXHXHXHXHXHXHXHXHX. . . . . . . . . . . . . . . . . . . . . . . . . . . . . . . . . . . HXHXHXHXHXHXHXHXHXHXHXHXHXHXHXHXHXHXHXHXHXHXHX",
"HXHXHXHXHXHXHXHXHXHXHXHXHXHXHXHXHXHXHXHXHXHXHXHXHX. . . . . . . . . . . . . . . . . . . . . . . . . . . . . HXHXHXHXHXHXHXHXHXHXHXHXHXHXHXHXHXHXHXHXHXHXHXHXHXHX",
"HXHXHXHXHXHXHXHXHXHXHXHXHXHXHXHXHXHXHXHXHXHXHXHXHXHXHXHX. . . . . . . . . . . . . . . . . . . . . . . HXHXHXHXHXHXHXHXHXHXHXHXHXHXHXHXHXHXHXHXHXHXHXHXHXHXHXHXHX",
"HXHXHXHXHXHXHXHXHXHXHXHXHXHXHXHXHXHXHXHXHXHXHXHXHXHXHXHXHXHXHXHX. . . . . . . . . . . . . . . HXHXHXHXHXHXHXHXHXHXHXHXHXHXHXHXHXHXHXHXHXHXHXHXHXHXHXHXHXHXHXHXHX",
"HXHXHXHXHXHXHXHXHXHXHXHXHXHXHXHXHXHXHXHXHXHXHXHXHXHXHXHXHXHXHXHXHXHXHXHXHXHXHXHXHXHXHXHXHXHXHXHXHXHXHXHXHXHXHXHXHXHXHXHXHXHXHXHXHXHXHXHXHXHXHXHXHXHXHXHXHXHXHXHX",
"HXHXHXHXHXHXHXHXHXHXHXHXHXHXHXHXHXHXHXHXHXHXHXHXHXHXHXHXHXHXHXHXHXHXHXHXHXHXHXHXHXHXHXHXHXHXHXHXHXHXHXHXHXHXHXHXHXHXHXHXHXHXHXHXHXHXHXHXHXHXHXHXHXHXHXHXHXHXHXHX",
"HXHXHXHXHXHXHXHXHXHXHXHXHXHXHXHXHXHXHXHXHXHXHXHXHXHXHXHXHXHXHXHXHXHXHXHXHXHXHXHXHXHXHXHXHXHXHXHXHXHXHXHXHXHXHXHXHXHXHXHXHXHXHXHXHXHXHXHXHXHXHXHXHXHXHXHXHXHXHXHX",
"HXHXHXHXHXHXHXHXHXHXHXHXHXHXHXHXHXHXHXHXHXHXHXHXHXHXHXHXHXHXHXHXHXHXHXHXHXHXHXHXHXHXHXHXHXHXHXHXHXHXHXHXHXHXHXHXHXHXHXHXHXHXHXHXHXHXHXHXHXHXHXHXHXHXHXHXHXHXHXHX",
"HXHXHXHXHXHXHXHXHXHXHXHXHXHXHXHXHXHXHXHXHXHXHXHXHXHXHXHXHXHXHXHXHXHXHXHXHXHXHXHXHXHXHXHXHXHXHXHXHXHXHXHXHXHXHXHXHXHXHXHXHXHXHXHXHXHXHXHXHXHXHXHXHXHXHXHXHXHXHXHX",
"HXHXHXHXHXHXHXHXHXHXHXHXHXHXHXHXHXHXHXHXHXHXHXHXHXHXHXHXHXHXHXHXHXHXHXHXHXHXHXHXHXHXHXHXHXHXHXHXHXHXHXHXHXHXHXHXHXHXHXHXHXHXHXHXHXHXHXHXHXHXHXHXHXHXHXHXHXHXHXHX",
"HXHXHXHXHXHXHXHXHXHXHXHXHXHXHXHXHXHXHXHXHXHXHXHXHXHXHXHXHXHXHXHXHXHXHXHXHXHXHXHXHXHXHXHXHXHXHXHXHXHXHXHXHXHXHXHXHXHXHXHXHXHXHXHXHXHXHXHXHXHXHXHXHXHXHXHXHXHXHXHX",
"HXHXHXHXHXHXHXHXHXHXHXHXHXHXHXHXHXHXHXHXHXHXHXHXHXHXHXHXHXHXHXHXHXHXHXHXHXHXHXHXHXHXHXHXHXHXHXHXHXHXHXHXHXHXHXHXHXHXHXHXHXHXHXHXHXHXHXHXHXHXHXHXHXHXHXHXHXHXHXHX",
"HXHXHXHXHXHXHXHXHXHXHXHXHXHXHXHXHXHXHXHXHXHXHXHXHXHXHXHXHXHXHXHXHXHXHXHXHXHXHXHXHXHXHXHXHXHXHXHXHXHXHXHXHXHXHXHXHXHXHXHXHXHXHXHXHXHXHXHXHXHXHXHXHXHXHXHXHXHXHXHX"
};
