/* XPM */
static char *xpm_[] = {
/* columns rows colors chars-per-pixel */
"80 80 237 2 ",
"   c black",
".  c #010101",
"X  c #020202",
"o  c gray1",
"O  c #040404",
"+  c gray2",
"@  c #070707",
"#  c gray3",
"$  c #090909",
"%  c gray4",
"&  c #0B0B0B",
"*  c #0C0C0C",
"=  c gray5",
"-  c #0E0E0E",
";  c gray6",
":  c #101010",
">  c #111111",
",  c gray7",
"<  c #131313",
"1  c gray8",
"2  c #151515",
"3  c #161616",
"4  c gray9",
"5  c #181818",
"6  c #191919",
"7  c gray10",
"8  c #1B1B1B",
"9  c gray11",
"0  c #1D1D1D",
"q  c #1E1E1E",
"w  c gray12",
"e  c gray13",
"r  c #222222",
"t  c #232323",
"y  c gray14",
"u  c gray15",
"i  c #272727",
"p  c #282828",
"a  c gray16",
"s  c #2A2A2A",
"d  c gray17",
"f  c #2C2C2C",
"g  c #2D2D2D",
"h  c gray18",
"j  c #2F2F2F",
"k  c gray19",
"l  c #313131",
"z  c #323232",
"x  c gray20",
"c  c #343434",
"v  c #353535",
"b  c gray21",
"n  c #373737",
"m  c gray22",
"M  c #393939",
"N  c #3A3A3A",
"B  c gray23",
"V  c gray24",
"C  c #3E3E3E",
"Z  c #3F3F3F",
"A  c gray25",
"S  c #414141",
"D  c gray26",
"F  c #434343",
"G  c #444444",
"H  c gray27",
"J  c #464646",
"K  c gray28",
"L  c #484848",
"P  c #494949",
"I  c gray29",
"U  c #4B4B4B",
"Y  c #4C4C4C",
"T  c gray30",
"R  c #4E4E4E",
"E  c gray31",
"W  c #505050",
"Q  c #515151",
"!  c gray32",
"~  c #535353",
"^  c gray33",
"/  c #555555",
"(  c #565656",
")  c #585858",
"_  c gray35",
"`  c #5A5A5A",
"'  c #5B5B5B",
"]  c gray36",
"[  c #5D5D5D",
"{  c gray37",
"}  c #5F5F5F",
"|  c #606060",
" . c gray38",
".. c #626262",
"X. c gray39",
"o. c #646464",
"O. c #656565",
"+. c gray40",
"@. c #676767",
"#. c #686868",
"$. c DimGray",
"%. c #6A6A6A",
"&. c gray42",
"*. c #6C6C6C",
"=. c #6D6D6D",
"-. c gray43",
";. c #6F6F6F",
":. c gray44",
">. c #727272",
",. c #747474",
"<. c gray46",
"1. c #767676",
"2. c #777777",
"3. c gray47",
"4. c #797979",
"5. c gray48",
"6. c #7B7B7B",
"7. c #7C7C7C",
"8. c gray49",
"9. c #7E7E7E",
"0. c gray50",
"q. c #808080",
"w. c #818181",
"e. c gray51",
"r. c #838383",
"t. c #848484",
"y. c #868686",
"u. c gray53",
"i. c #888888",
"p. c #898989",
"a. c gray54",
"s. c #8B8B8B",
"d. c gray55",
"f. c #8D8D8D",
"g. c #8E8E8E",
"h. c gray57",
"j. c #929292",
"k. c gray58",
"l. c #959595",
"z. c gray59",
"x. c #979797",
"c. c #989898",
"v. c gray60",
"b. c #9A9A9A",
"n. c #9B9B9B",
"m. c gray61",
"M. c #9D9D9D",
"N. c gray62",
"B. c #9F9F9F",
"V. c #A0A0A0",
"C. c #A2A2A2",
"Z. c gray64",
"A. c #A4A4A4",
"S. c #A5A5A5",
"D. c gray65",
"F. c #A7A7A7",
"G. c gray66",
"H. c #A9A9A9",
"J. c #AAAAAA",
"K. c gray67",
"L. c gray68",
"P. c #AEAEAE",
"I. c #AFAFAF",
"U. c gray69",
"Y. c #B1B1B1",
"T. c #B2B2B2",
"R. c gray70",
"E. c #B4B4B4",
"W. c #B6B6B6",
"Q. c #B7B7B7",
"!. c gray72",
"~. c #B9B9B9",
"^. c #BBBBBB",
"/. c #BCBCBC",
"(. c gray74",
"). c gray",
"_. c gray75",
"`. c #C0C0C0",
"'. c #C1C1C1",
"]. c #C3C3C3",
"[. c #C5C5C5",
"{. c #C6C6C6",
"}. c gray78",
"|. c gray79",
" X c #CACACA",
".X c #CBCBCB",
"XX c #CDCDCD",
"oX c #CECECE",
"OX c gray81",
"+X c #D0D0D0",
"@X c gray82",
"#X c #D2D2D2",
"$X c gray83",
"%X c #D5D5D5",
"&X c gray84",
"*X c #D7D7D7",
"=X c #D8D8D8",
"-X c gray85",
";X c #DADADA",
":X c gray86",
">X c gainsboro",
",X c #DDDDDD",
"<X c gray87",
"1X c #DFDFDF",
"2X c gray88",
"3X c #E1E1E1",
"4X c #E2E2E2",
"5X c gray89",
"6X c #E4E4E4",
"7X c gray90",
"8X c #E6E6E6",
"9X c #E7E7E7",
"0X c gray91",
"qX c #E9E9E9",
"wX c #EAEAEA",
"eX c gray92",
"rX c #ECECEC",
"tX c gray93",
"yX c #EEEEEE",
"uX c #EFEFEF",
"iX c gray94",
"pX c #F1F1F1",
"aX c gray95",
"sX c #F3F3F3",
"dX c #F4F4F4",
"fX c gray96",
"gX c #F6F6F6",
"hX c gray97",
"jX c #F8F8F8",
"kX c #F9F9F9",
"lX c gray98",
"zX c #FBFBFB",
"xX c gray99",
"cX c #FDFDFD",
"vX c #FEFEFE",
"bX c white",
"nX c None",
/* pixels */
"nXnXnXnXnXnXnXnXnXnXnXnXnXnXnXnXnXnXnXnXnXnXnXnXnXnXnXnXnXnXnXnXnXnXnXnXnXnXnXnXnXnXnXnXnXnXnXnXnXnXnXnXnXnXnXnXnXnXnXnXnXnXnXnXnXnXnXnXnXnXnXnXnXnXnXnXnXnXnXnX",
"nXnXnXnXnXnXnXnXnXnXnXnXnXnXnXnXnXnXnXnXnXnXnXnXnXnXnXnXnXnXnXnXnXnXnXnXnXnXnXnXnXnXnXnXnXnXnXnXnXnXnXnXnXnXnXnXnXnXnXnXnXnXnXnXnXnXnXnXnXnXnXnXnXnXnXnXnXnXnXnX",
"nXnXnXnXnXnXnXnXnXnXnXnXnXnXnXnXnXnXnXnXnXnXnXnXnXnXnXnXnXnXnXnXnXnXnXnXnXnXnXnXnXnXnXnXnXnXnXnXnXnXnXnXnXnXnXnXnXnXnXnXnXnXnXnXnXnXnXnXnXnXnXnXnXnXnXnXnXnXnXnX",
"nXnXnXnXnXnXnXnXnXnXnXnXnXnXnXnXnXnXnXnXnXnXnXnXnXnXnXnXnXnXnXnXnXnXnXnXnXnXnXnXnXnXnXnXnXnXnXnXnXnXnXnXnXnXnXnXnXnXnXnXnXnXnXnXnXnXnXnXnXnXnXnXnXnXnXnXnXnXnXnX",
"nXnXnXnXnXnXnXnXnXnXnXnXnXnXnXnXnXnXnXnXnXnXnXnXnXnXnXnXnXnXnXnXnXnXnXnXnXnXnXnXnXnXnXnXnXnXnXnXnXnXnXnXnXnXnXnXnXnXnXnXnXnXnXnXnXnXnXnXnXnXnXnXnXnXnXnXnXnXnXnX",
"nXnXnXnXnXnXnXnXnXnXnXnXnXnXnXnXnXnXnXnXnXnXnXnXnXnXnXnXnXnXnXnXnXnXnXnXnXnXnXnXnXnXnXnXnXnXnXnXnXnXnXnXnXnXnXnXnXnXnXnXnXnXnXnXnXnXnXnXnXnXnXnXnXnXnXnXnXnXnXnX",
"nXnXnXnXnXnXnXnXnXnXnXnXnXnXnXnXnXnXnXnXnXnXnXnXnXnXnXnXnXnXnXnXnXnXnXnXnXnXnXnXnXnXnXnXnXnXnXnXnXnXnXnXnXnXnXnXnXnXnXnXnXnXnXnXnXnXnXnXnXnXnXnXnXnXnXnXnXnXnXnX",
"nXnXnXnXnXnXnXnXnXnXnXnXnXnXnXnXnXnXnXnXnXnXnXnXnXnXnXnXnXnXnXnXnXnXnXnXnXnXnXnXnXnXnXnXnXnXnXnXnXnXnXnXnXnXnXnXnXnXnXnXnXnXnXnXnXnXnXnXnXnXnXnXnXnXnXnXnXnXnXnX",
"nXnXnXnXnXnXnXnXnXnXnXnXnXnXnXnXnXnXnXnXnXnXnXnXnXnXnXnXnXnXnXnXnXnXnXnXnXnX      nXnXnXnXnXnXnXnXnXnXnXnXnXnXnXnXnXnXnXnXnXnXnXnXnXnXnXnXnXnXnXnXnXnXnXnXnXnXnX",
"nXnXnXnXnXnXnXnXnXnXnXnXnXnXnXnXnXnXnXnXnXnXnXnXnXnXnXnXnXnXnXnXnXnXnXnXnX            nXnXnXnXnXnXnXnXnXnXnXnXnXnXnXnXnXnXnXnXnXnXnXnXnXnXnXnXnXnXnXnXnXnXnXnXnX",
"nXnXnXnXnXnXnXnXnXnXnXnXnXnXnXnXnXnXnXnXnXnXnX      nXnXnXnXnXnXnXnXnXnX                nXnXnXnXnXnXnXnXnX      nXnXnXnXnXnXnXnXnXnXnXnXnXnXnXnXnXnXnXnXnXnXnXnX",
"nXnXnXnXnXnXnXnXnXnXnXnXnXnXnXnXnXnXnXnXnX              nXnXnXnXnXnXnX                  nXnXnXnXnXnXnXnX            nXnXnXnXnXnXnXnXnXnXnXnXnXnXnXnXnXnXnXnXnXnX",
"nXnXnXnXnXnXnXnXnXnXnXnXnXnXnXnXnXnXnXnX                  nXnXnXnXnXnX                  nXnXnXnXnXnXnX                nXnXnXnXnXnXnXnXnXnXnXnXnXnXnXnXnXnXnXnXnX",
"nXnXnXnXnXnXnXnXnXnXnXnXnXnXnXnXnXnXnXnX                  nXnXnXnXnXnX                  nXnXnXnXnXnX                  nXnXnXnXnXnXnXnXnXnXnXnXnXnXnXnXnXnXnXnXnX",
"nXnXnXnXnXnXnXnXnXnXnXnXnXnXnXnXnXnXnXnX                  nXnXnXnXnXnX                  nXnXnXnXnXnX                    nXnXnXnXnXnXnXnXnXnXnXnXnXnXnXnXnXnXnXnX",
"nXnXnXnXnXnXnXnXnXnXnXnXnXnXnXnXnXnXnXnX                  nXnXnXnXnXnXnX                nXnXnXnXnXnX                    nXnXnXnXnXnXnXnXnXnXnXnXnXnXnXnXnXnXnXnX",
"nXnXnXnXnXnXnX            nXnXnXnXnXnXnX                  nXnXnXnXnXnXnX              nXnXnXnXnXnXnX                  nXnXnXnXnXnXnX            nXnXnXnXnXnXnXnX",
"nXnXnXnXnXnXnX              nXnXnXnXnXnX                  nXnXnXnXnXnXnXnX          nXnXnXnXnXnXnXnXnX                nXnXnXnXnXnX                nXnXnXnXnXnXnX",
"nXnXnXnXnXnX                  nXnXnXnXnXnX              nXnXnXnXnXnXnXnXnXnX      nXnXnXnXnXnXnXnXnXnX              nXnXnXnXnXnXnX                nXnXnXnXnXnXnX",
"nXnXnXnXnXnX                  nXnXnXnXnXnXnXnX        nXnXnXnXnXnXnXnXnXnXnX      nXnXnXnXnXnXnXnXnXnXnX          nXnXnXnXnXnXnX                    nXnXnXnXnXnX",
"nXnXnXnXnX                    nXnXnXnXnXnXnXnXnX      nXnXnXnXnXnXnXnXnXnX          nXnXnXnXnXnXnXnXnXnX        nXnXnXnXnXnXnXnX                    nXnXnXnXnXnX",
"nXnXnXnXnXnX                  nXnXnXnXnXnXnXnXnX        nXnXnXnXnXnXnXnXnX          nXnXnXnXnXnXnXnXnXnX        nXnXnXnXnXnXnXnX                    nXnXnXnXnXnX",
"nXnXnXnXnXnX                  nXnXnXnXnXnXnXnXnX        nXnXnXnXnXnXnXnXnX          nXnXnXnXnXnXnXnXnX          nXnXnXnXnXnXnXnXnX                nXnXnXnXnXnXnX",
"nXnXnXnXnXnXnX              nXnXnXnXnXnXnXnXnXnX        nXnXnXnXnXnXnXnXnX            nXnXnXnXnXnXnXnX          nXnXnXnXnXnXnXnXnX                nXnXnXnXnXnXnX",
"nXnXnXnXnXnXnXnX            nXnXnXnXnXnXnXnXnXnX          nXnXnXnXnXnXnXnX            nXnXnXnXnXnXnXnX          nXnXnXnXnXnXnXnXnX            nXnXnXnXnXnXnXnXnX",
"nXnXnXnXnXnXnXnXnXnX        nXnXnXnXnXnXnXnXnXnX          nXnXnXnXnXnXnX              nXnXnXnXnXnXnX            nXnXnXnXnXnXnXnXnX        nXnXnXnXnXnXnXnXnXnXnX",
"nXnXnXnXnXnXnXnXnXnXnX        nXnXnXnXnXnXnXnXnX            nXnXnXnXnXnX              nXnXnXnXnXnXnX            nXnXnXnXnXnXnXnX          nXnXnXnXnXnXnXnXnXnXnX",
"nXnXnXnXnXnXnXnXnXnXnX          nXnXnXnXnXnXnXnX            nXnXnXnXnXnX              nXnXnXnXnXnX              nXnXnXnXnXnXnXnX        nXnXnXnXnXnXnXnXnXnXnXnX",
"nXnXnXnXnXnXnXnXnXnXnX          nXnXnXnXnXnXnXnX            nXnXnXnXnXnX                nXnXnXnXnX              nXnXnXnXnXnXnX          nXnXnXnXnXnXnXnXnXnXnXnX",
"nXnXnXnXnXnXnXnXnXnXnX            nXnXnXnXnXnXnX              nXnXnXnXnX                nXnXnXnX                nXnXnXnXnXnX            nXnXnXnXnXnXnXnXnXnXnXnX",
"nXnXnXnXnXnXnXnXnXnXnX              nXnXnXnXnXnX              nXnXnXnXnX                nXnXnXnX                nXnXnXnXnXnX            nXnXnXnXnXnXnXnXnXnXnXnX",
"nXnXnXnXnXnXnXnXnXnXnXnX            nXnXnXnXnXnX                nXnXnX                  nXnXnXnX                nXnXnXnXnX              nXnXnXnXnXnXnXnXnXnXnXnX",
"nXnXnXnXnXnXnXnXnXnXnXnX              nXnXnXnXnX                nXnXnX                  nXnXnX                  nXnXnXnX                nXnXnXnXnXnXnXnXnXnXnXnX",
"nXnXnXnXnXnXnXnXnXnXnXnX                nXnXnX                  nXnXnX                  nXnXnX                  nXnXnXnX              nXnXnXnXnXnXnXnXnXnXnXnXnX",
"nXnXnXnXnXnXnXnXnXnXnXnX                nXnXnX                    nXnX                    nXnX                  nXnXnX                nXnXnXnXnXnXnXnXnXnXnXnXnX",
"nXnXnXnXnXnXnXnXnXnXnXnX                  nXnX                    nXnX                    nX                    nXnX                  nXnXnXnXnXnXnXnXnXnXnXnXnX",
"nXnXnXnXnXnXnXnXnXnXnXnX                  nXnX                                                                  nXnX                  nXnXnXnXnXnXnXnXnXnXnXnXnX",
"nXnXnXnXnXnXnXnXnXnXnXnXnX                                                                                      nX                    nXnXnXnXnXnXnXnXnXnXnXnXnX",
"nXnXnXnXnXnXnXnXnXnXnXnXnX                                                                                                          nXnXnXnXnXnXnXnXnXnXnXnXnXnX",
"nXnXnXnXnXnXnXnXnXnXnXnXnX                                                                                                          nXnXnXnXnXnXnXnXnXnXnXnXnXnX",
"nXnXnXnXnXnXnXnXnXnXnXnXnX                                                                                                          nXnXnXnXnXnXnXnXnXnXnXnXnXnX",
"nXnXnXnXnXnXnXnXnXnXnXnXnX                                                                                                          nXnXnXnXnXnXnXnXnXnXnXnXnXnX",
"nXnXnXnXnXnXnXnXnXnXnXnXnXnX                                                                                                      nXnXnXnXnXnXnXnXnXnXnXnXnXnXnX",
"nXnXnXnXnXnXnXnXnXnXnXnXnXnX                                                                                                      nXnXnXnXnXnXnXnXnXnXnXnXnXnXnX",
"nXnXnXnXnXnXnXnXnXnXnXnXnXnX                                                                                                      nXnXnXnXnXnXnXnXnXnXnXnXnXnXnX",
"nXnXnXnXnXnXnXnXnXnXnXnXnXnX                                O < 8 u k B K ~ ' ..} ( P Z v s q 1 #                                 nXnXnXnXnXnXnXnXnXnXnXnXnXnXnX",
"nXnXnXnXnXnXnXnXnXnXnXnXnXnXnX                  O 8 j Z ~ } #.3.e.g.v.Z.U.~.{.XX X).U.G.m.j.u.8.;.O.( K v q -                     nXnXnXnXnXnXnXnXnXnXnXnXnXnXnX",
"nXnXnXnXnXnXnXnXnXnXnXnXnXnXnX          - < 8 u Z O.j.~.7XjXxXjXjXgXgXiXuXuXeXeXeXeXiXiXiXgXgXjXxXjXuX Xm.<.P s q 1 - #         nXnXnXnXnXnXnXnXnXnXnXnXnXnXnXnX",
"nXnXnXnXnXnXnXnXnXnXnXnXnXnXnX      # s ~ 3.S.XX>XeXuXiXxXjXiX5X+X{.~.G.v.s.8.<.3.s.l.Z.U.].+X>XuXgXxXgXiXuX5X$XU.s...v -       nXnXnXnXnXnXnXnXnXnXnXnXnXnXnXnX",
"nXnXnXnXnXnXnXnXnXnXnXnXnXnXnXnX  r O.W.XX>XgXxXxX7X].m.8.O.' ~ P D Z v j s r r r u j v B D P ~ ~ } >.j.U.$XgXxXjX7XXX~.l.v   nXnXnXnXnXnXnXnXnXnXnXnXnXnXnXnXnX",
"nXnXnXnXnXnXnXnXnXnXnXnXnXnXnXnXnXZ v.jXuX-X].I.l.<.( v 1                                           - s T ;.s.G.).+X7XgX$X} nXnXnXnXnXnXnXnXnXnXnXnXnXnXnXnXnXnX",
"nXnXnXnXnXnXnXnXnXnXnXnXnXnXnXnXnXnX8.~.l.>.D q O                                                             < B } g.G.m.O.nXnXnXnXnXnXnXnXnXnXnXnXnXnXnXnXnXnX",
"nXnXnXnXnXnXnXnXnXnXnXnXnXnXnXnXnXnXnXq 8 < # O                                                                 # - 1 q u nXnXnXnXnXnXnXnXnXnXnXnXnXnXnXnXnXnXnX",
"nXnXnXnXnXnXnXnXnXnXnXnXnXnXnXnXnXnXnX  < T <.<.3.3.3.<.3.3.3.<.3.3.3.3.3.<.3.3.<.3.3.3.<.<.3.3.3.3.3.<.3.3.3.<.<...k   nXnXnXnXnXnXnXnXnXnXnXnXnXnXnXnXnXnXnXnX",
"nXnXnXnXnXnXnXnXnXnXnXnXnXnXnXnXnXnXnXnXK Z.5X5X7X5X5X5X7X5X5X5X5X5X7X7X5X5X5X5X5X5X7X5X5X5X5X5X5X5X5X5X7X5X5X5X7X Xe.  nXnXnXnXnXnXnXnXnXnXnXnXnXnXnXnXnXnXnXnX",
"nXnXnXnXnXnXnXnXnXnXnXnXnXnXnXnXnXnXnXnX} U.eX7X7X7X7X7X7X7X7X7X7X7X7X7X7X7X7X7X7X7X7X7X7X7X7X5X7X7X7X7X7X7X7X7X7X$Xm.nXnXnXnXnXnXnXnXnXnXnXnXnXnXnXnXnXnXnXnXnX",
"nXnXnXnXnXnXnXnXnXnXnXnXnXnXnXnXnXnXnXnX< B ( ' ' ' ' ' ' ' ' ' ' ' ' ' ' ' ' ' ' ' ' ( ' ' ' ' ' ' ' ' ( ' ' ' ' D u nXnXnXnXnXnXnXnXnXnXnXnXnXnXnXnXnXnXnXnXnX",
"nXnXnXnXnXnXnXnXnXnXnXnXnXnXnXnXnXnXnXnX    < < < < < < - < < < < < < < - < < - < < < < < < < < < < < < < < < < < O     nXnXnXnXnXnXnXnXnXnXnXnXnXnXnXnXnXnXnXnX",
"nXnXnXnXnXnXnXnXnXnXnXnXnXnXnXnXnXnXnXB B j 1 O                                                                 < u v D nXnXnXnXnXnXnXnXnXnXnXnXnXnXnXnXnXnXnXnX",
"nXnXnXnXnXnXnXnXnXnXnXnXnXnXnXnXnXnXK 3.G.v.;.K u 8 1 - #                                           O # < 8 r B } s.G.G.K nXnXnXnXnXnXnXnXnXnXnXnXnXnXnXnXnXnXnX",
"nXnXnXnXnXnXnXnXnXnXnXnXnXnXnXnXnXnXP ).eXuXeX5X+XU.s...v 1                                       - s ~ 8.S.{.5X7XuXgX>X' nXnXnXnXnXnXnXnXnXnXnXnXnXnXnXnXnXnXnX",
"nXnXnXnXnXnXnXnXnXnXnXnXnXnXnXnXnX  q ..l.).-XjXxXjX7X+X).I.m.j.s.8.>.#.} ~ K D K T ' O.;.3.u.g.v.S.W. X>XiXxXxX7X{.S.<.u nXnXnXnXnXnXnXnXnXnXnXnXnXnXnXnXnXnXnX",
"nXnXnXnXnXnXnXnXnXnXnXnXnXnXnXnXnX    # j ~ >.g.G.).XX7XjXxXxXxXiXeX>X+X X~.U.G.I.W.].XX-X7XuXjXxXxXxXuX$X].I.v.3.} B 1     nXnXnXnXnXnXnXnXnXnXnXnXnXnXnXnXnXnX",
"nXnXnXnXnXnXnXnXnXnXnXnXnXnXnXnXnX< 1 1 # O     1 v } s.U.+X5X>X5X7X7XeXeXuXuXiXuXuXeXeX7X7X5X5X5X$X).l.;.K q O     # - 8 1 nXnXnXnXnXnXnXnXnXnXnXnXnXnXnXnXnXnX",
"nXnXnXnXnXnXnXnXnXnXnXnXnXnXnXnXO ' s.3.T r #   O # - 1 q r j B P ( ..>.8.s.v.Z.v.g.e.>.O.' T Z k u q 1 < # O     8 Z #.j.;.K nXnXnXnXnXnXnXnXnXnXnXnXnXnXnXnXnX",
"nXnXnXnXnXnXnXnXnXnXnXnXnXnXnXnX8 m.eX>X{.W.l.3.( k -           O - 1 8 r u j k j s r q 1 < #           O u K ;.j.G.].$X7XI.e.nXnXnXnXnXnXnXnXnXnXnXnXnXnXnXnXnX",
"nXnXnXnXnXnXnXnXnXnXnXnXnXnXnXnXr g.].$XiXxXxX5X).v.3.' K B k s r 8 < #               # < 1 q u j v D ~ ;.g.U.$XjXxXjX>X Xm.nXnXnXnXnXnXnXnXnXnXnXnXnXnXnXnXnXnX",
"nXnXnXnXnXnXnXnXnXnXnXnXnXnXnXnXnXs P <.m. X>XeXuXgXjXuX{.I.m.g.8.;...~ D v u r r j Z T } #.3.u.v.S.].5XjXjXiXeX5X+XI.u.} v nXnXnXnXnXnXnXnXnXnXnXnXnXnXnXnXnXnX",
"nXnXnXnXnXnXnXnXnXnXnXnXnXnXnXnXnXnXnX1 8 r Z #.l.).eXjXgXiXiXuXeXeX7X7X5X5X>X$X-X>X5X5X7X7XeXuXiXiXjXjXiXXXS.<.T j 8 1 1 nXnXnXnXnXnXnXnXnXnXnXnXnXnXnXnXnXnXnX",
"nXnXnXnXnXnXnXnXnXnXnXnXnXnXnXnXnXnXnXnXnXnX# u B K ( ;.g.m.I.~.{.+X>XeXgXxXxXxXxXxXjXuX5X$X X).U.S.l.3.} P Z j 1 nXnXnXnXnXnXnXnXnXnXnXnXnXnXnXnXnXnXnXnXnXnXnX",
"nXnXnXnXnXnXnXnXnXnXnXnXnXnXnXnXnXnXnXnXnXnXnXnXnX    - v K ~ ' #.;.3.e.s.j.m.S.Z.l.g.u.8.>.#...( P B q     nXnXnXnXnXnXnXnXnXnXnXnXnXnXnXnXnXnXnXnXnXnXnXnXnXnX",
"nXnXnXnXnXnXnXnXnXnXnXnXnXnXnXnXnXnXnXnXnXnXnXnXnXnXnXnXnXnX                O # O                 nXnXnXnXnXnXnXnXnXnXnXnXnXnXnXnXnXnXnXnXnXnXnXnXnXnXnXnXnXnXnX",
"nXnXnXnXnXnXnXnXnXnXnXnXnXnXnXnXnXnXnXnXnXnXnXnXnXnXnXnXnXnXnXnXnXnXnXnXnXnXnXnXnXnXnXnXnXnXnXnXnXnXnXnXnXnXnXnXnXnXnXnXnXnXnXnXnXnXnXnXnXnXnXnXnXnXnXnXnXnXnXnX",
"nXnXnXnXnXnXnXnXnXnXnXnXnXnXnXnXnXnXnXnXnXnXnXnXnXnXnXnXnXnXnXnXnXnXnXnXnXnXnXnXnXnXnXnXnXnXnXnXnXnXnXnXnXnXnXnXnXnXnXnXnXnXnXnXnXnXnXnXnXnXnXnXnXnXnXnXnXnXnXnX",
"nXnXnXnXnXnXnXnXnXnXnXnXnXnXnXnXnXnXnXnXnXnXnXnXnXnXnXnXnXnXnXnXnXnXnXnXnXnXnXnXnXnXnXnXnXnXnXnXnXnXnXnXnXnXnXnXnXnXnXnXnXnXnXnXnXnXnXnXnXnXnXnXnXnXnXnXnXnXnXnX",
"nXnXnXnXnXnXnXnXnXnXnXnXnXnXnXnXnXnXnXnXnXnXnXnXnXnXnXnXnXnXnXnXnXnXnXnXnXnXnXnXnXnXnXnXnXnXnXnXnXnXnXnXnXnXnXnXnXnXnXnXnXnXnXnXnXnXnXnXnXnXnXnXnXnXnXnXnXnXnXnX",
"nXnXnXnXnXnXnXnXnXnXnXnXnXnXnXnXnXnXnXnXnXnXnXnXnXnXnXnXnXnXnXnXnXnXnXnXnXnXnXnXnXnXnXnXnXnXnXnXnXnXnXnXnXnXnXnXnXnXnXnXnXnXnXnXnXnXnXnXnXnXnXnXnXnXnXnXnXnXnXnX",
"nXnXnXnXnXnXnXnXnXnXnXnXnXnXnXnXnXnXnXnXnXnXnXnXnXnXnXnXnXnXnXnXnXnXnXnXnXnXnXnXnXnXnXnXnXnXnXnXnXnXnXnXnXnXnXnXnXnXnXnXnXnXnXnXnXnXnXnXnXnXnXnXnXnXnXnXnXnXnXnX",
"nXnXnXnXnXnXnXnXnXnXnXnXnXnXnXnXnXnXnXnXnXnXnXnXnXnXnXnXnXnXnXnXnXnXnXnXnXnXnXnXnXnXnXnXnXnXnXnXnXnXnXnXnXnXnXnXnXnXnXnXnXnXnXnXnXnXnXnXnXnXnXnXnXnXnXnXnXnXnXnX",
"nXnXnXnXnXnXnXnXnXnXnXnXnXnXnXnXnXnXnXnXnXnXnXnXnXnXnXnXnXnXnXnXnXnXnXnXnXnXnXnXnXnXnXnXnXnXnXnXnXnXnXnXnXnXnXnXnXnXnXnXnXnXnXnXnXnXnXnXnXnXnXnXnXnXnXnXnXnXnXnX"
};
