/* XPM */
static char *xpm_[] = {
/* columns rows colors chars-per-pixel */
"80 80 184 2 ",
"   c black",
".  c #010101",
"X  c #020202",
"o  c gray1",
"O  c #040404",
"+  c gray2",
"@  c #060606",
"#  c #070707",
"$  c gray3",
"%  c #090909",
"&  c gray4",
"*  c #0B0B0B",
"=  c gray5",
"-  c #0E0E0E",
";  c #101010",
":  c gray7",
">  c #131313",
",  c gray8",
"<  c #151515",
"1  c #161616",
"2  c gray9",
"3  c #181818",
"4  c gray10",
"5  c #1B1B1B",
"6  c gray11",
"7  c #1D1D1D",
"8  c #1E1E1E",
"9  c #202020",
"0  c gray13",
"q  c #232323",
"w  c gray14",
"e  c #252525",
"r  c #272727",
"t  c #282828",
"y  c gray16",
"u  c #2A2A2A",
"i  c gray17",
"p  c #2C2C2C",
"a  c gray18",
"s  c #2F2F2F",
"d  c gray19",
"f  c #313131",
"g  c gray20",
"h  c #353535",
"j  c gray21",
"k  c #373737",
"l  c #393939",
"z  c #3A3A3A",
"x  c gray23",
"c  c #3E3E3E",
"v  c #3F3F3F",
"b  c #434343",
"n  c gray27",
"m  c #464646",
"M  c gray28",
"N  c #494949",
"B  c #4C4C4C",
"V  c gray30",
"C  c gray31",
"Z  c #515151",
"A  c gray32",
"S  c #535353",
"D  c gray33",
"F  c #555555",
"G  c #585858",
"H  c gray35",
"J  c #5A5A5A",
"K  c #5B5B5B",
"L  c gray36",
"P  c #5F5F5F",
"I  c #606060",
"U  c #626262",
"Y  c gray39",
"T  c #656565",
"R  c #686868",
"E  c #6D6D6D",
"W  c gray43",
"Q  c #6F6F6F",
"!  c gray44",
"~  c #717171",
"^  c gray45",
"/  c #747474",
"(  c gray46",
")  c #777777",
"_  c #797979",
"`  c #7B7B7B",
"'  c #7C7C7C",
"]  c gray49",
"[  c gray51",
"{  c gray52",
"}  c #868686",
"|  c #888888",
" . c gray54",
".. c #8D8D8D",
"X. c #8E8E8E",
"o. c gray56",
"O. c #909090",
"+. c gray57",
"@. c #939393",
"#. c gray58",
"$. c #959595",
"%. c gray59",
"&. c #979797",
"*. c #989898",
"=. c gray60",
"-. c #9A9A9A",
";. c #9B9B9B",
":. c gray61",
">. c gray62",
",. c #9F9F9F",
"<. c #A0A0A0",
"1. c gray63",
"2. c #A2A2A2",
"3. c #A4A4A4",
"4. c gray65",
"5. c #A7A7A7",
"6. c #A9A9A9",
"7. c #AAAAAA",
"8. c gray67",
"9. c #AEAEAE",
"0. c gray69",
"q. c #B2B2B2",
"w. c gray70",
"e. c #B4B4B4",
"r. c gray71",
"t. c #B6B6B6",
"y. c gray72",
"u. c #BCBCBC",
"i. c gray74",
"p. c gray",
"a. c gray75",
"s. c #C0C0C0",
"d. c #C1C1C1",
"f. c gray76",
"g. c gray77",
"h. c #C5C5C5",
"j. c gray78",
"k. c gray79",
"l. c #CACACA",
"z. c #CBCBCB",
"x. c gray80",
"c. c #CDCDCD",
"v. c #CECECE",
"b. c gray81",
"n. c #D0D0D0",
"m. c #D2D2D2",
"M. c LightGray",
"N. c gray83",
"B. c #D5D5D5",
"V. c gray84",
"C. c #D7D7D7",
"Z. c #D8D8D8",
"A. c #DADADA",
"S. c gray86",
"D. c gainsboro",
"F. c #DDDDDD",
"G. c gray87",
"H. c #DFDFDF",
"J. c gray88",
"K. c #E2E2E2",
"L. c gray89",
"P. c #E4E4E4",
"I. c gray90",
"U. c #E7E7E7",
"Y. c gray91",
"T. c #E9E9E9",
"R. c #ECECEC",
"E. c gray93",
"W. c #EEEEEE",
"Q. c gray94",
"!. c #F1F1F1",
"~. c gray95",
"^. c #F4F4F4",
"/. c #F6F6F6",
"(. c gray97",
"). c #F8F8F8",
"_. c #F9F9F9",
"`. c gray98",
"'. c #FBFBFB",
"]. c gray99",
"[. c #FDFDFD",
"{. c #FEFEFE",
"}. c white",
"|. c green",
/* pixels */
"|.|.|.|.|.|.|.|.|.|.|.|.|.|.|.|.|.|.|.|.|.|.|.|.|.|.|.|.|.|.|.|.|.|.|.|.|.|.|.|.|.|.|.|.|.|.|.|.|.|.|.|.|.|.|.|.|.|.|.|.|.|.|.|.|.|.|.|.|.|.|.|.|.|.|.|.|.|.|.|.",
"|.|.|.|.|.|.|.|.|.|.|.|.|.|.|.|.|.|.|.|.|.|.|.|.|.|.|.|.|.|.|.|.|.|.|.|.|.|.|.|.|.|.|.|.|.|.|.|.|.|.|.|.|.|.|.|.|.|.|.|.|.|.|.|.|.|.|.|.|.|.|.|.|.|.|.|.|.|.|.|.",
"|.|.|.|.|.|.|.|.|.|.|.|.|.|.|.|.|.|.|.|.|.|.|.|.|.|.|.|.|.|.|.|.|.|.|.|.|.|.|.|.|.|.|.|.|.|.|.|.|.|.|.|.|.|.|.|.|.|.|.|.|.|.|.|.|.|.|.|.|.|.|.|.|.|.|.|.|.|.|.|.",
"|.|.|.|.|.|.|.|.|.|.|.|.|.|.|.|.|.|.|.|.|.|.|.|.|.|.|.|.|.|.|.|.|.|.|.|.|.|.|.|.|.|.|.|.|.|.|.|.|.|.|.|.|.|.|.|.|.|.|.|.|.|.|.|.|.|.|.|.|.|.|.|.|.|.|.|.|.|.|.|.",
"|.|.|.|.|.|.|.|.|.|.|.|.|.|.|.|.|.|.|.|.|.|.|.|.|.|.|.|.|.|.|.|.|.|.|.|.|.|.|.|.|.|.|.|.|.|.|.|.|.|.|.|.|.|.|.|.|.|.|.|.|.|.|.|.|.|.|.|.|.|.|.|.|.|.|.|.|.|.|.|.",
"|.|.|.|.|.|.|.|.|.|.|.|.|.|.|.|.|.|.|.|.|.|.|.|.|.|.|.|.|.|.|.|.|.|.|.|.|.|.|.|.|.|.|.|.|.|.|.|.|.|.|.|.|.|.|.|.|.|.|.|.|.|.|.|.|.|.|.|.|.|.|.|.|.|.|.|.|.|.|.|.",
"|.|.|.|.|.|.|.|.|.|.|.|.|.|.|.|.|.|.|.|.|.|.|.|.|.|.|.|.|.|.|.|.|.|.|.|.|.|.|.|.|.|.|.|.|.|.|.|.|.|.|.|.|.|.|.|.|.|.|.|.|.|.|.|.|.|.|.|.|.|.|.|.|.|.|.|.|.|.|.|.",
"|.|.|.|.|.|.|.|.|.|.|.|.|.|.|.|.|.|.|.|.|.|.|.|.|.|.|.|.|.|.|.|.|.|.|.|.|.|.|.|.|.|.|.|.|.|.|.|.|.|.|.|.|.|.|.|.|.|.|.|.|.|.|.|.|.|.|.|.|.|.|.|.|.|.|.|.|.|.|.|.",
"|.|.|.|.|.|.|.|.|.|.|.|.|.|.|.|.|.|.|.|.|.|.|.|.|.|.|.|.|.|.|.|.|.|.|.|.|.|.|.|.|.|.|.|.|.|.|.|.|.|.|.|.|.|.|.|.|.|.|.|.|.|.|.|.|.|.|.|.|.|.|.|.|.|.|.|.|.|.|.|.",
"|.|.|.|.|.|.|.|.|.|.|.|.|.|.|.|.|.|.|.|.|.|.|.|.|.|.|.|.|.|.|.|.|.|.|.|.|.|.|.    |.|.|.|.|.|.|.|.|.|.|.|.|.|.|.|.|.|.|.|.|.|.|.|.|.|.|.|.|.|.|.|.|.|.|.|.|.|.|.",
"|.|.|.|.|.|.|.|.|.|.|.|.|.|.|.|.|.|.|.|.|.|.|.|.|.|.|.|.|.|.|.|.|.|.|.|.|.            |.|.|.|.|.|.|.|.|.|.|.|.|.|.|.|.|.|.|.|.|.|.|.|.|.|.|.|.|.|.|.|.|.|.|.|.|.",
"|.|.|.|.|.|.|.|.|.|.|.|.|.|.|.|.|.|.|.|.|.|.|.        |.|.|.|.|.|.|.|.|.                |.|.|.|.|.|.|.|.|.        |.|.|.|.|.|.|.|.|.|.|.|.|.|.|.|.|.|.|.|.|.|.|.",
"|.|.|.|.|.|.|.|.|.|.|.|.|.|.|.|.|.|.|.|.|.|.            |.|.|.|.|.|.|.                    |.|.|.|.|.|.|.            |.|.|.|.|.|.|.|.|.|.|.|.|.|.|.|.|.|.|.|.|.|.",
"|.|.|.|.|.|.|.|.|.|.|.|.|.|.|.|.|.|.|.|.|.                |.|.|.|.|.|.                    |.|.|.|.|.|.                |.|.|.|.|.|.|.|.|.|.|.|.|.|.|.|.|.|.|.|.|.",
"|.|.|.|.|.|.|.|.|.|.|.|.|.|.|.|.|.|.|.|.                  |.|.|.|.|.|.                    |.|.|.|.|.|.                  |.|.|.|.|.|.|.|.|.|.|.|.|.|.|.|.|.|.|.|.",
"|.|.|.|.|.|.|.|.|.|.|.|.|.|.|.|.|.|.|.|.                    |.|.|.|.|.                    |.|.|.|.|.                    |.|.|.|.|.|.|.|.|.|.|.|.|.|.|.|.|.|.|.|.",
"|.|.|.|.|.|.|.|.|.|.  |.|.|.|.|.|.|.|.|.                    |.|.|.|.|.|.                |.|.|.|.|.|.                    |.|.|.|.|.|.|.|.|.  |.|.|.|.|.|.|.|.|.|.",
"|.|.|.|.|.|.|.|.            |.|.|.|.|.|.                  |.|.|.|.|.|.|.                |.|.|.|.|.|.|.                  |.|.|.|.|.|.            |.|.|.|.|.|.|.|.",
"|.|.|.|.|.|.|.                |.|.|.|.|.|.                |.|.|.|.|.|.|.|.|.        |.|.|.|.|.|.|.|.|.                |.|.|.|.|.|.                |.|.|.|.|.|.|.",
"|.|.|.|.|.|.                  |.|.|.|.|.|.|.            |.|.|.|.|.|.|.|.|.|.        |.|.|.|.|.|.|.|.|.|.            |.|.|.|.|.|.|.                  |.|.|.|.|.|.",
"|.|.|.|.|.|.                  |.|.|.|.|.|.|.|.        |.|.|.|.|.|.|.|.|.|.|.        |.|.|.|.|.|.|.|.|.|.|.        |.|.|.|.|.|.|.|.                  |.|.|.|.|.|.",
"|.|.|.|.|.|.                    |.|.|.|.|.|.|.|.        |.|.|.|.|.|.|.|.|.|.        |.|.|.|.|.|.|.|.|.|.        |.|.|.|.|.|.|.|.                    |.|.|.|.|.|.",
"|.|.|.|.|.|.                  |.|.|.|.|.|.|.|.|.        |.|.|.|.|.|.|.|.|.|.        |.|.|.|.|.|.|.|.|.|.        |.|.|.|.|.|.|.|.|.                  |.|.|.|.|.|.",
"|.|.|.|.|.|.                  |.|.|.|.|.|.|.|.|.        |.|.|.|.|.|.|.|.|.            |.|.|.|.|.|.|.|.|.        |.|.|.|.|.|.|.|.|.                  |.|.|.|.|.|.",
"|.|.|.|.|.|.|.              |.|.|.|.|.|.|.|.|.|.          |.|.|.|.|.|.|.|.            |.|.|.|.|.|.|.|.          |.|.|.|.|.|.|.|.|.|.              |.|.|.|.|.|.|.",
"|.|.|.|.|.|.|.|.            |.|.|.|.|.|.|.|.|.|.          |.|.|.|.|.|.|.|.            |.|.|.|.|.|.|.|.          |.|.|.|.|.|.|.|.|.|.            |.|.|.|.|.|.|.|.",
"|.|.|.|.|.|.|.|.|.|.|.        |.|.|.|.|.|.|.|.|.            |.|.|.|.|.|.|.            |.|.|.|.|.|.|.            |.|.|.|.|.|.|.|.|.        |.|.|.|.|.|.|.|.|.|.|.",
"|.|.|.|.|.|.|.|.|.|.|.        |.|.|.|.|.|.|.|.|.            |.|.|.|.|.|.|.            |.|.|.|.|.|.|.            |.|.|.|.|.|.|.|.|.        |.|.|.|.|.|.|.|.|.|.|.",
"|.|.|.|.|.|.|.|.|.|.|.          |.|.|.|.|.|.|.|.            |.|.|.|.|.|.                |.|.|.|.|.|.            |.|.|.|.|.|.|.|.          |.|.|.|.|.|.|.|.|.|.|.",
"|.|.|.|.|.|.|.|.|.|.|.            |.|.|.|.|.|.|.              |.|.|.|.|.                |.|.|.|.|.              |.|.|.|.|.|.|.            |.|.|.|.|.|.|.|.|.|.|.",
"|.|.|.|.|.|.|.|.|.|.|.            |.|.|.|.|.|.|.              |.|.|.|.|.                |.|.|.|.|.              |.|.|.|.|.|.|.            |.|.|.|.|.|.|.|.|.|.|.",
"|.|.|.|.|.|.|.|.|.|.|.|.            |.|.|.|.|.|.              |.|.|.|.|.                |.|.|.|.|.              |.|.|.|.|.|.            |.|.|.|.|.|.|.|.|.|.|.|.",
"|.|.|.|.|.|.|.|.|.|.|.|.              |.|.|.|.|.                |.|.|.|.                |.|.|.|.                |.|.|.|.|.              |.|.|.|.|.|.|.|.|.|.|.|.",
"|.|.|.|.|.|.|.|.|.|.|.|.              |.|.|.|.|.                |.|.|.                    |.|.|.                |.|.|.|.|.              |.|.|.|.|.|.|.|.|.|.|.|.",
"|.|.|.|.|.|.|.|.|.|.|.|.                |.|.|.|.                  |.|.                    |.|.                  |.|.|.|.                |.|.|.|.|.|.|.|.|.|.|.|.",
"|.|.|.|.|.|.|.|.|.|.|.|.                  |.|.|.                  |.|.                    |.|.                  |.|.|.                  |.|.|.|.|.|.|.|.|.|.|.|.",
"|.|.|.|.|.|.|.|.|.|.|.|.|.                |.|.|.                  |.|.                    |.|.                  |.|.|.                |.|.|.|.|.|.|.|.|.|.|.|.|.",
"|.|.|.|.|.|.|.|.|.|.|.|.|.                  |.|.                                                                |.|.                  |.|.|.|.|.|.|.|.|.|.|.|.|.",
"|.|.|.|.|.|.|.|.|.|.|.|.|.                    |.                                                                |.                    |.|.|.|.|.|.|.|.|.|.|.|.|.",
"|.|.|.|.|.|.|.|.|.|.|.|.|.                                                                                                            |.|.|.|.|.|.|.|.|.|.|.|.|.",
"|.|.|.|.|.|.|.|.|.|.|.|.|.|.                                                                                                        |.|.|.|.|.|.|.|.|.|.|.|.|.|.",
"|.|.|.|.|.|.|.|.|.|.|.|.|.|.                                                                                                        |.|.|.|.|.|.|.|.|.|.|.|.|.|.",
"|.|.|.|.|.|.|.|.|.|.|.|.|.|.                          @ @   & & & - 4 0 0 u u d d k d d u u w 0 4 ; & @ @ @                         |.|.|.|.|.|.|.|.|.|.|.|.|.|.",
"|.|.|.|.|.|.|.|.|.|.|.|.|.|.            ; 0 p l n K ~ { -.4.w.u.x.m.S.S.H.H.H.J.J.P.P.P.H.H.H.S.V.V.l.u.9.2.o.( K n k w , @         |.|.|.|.|.|.|.|.|.|.|.|.|.|.",
"|.|.|.|.|.|.|.|.|.|.|.|.|.|.  7 n I [ 2.y.x.J.R._.}.}.}.}.}.}.}.}.}.}.}.}.}.}.}.}.}.}.}.}.}.}.}.}.}.}.}.}.}.}.}.}._.T.V.u.2.] C 7   |.|.|.|.|.|.|.|.|.|.|.|.|.|.",
"|.|.|.|.|.|.|.|.|.|.|.|.|.|.D l.!.^.}.}.}.}.}.}.}.}._.R.J.V.x.j.u.w.8.4.2.>.>.%.%.o.@.%.-.>.2.4.8.e.u.j.m.S.P._.}.}.}.}.}.}.}.^.l.A |.|.|.|.|.|.|.|.|.|.|.|.|.|.",
"|.|.|.|.|.|.|.|.|.|.|.|.|.|.@.!.}._.R.J.m.e.-.{ ~ K n l p u 0 4 , - @                           @ - , 7 0 p k b K ~ o.8.x.H.!.}.!.@.|.|.|.|.|.|.|.|.|.|.|.|.|.|.",
"|.|.|.|.|.|.|.|.|.|.|.|.|.|.|.Q ] I N p ; & @                                                                         @ - u A _ Q |.|.|.|.|.|.|.|.|.|.|.|.|.|.|.",
"|.|.|.|.|.|.|.|.|.|.|.|.|.|.|.                                                                                                    |.|.|.|.|.|.|.|.|.|.|.|.|.|.|.",
"|.|.|.|.|.|.|.|.|.|.|.|.|.|.|.|.                                                                                                |.|.|.|.|.|.|.|.|.|.|.|.|.|.|.|.",
"|.|.|.|.|.|.|.|.|.|.|.|.|.|.|.|.                  @ ; 7 u d k b n C C A D D K K P D D D A A C n c l d u 7 ; @                   |.|.|.|.|.|.|.|.|.|.|.|.|.|.|.|.",
"|.|.|.|.|.|.|.|.|.|.|.|.|.|.|.|.|.    & u N ~ @.4.y.f.m.V.H.J.P.R.!.^._._._._.}.}.}._._._.!.!.R.T.J.H.V.x.j.y.4.@.Q C w &     |.|.|.|.|.|.|.|.|.|.|.|.|.|.|.|.|.",
"|.|.|.|.|.|.|.|.|.|.|.|.|.|.|.|.|.|.& _ P._.}.}.}.}.}.}.}.}.}.}.}.}.}._.}._.}._._._.}._.}.}.}.}.}.}.}.}.}.}.}.}.}.}._.J._ & |.|.|.|.|.|.|.|.|.|.|.|.|.|.|.|.|.|.",
"|.|.|.|.|.|.|.|.|.|.|.|.|.|.|.|.|.|.|.m.}.}.^.P.S.x.j.e.4.-.@.{ ] ~ Q R T T P K K P T T T Q ~ _ { @.-.4.e.f.x.V.P.^.}.}.m.|.|.|.|.|.|.|.|.|.|.|.|.|.|.|.|.|.|.|.",
"|.|.|.|.|.|.|.|.|.|.|.|.|.|.|.|.|.|.|.|.-.( A l w 7 -                                                   @ - 4 u c A ( -.|.|.|.|.|.|.|.|.|.|.|.|.|.|.|.|.|.|.|.|.",
"|.|.|.|.|.|.|.|.|.|.|.|.|.|.|.|.|.|.|.|.&                                                                             & |.|.|.|.|.|.|.|.|.|.|.|.|.|.|.|.|.|.|.|.",
"|.|.|.|.|.|.|.|.|.|.|.|.|.|.|.|.|.|.|.|.|.              @ - , , 4 0 0 u w u u p p u u u u 0 7 7 4 ; - @               |.|.|.|.|.|.|.|.|.|.|.|.|.|.|.|.|.|.|.|.|.",
"|.|.|.|.|.|.|.|.|.|.|.|.|.|.|.|.|.|.|.|.  & , k C T ( | -.8.y.f.l.V.H.P.T.R.R.!.!.R.R.P.P.H.V.l.f.e.8.%.| ( T C d 4 &   |.|.|.|.|.|.|.|.|.|.|.|.|.|.|.|.|.|.|.|.",
"|.|.|.|.|.|.|.|.|.|.|.|.|.|.|.|.|.|.|.|.{ u.S.J.R._.}.}.}.}.}.}.}.}.}.}.}.}.}.}.}.}.}.}.}.}.}.}.}.}.}.}.}.}._.!.J.S.f.[ |.|.|.|.|.|.|.|.|.|.|.|.|.|.|.|.|.|.|.|.",
"|.|.|.|.|.|.|.|.|.|.|.|.|.|.|.|.|.|.|.w H.}.}.}.}._.!.T.T.S.l.f.e.8.>.-.@.@.o.| | o.o.%.%.2.8.e.f.l.H.T.R.!.^.}.}.}.}.S.w |.|.|.|.|.|.|.|.|.|.|.|.|.|.|.|.|.|.|.",
"|.|.|.|.|.|.|.|.|.|.|.|.|.|.|.|.|.|.|.& _ f.9.-._ I N k 0 4 ; ; - & & & @ @ @   @ @   @ @ & - - - ; 4 0 k N P _ -.9.f._ & |.|.|.|.|.|.|.|.|.|.|.|.|.|.|.|.|.|.|.",
"|.|.|.|.|.|.|.|.|.|.|.|.|.|.|.|.|.|.    @ , &                                                                     - , @     |.|.|.|.|.|.|.|.|.|.|.|.|.|.|.|.|.|.",
"|.|.|.|.|.|.|.|.|.|.|.|.|.|.|.|.|.|.                                                                                        |.|.|.|.|.|.|.|.|.|.|.|.|.|.|.|.|.|.",
"|.|.|.|.|.|.|.|.|.|.|.|.|.|.|.|.|.                                                                                            |.|.|.|.|.|.|.|.|.|.|.|.|.|.|.|.|.",
"|.|.|.|.|.|.|.|.|.|.|.|.|.|.|.|.|.                                                                                            |.|.|.|.|.|.|.|.|.|.|.|.|.|.|.|.|.",
"|.|.|.|.|.|.|.|.|.|.|.|.|.|.|.|.                                                                                                |.|.|.|.|.|.|.|.|.|.|.|.|.|.|.|.",
"|.|.|.|.|.|.|.|.|.|.|.|.|.|.|.|.                                                                                                |.|.|.|.|.|.|.|.|.|.|.|.|.|.|.|.",
"|.|.|.|.|.|.|.|.|.|.|.|.|.|.|.|.|.                                                                                            |.|.|.|.|.|.|.|.|.|.|.|.|.|.|.|.|.",
"|.|.|.|.|.|.|.|.|.|.|.|.|.|.|.|.|.                                                                                          |.|.|.|.|.|.|.|.|.|.|.|.|.|.|.|.|.|.",
"|.|.|.|.|.|.|.|.|.|.|.|.|.|.|.|.|.|.|.                                                                                    |.|.|.|.|.|.|.|.|.|.|.|.|.|.|.|.|.|.|.",
"|.|.|.|.|.|.|.|.|.|.|.|.|.|.|.|.|.|.|.|.|.|.|.|.|.|.                                                        |.|.|.|.|.|.|.|.|.|.|.|.|.|.|.|.|.|.|.|.|.|.|.|.|.|.",
"|.|.|.|.|.|.|.|.|.|.|.|.|.|.|.|.|.|.|.|.|.|.|.|.|.|.|.|.|.|.|.|.|.|.|.|.|.|.|.|.|.|.|.|.|.|.|.|.|.|.|.|.|.|.|.|.|.|.|.|.|.|.|.|.|.|.|.|.|.|.|.|.|.|.|.|.|.|.|.|.",
"|.|.|.|.|.|.|.|.|.|.|.|.|.|.|.|.|.|.|.|.|.|.|.|.|.|.|.|.|.|.|.|.|.|.|.|.|.|.|.|.|.|.|.|.|.|.|.|.|.|.|.|.|.|.|.|.|.|.|.|.|.|.|.|.|.|.|.|.|.|.|.|.|.|.|.|.|.|.|.|.",
"|.|.|.|.|.|.|.|.|.|.|.|.|.|.|.|.|.|.|.|.|.|.|.|.|.|.|.|.|.|.|.|.|.|.|.|.|.|.|.|.|.|.|.|.|.|.|.|.|.|.|.|.|.|.|.|.|.|.|.|.|.|.|.|.|.|.|.|.|.|.|.|.|.|.|.|.|.|.|.|.",
"|.|.|.|.|.|.|.|.|.|.|.|.|.|.|.|.|.|.|.|.|.|.|.|.|.|.|.|.|.|.|.|.|.|.|.|.|.|.|.|.|.|.|.|.|.|.|.|.|.|.|.|.|.|.|.|.|.|.|.|.|.|.|.|.|.|.|.|.|.|.|.|.|.|.|.|.|.|.|.|.",
"|.|.|.|.|.|.|.|.|.|.|.|.|.|.|.|.|.|.|.|.|.|.|.|.|.|.|.|.|.|.|.|.|.|.|.|.|.|.|.|.|.|.|.|.|.|.|.|.|.|.|.|.|.|.|.|.|.|.|.|.|.|.|.|.|.|.|.|.|.|.|.|.|.|.|.|.|.|.|.|.",
"|.|.|.|.|.|.|.|.|.|.|.|.|.|.|.|.|.|.|.|.|.|.|.|.|.|.|.|.|.|.|.|.|.|.|.|.|.|.|.|.|.|.|.|.|.|.|.|.|.|.|.|.|.|.|.|.|.|.|.|.|.|.|.|.|.|.|.|.|.|.|.|.|.|.|.|.|.|.|.|.",
"|.|.|.|.|.|.|.|.|.|.|.|.|.|.|.|.|.|.|.|.|.|.|.|.|.|.|.|.|.|.|.|.|.|.|.|.|.|.|.|.|.|.|.|.|.|.|.|.|.|.|.|.|.|.|.|.|.|.|.|.|.|.|.|.|.|.|.|.|.|.|.|.|.|.|.|.|.|.|.|.",
"|.|.|.|.|.|.|.|.|.|.|.|.|.|.|.|.|.|.|.|.|.|.|.|.|.|.|.|.|.|.|.|.|.|.|.|.|.|.|.|.|.|.|.|.|.|.|.|.|.|.|.|.|.|.|.|.|.|.|.|.|.|.|.|.|.|.|.|.|.|.|.|.|.|.|.|.|.|.|.|.",
"|.|.|.|.|.|.|.|.|.|.|.|.|.|.|.|.|.|.|.|.|.|.|.|.|.|.|.|.|.|.|.|.|.|.|.|.|.|.|.|.|.|.|.|.|.|.|.|.|.|.|.|.|.|.|.|.|.|.|.|.|.|.|.|.|.|.|.|.|.|.|.|.|.|.|.|.|.|.|.|."
};
