/* XPM */
static char *xpm_[] = {
/* columns rows colors chars-per-pixel */
"80 80 244 2 ",
"   c black",
".  c #010101",
"X  c #020202",
"o  c gray1",
"O  c #040404",
"+  c gray2",
"@  c #060606",
"#  c #070707",
"$  c gray3",
"%  c #090909",
"&  c gray4",
"*  c #0B0B0B",
"=  c #0C0C0C",
"-  c gray5",
";  c #0E0E0E",
":  c gray6",
">  c #101010",
",  c #111111",
"<  c gray7",
"1  c #131313",
"2  c gray8",
"3  c #151515",
"4  c #161616",
"5  c gray9",
"6  c #181818",
"7  c #191919",
"8  c gray10",
"9  c #1B1B1B",
"0  c gray11",
"q  c #1D1D1D",
"w  c #1E1E1E",
"e  c gray12",
"r  c #202020",
"t  c gray13",
"y  c #222222",
"u  c #232323",
"i  c gray14",
"p  c #252525",
"a  c gray15",
"s  c #272727",
"d  c #282828",
"f  c gray16",
"g  c #2A2A2A",
"h  c gray17",
"j  c #2C2C2C",
"k  c #2D2D2D",
"l  c gray18",
"z  c #2F2F2F",
"x  c gray19",
"c  c #313131",
"v  c #323232",
"b  c gray20",
"n  c #343434",
"m  c #353535",
"M  c gray21",
"N  c #373737",
"B  c gray22",
"V  c #393939",
"C  c #3A3A3A",
"Z  c gray23",
"A  c #3C3C3C",
"S  c gray24",
"D  c #3F3F3F",
"F  c gray25",
"G  c #414141",
"H  c gray26",
"J  c #434343",
"K  c #444444",
"L  c gray27",
"P  c #464646",
"I  c gray28",
"U  c #484848",
"Y  c #494949",
"T  c gray29",
"R  c #4B4B4B",
"E  c gray30",
"W  c #4E4E4E",
"Q  c gray31",
"!  c #505050",
"~  c #515151",
"^  c gray32",
"/  c #535353",
"(  c #555555",
")  c #565656",
"_  c gray34",
"`  c #585858",
"'  c gray35",
"]  c #5A5A5A",
"[  c #5B5B5B",
"{  c #5D5D5D",
"}  c gray37",
"|  c #5F5F5F",
" . c #606060",
".. c gray38",
"X. c #626262",
"o. c gray39",
"O. c #646464",
"+. c #656565",
"@. c #676767",
"#. c #686868",
"$. c DimGray",
"%. c gray42",
"&. c #6C6C6C",
"*. c gray43",
"=. c #6F6F6F",
"-. c gray44",
";. c #717171",
":. c gray45",
">. c #747474",
",. c #767676",
"<. c #777777",
"1. c gray47",
"2. c #797979",
"3. c gray48",
"4. c #7B7B7B",
"5. c #7C7C7C",
"6. c gray49",
"7. c #7E7E7E",
"8. c gray50",
"9. c #808080",
"0. c #818181",
"q. c gray51",
"w. c #838383",
"e. c #848484",
"r. c gray52",
"t. c #868686",
"y. c gray53",
"u. c #888888",
"i. c #898989",
"p. c gray54",
"a. c #8B8B8B",
"s. c gray55",
"d. c #8D8D8D",
"f. c #8E8E8E",
"g. c gray56",
"h. c #909090",
"j. c #929292",
"k. c #939393",
"l. c gray58",
"z. c #959595",
"x. c gray59",
"c. c #979797",
"v. c #989898",
"b. c gray60",
"n. c #9A9A9A",
"m. c #9B9B9B",
"M. c gray61",
"N. c #9D9D9D",
"B. c gray62",
"V. c #9F9F9F",
"C. c #A0A0A0",
"Z. c gray63",
"A. c #A2A2A2",
"S. c gray64",
"D. c #A4A4A4",
"F. c #A5A5A5",
"G. c gray65",
"H. c #A7A7A7",
"J. c gray66",
"K. c #A9A9A9",
"L. c #AAAAAA",
"P. c gray67",
"I. c #ACACAC",
"U. c gray68",
"Y. c #AEAEAE",
"T. c #AFAFAF",
"R. c gray69",
"E. c #B1B1B1",
"W. c #B2B2B2",
"Q. c gray70",
"!. c #B4B4B4",
"~. c gray71",
"^. c #B7B7B7",
"/. c gray72",
"(. c #B9B9B9",
"). c gray73",
"_. c #BBBBBB",
"`. c #BCBCBC",
"'. c gray74",
"]. c gray",
"[. c gray75",
"{. c #C0C0C0",
"}. c #C1C1C1",
"|. c gray76",
" X c #C3C3C3",
".X c gray77",
"XX c #C5C5C5",
"oX c #C6C6C6",
"OX c gray78",
"+X c gray79",
"@X c #CACACA",
"#X c #CBCBCB",
"$X c gray80",
"%X c #CDCDCD",
"&X c #CECECE",
"*X c gray81",
"=X c #D0D0D0",
"-X c gray82",
";X c LightGray",
":X c gray83",
">X c #D5D5D5",
",X c gray84",
"<X c #D7D7D7",
"1X c #D8D8D8",
"2X c gray85",
"3X c #DADADA",
"4X c gray86",
"5X c gainsboro",
"6X c #DDDDDD",
"7X c gray87",
"8X c #DFDFDF",
"9X c gray88",
"0X c #E1E1E1",
"qX c #E2E2E2",
"wX c gray89",
"eX c #E4E4E4",
"rX c gray90",
"tX c #E6E6E6",
"yX c #E7E7E7",
"uX c gray91",
"iX c #E9E9E9",
"pX c #EAEAEA",
"aX c gray92",
"sX c #ECECEC",
"dX c gray93",
"fX c #EEEEEE",
"gX c #EFEFEF",
"hX c gray94",
"jX c #F1F1F1",
"kX c gray95",
"lX c #F3F3F3",
"zX c #F4F4F4",
"xX c gray96",
"cX c #F6F6F6",
"vX c gray97",
"bX c #F8F8F8",
"nX c #F9F9F9",
"mX c gray98",
"MX c #FBFBFB",
"NX c gray99",
"BX c #FDFDFD",
"VX c #FEFEFE",
"CX c white",
"ZX c green",
/* pixels */
"ZXZXZXZXZXZXZXZXZXZXZXZXZXZXZXZXZXZXZXZXZXZXZXZXZXZXZXZXZXZXZXZXZXZXZXZXZXZXZXZXZXZXZXZXZXZXZXZXZXZXZXZXZXZXZXZXZXZXZXZXZXZXZXZXZXZXZXZXZXZXZXZXZXZXZXZXZXZXZXZX",
"ZXZXZXZXZXZXZXZXZXZXZXZXZXZXZXZXZXZXZXZXZXZXZXZXZXZXZXZXZXZXZXZXZXZXZXZXZXZXZXZXZXZXZXZXZXZXZXZXZXZXZXZXZXZXZXZXZXZXZXZXZXZXZXZXZXZXZXZXZXZXZXZXZXZXZXZXZXZXZXZX",
"ZXZXZXZXZXZXZXZXZXZXZXZXZXZXZXZXZXZXZXZXZXZXZXZXZXZXZXZXZXZXZXZXZXZXZXZXZXZXZXZXZXZXZXZXZXZXZXZXZXZXZXZXZXZXZXZXZXZXZXZXZXZXZXZXZXZXZXZXZXZXZXZXZXZXZXZXZXZXZXZX",
"ZXZXZXZXZXZXZXZXZXZXZXZXZXZXZXZXZXZXZXZXZXZXZXZXZXZXZXZXZXZXZXZXZXZXZXZXZXZXZXZXZXZXZXZXZXZXZXZXZXZXZXZXZXZXZXZXZXZXZXZXZXZXZXZXZXZXZXZXZXZXZXZXZXZXZXZXZXZXZXZX",
"ZXZXZXZXZXZXZXZXZXZXZXZXZXZXZXZXZXZXZXZXZXZXZXZXZXZXZXZXZXZXZXZXZXZXZXZXZXZXZXZXZXZXZXZXZXZXZXZXZXZXZXZXZXZXZXZXZXZXZXZXZXZXZXZXZXZXZXZXZXZXZXZXZXZXZXZXZXZXZXZX",
"ZXZXZXZXZXZXZXZXZXZXZXZXZXZXZXZXZXZXZXZXZXZXZXZXZXZXZXZXZXZXZXZXZXZXZXZXZXZXZXZXZXZXZXZXZXZXZXZXZXZXZXZXZXZXZXZXZXZXZXZXZXZXZXZXZXZXZXZXZXZXZXZXZXZXZXZXZXZXZXZX",
"ZXZXZXZXZXZXZXZXZXZXZXZXZXZXZXZXZXZXZXZXZXZXZXZXZXZXZXZXZXZXZXZXZXZXZXZXZXZXZXZXZXZXZXZXZXZXZXZXZXZXZXZXZXZXZXZXZXZXZXZXZXZXZXZXZXZXZXZXZXZXZXZXZXZXZXZXZXZXZXZX",
"ZXZXZXZXZXZXZXZXZXZXZXZXZXZXZXZXZXZXZXZXZXZXZXZXZXZXZXZXZXZXZXZXZXZXZXZXZXZXZXZXZXZXZXZXZXZXZXZXZXZXZXZXZXZXZXZXZXZXZXZXZXZXZXZXZXZXZXZXZXZXZXZXZXZXZXZXZXZXZXZX",
"ZXZXZXZXZXZXZXZXZXZXZXZXZXZXZXZXZXZXZXZXZXZXZXZXZXZXZXZXZXZXZXZXZXZXZXZXZXZXZXZXZXZXZXZXZXZXZXZXZXZXZXZXZXZXZXZXZXZXZXZXZXZXZXZXZXZXZXZXZXZXZXZXZXZXZXZXZXZXZXZX",
"ZXZXZXZXZXZXZXZXZXZXZXZXZXZXZXZXZXZXZXZXZXZXZXZXZXZXZXZXZXZXZXZXZXZXZXZXZXZXZXZXZXZXZXZXZXZXZXZXZXZXZXZXZXZXZXZXZXZXZXZXZXZXZXZXZXZXZXZXZXZXZXZXZXZXZXZXZXZXZXZX",
"ZXZXZXZXZXZXZXZXZXZXZXZXZXZXZXZXZXZXZXZXZXZXZXZXZXZXZXZXZXZXZXZXZXZXZXZXZXZXZXo o ZXZXZXZXZXZXZXZXZXZXZXZXZXZXZXZXZXZXZXZXZXZXZXZXZXZXZXZXZXZXZXZXZXZXZXZXZXZXZX",
"ZXZXZXZXZXZXZXZXZXZXZXZXZXZXZXZXZXZXZXZXZXZXZXZXZXZXZXZXZXZXZXZXZXZXZXZXZXZXZXo o ZXZXZXZXZXZXZXZXZXZXZXZXZXZXZXZXZXZXZXZXZXZXZXZXZXZXZXZXZXZXZXZXZXZXZXZXZXZXZX",
"ZXZXZXZXZXZXZXZXZXZXZXZXZXZXZXZXZXZXZXZXZXZXZXZXZXZXZXZXZXZXZXZXZXZXZXZXZXZXZXo o ZXZXZXZXZXZXZXZXZXZXZXZXZXZXZXZXZXZXZXZXZXZXZXZXZXZXZXZXZXZXZXZXZXZXZXZXZXZXZX",
"ZXZXZXZXZXZXZXZXZXZXZXZXZXZXZXZXZXZXZXZXZXZXZXZXZXZXZXZXZXZXZXZXZXZXZXo o o o o o o o o o ZXZXZXZXZXZXZXZXZXZXZXZXZXZXZXZXZXZXZXZXZXZXZXZXZXZXZXZXZXZXZXZXZXZXZX",
"ZXZXZXZXZXZXZXZXZXZXZXZXZXZXZXZXZXZXZXZXZXZXZXZXZXZXZXZXZXZXZXZXZXZXo o o o o o o o o o o o ZXZXZXZXZXZXZXZXZXZXZXZXZXZXZXZXZXZXZXZXZXZXZXZXZXZXZXZXZXZXZXZXZXZX",
"ZXZXZXZXZXZXZXZXZXZXZXZXZXZXZXZXZXZXZXZXZXZXZXZXZXZXZXZXZXZXZXZXZXZXZXo o o o o o o o o o ZXZXZXZXZXZXZXZXZXZXZXZXZXZXZXZXZXZXZXZXZXZXZXZXZXZXZXZXZXZXZXZXZXZXZX",
"ZXZXZXZXZXZXZXZXZXZXZXZXZXZXZXZXZXZXZXZXZXZXZXZXZXZXZXZXZXZXZXZXZXZXZXZXZXZXZXo o ZXZXZXZXZXZXZXZXZXZXZXZXZXZXZXZXZXZXZXZXZXZXZXZXZXZXZXZXZXZXZXZXZXZXZXZXZXZXZX",
"ZXZXZXZXZXZXZXZXZXZXZXZXZXZXZXZXZXZXZXZXZXZXZXZXZXZXZXZXZXZXZXZXZXZXZXZXZXZXZXo o ZXZXZXZXZXZXZXZXZXZXZXZXZXZXZXZXZXZXZXZXZXZXZXZXZXZXZXZXZXZXZXZXZXZXZXZXZXZXZX",
"ZXZXZXZXZXZXZXZXZXZXZXZXZXZXZXZXZXZXZXZXZXZXZXZXZXZXZXZXZXZXZXZXZXZXZXZXZXZXZXo o ZXZXZXZXZXZXZXZXZXZXZXZXZXZXZXZXZXZXZXZXZXZXZXZXZXZXZXZXZXZXZXZXZXZXZXZXZXZXZX",
"ZXZXZXZXZXZXZXZXZXZXZXZXZXZXZXZXZXZXZXZXZXZXZXZXZXZXZXZXZXZXZXZXZXZXZXZXZXZXZXo o ZXZXZXZXZXZXZXZXZXZXZXZXZXZXZXZXZXZXZXZXZXZXZXZXZXZXZXZXZXZXZXZXZXZXZXZXZXZXZX",
"ZXZXZXZXZXZXZXZXZXZXZXZXZXZXZXZXZXZXZXZXZXZXZXZXZXZXZXZXZXZXZXZXZXZXZXZXZXZXo o o o ZXZXZXZXZXZXZXZXZXZXZXZXZXZXZXZXZXZXZXZXZXZXZXZXZXZXZXZXZXZXZXZXZXZXZXZXZXZX",
"ZXZXZXZXZXZXZXZXZXZXZXZXZXZXZXZXZXZXZXZXZXZXZXZXZXZXZXZXZXZXZXZXZXZXZXZXo @ w n n w o o ZXZXZXZXZXZXZXZXZXZXZXZXZXZXZXZXZXZXZXZXZXZXZXZXZXZXZXZXZXZXZXZXZXZXZXZX",
"ZXZXZXZXZXZXZXZXZXZXZXZXZXZXZXZXZXZXZXZXZXZXZXZXZXZXZXZXZXZXZXZXZXZXZXo 3 5.:XvXvX-X5.3 o ZXZXZXZXZXZXZXZXZXZXZXZXZXZXZXZXZXZXZXZXZXZXZXZXZXZXZXZXZXZXZXZXZXZXZX",
"ZXZXZXZXZXZXZXZXZXZXZXZXZXZXZXZXZXZXZXZXZXZXZXZXZXZXZXZXZXZXZXZXZXZXo ; B.MXCXCXCXCXMXB.; o ZXZXZXZXZXZXZXZXZXZXZXZXZXZXZXZXZXZXZXZXZXZXZXZXZXZXZXZXZXZXZXZXZXZX",
"ZXZXZXZXZXZXZXZXZXZXZXZXZXZXZXZXZXZXZXZXZXZXZXZXZXZXZXZXZXZXZXZXZXZXo #.vXCX2Xt.t.2XCXvX@.o ZXZXZXZXZXZXZXZXZXZXZXZXZXZXZXZXZXZXZXZXZXZXZXZXZXZXZXZXZXZXZXZXZXZX",
"ZXZXZXZXZXZXZXZXZXZXZXZXZXZXZXZXZXZXZXZXZXZXZXZXZXZXZXZXZXZXZXZXZXo 3 .XCXqXL o o F qXCX.X> o ZXZXZXZXZXZXZXZXZXZXZXZXZXZXZXZXZXZXZXZXZXZXZXZXZXZXZXZXZXZXZXZXZX",
"ZXZXZXZXZXZXZXZXZXZXZXZXZXZXZXZXZXZXZXZXZXZXZXZXZXZXZXZXZXZXZXZXZXo F gXCXh.o o o o h.CXjXF o ZXZXZXZXZXZXZXZXZXZXZXZXZXZXZXZXZXZXZXZXZXZXZXZXZXZXZXZXZXZXZXZXZX",
"ZXZXZXZXZXZXZXZXZXZXZXZXZXZXZXZXZXZXo o o o o o o ZXZXZXZXZXZXZXZXo X.MXvX[ o o o o X.vXMXX.o ZXZXZXZXZXZXo o o o o o o o ZXZXZXZXZXZXZXZXZXZXZXZXZXZXZXZXZXZXZX",
"ZXZXZXZXZXZXZXZXZXZXZXZXZXZXZXo o o > a x k f 8 @ o o o ZXZXZXZXZXo X.MXvX} o o o o } vXMXX.o ZXZXZXo o o o o 3 a k k f 3 @ o o ZXZXZXZXZXZXZXZXZXZXZXZXZXZXZXZX",
"ZXZXZXZXZXZXZXZXZXZXZXZXZXZXo > T h._.-XqX7X2X.XL.3.F > o o ZXZXZXo L jXCXt.o o o o t.CXjXF o ZXo o o @ k @.B.`.:X7XqX2X|.B.} w o ZXZXZXZXZXZXZXZXZXZXZXZXZXZXZX",
"ZXZXZXZXZXZXZXZXZXZXZXZXZXo F W.jXCXCXCXCXCXCXCXCXCXgX|.;.f o o ZXo 8 :XCX*Xw o o y *XCX-X8 o o o ; Q A.tXMXCXCXCXCXCXCXCXCXvX:X;.8 o ZXZXZXZXZXZXZXZXZXZXZXZXZX",
"ZXZXZXZXZXZXZXZXZXZXZXZX@ X.qXCXCXgX-XT.h.c.D.|.7XjXCXCXCX:X3.y o o o w.CXCX<.o o 3.CXCXw.@ o @ L W.jXCXCXMXqX+XT.c.c.D..XtXCXCXMX^.x o ZXZXZXZXZXZXZXZXZXZXZXZX",
"ZXZXZXZXZXZXZXZXZXZXZXo } uXCXvXL.T 3 o o o @ @ a ( c.7XCXCXCX+X( $ o f 2XCXqXS S qXCX2Xf o w a.gXCXCXjX^.*.x ; @ o o o $ C w.2XCXCX*XC o ZXZXZXZXZXZXZXZXZXZXZX",
"ZXZXZXZXZXZXZXZXZXZXZXn 2XCXgX3.; o o o o o o o o o @ a 3.:XCXCXjXh.8 o ;.MXCX*X*XCXMX*.o C `.CXCXjXT.L ; o o o o o o o o o o n T.CXCX|.f ZXZXZXZXZXZXZXZXZXZXZX",
"ZXZXZXZXZXZXZXZXZXZX@ b.CXMXw.@ o o o o o o o o o o o o o a s.gXCXCX^.k ; A.CXCXCXCXD.> Q :XCXCX*X[ ; o o o o o o o o o o o o o 8 D.CXCXb.$ ZXZXZXZXZXZXZXZXZXZX",
"ZXZXZXZXZXZXZXZXZXZXx 2XCX|.3 o o o o o o o o o o o o o o o @ Q *XCXCX+Xn y _.CXCX`.y / qXCXMXD.f o o o o o o o o o o o o o o o o y |.CXtXC ZXZXZXZXZXZXZXZXZXZX",
"ZXZXZXZXZXZXZXZXZXo X.CXCX;.o o o o o o o o o o o o o o o o o o k W.CXCX+Xx k |.|.k T 7XCXvXs.> o o o o o o o o o o o o o o o o o o X.CXCX*.o ZXZXZXZXZXZXZXZXZX",
"ZXZXZXZXZXZXZXZXZX$ s.CXgXx o o o o o o o o o o o o o o o o o o o w D.CXCX|.y f f f -XCXMXt.; o o o o o o o o o o o o o o o o o o o k uXCXh.@ ZXZXZXZXZXZXZXZXZX",
"ZXZXZXZXZXZXZXZXZX; T.CX-Xw o o o o o o o o o o o o o o o o o o o o 8 L.CXCXB.$ > T.CXMXh.; o o o o o o o o o o o o o o o o o o o o w 2XCXD.; ZXZXZXZXZXZXZXZXZX",
"ZXZXZXZXZXZXZXZXZX> ^.CX.X3 o o o o o o o o o o o o o o o o o o o o o a .XCXvX#.*.MXCX^.8 o o o o o o o o o o o o o o o o o o o o o y 2XCXA.; ZXZXZXZXZXZXZXZXZX",
"ZXZXZXZXZXZXZXZXZX; L.CX:Xy o o o o o o o o o o o o o o o o o o o o o o F uXCXqXtXCX7XC o o o o o o o o o o o o o o o o o o o o o o x gXCXa.@ ZXZXZXZXZXZXZXZXZX",
"ZXZXZXZXZXZXZXZXZXo t.CXjXS o o o o o o o o o o o o o o o o o o o o o o @ w.CXCXCXMX5.o o o o o o o o o o o o o o o o o o o o o o o *.CXMXX.o ZXZXZXZXZXZXZXZXZX",
"ZXZXZXZXZXZXZXZXZXo [ vXCXa.o o o o o o o o o o o o o o o o o o o o o o o y -XCXCX-Xw o o o o o o o o o o o o o o o o o o o o o o > `.CX7Xn ZXZXZXZXZXZXZXZXZXZX",
"ZXZXZXZXZXZXZXZXZXZXy *XCX2Xk o o o o o o o o o o o o o o o o o o o o o o o w.CXCX5.o o o o o o o o o o o o o o o o o o o o o o o #.vXCXb.@ ZXZXZXZXZXZXZXZXZXZX",
"ZXZXZXZXZXZXZXZXZXZXo <.CXCXA.; o o o o o o o o o o o o o o o o o o o o o o ( CXCX[ o o o o o o o o o o o o o o o o o o o o o o n 2XCXtXS ZXZXZXZXZXZXZXZXZXZXZX",
"ZXZXZXZXZXZXZXZXZXZXZXw `.CXvX5.@ o o o o o o o o o o o o o o o o o o o o o ( CXCX[ o o o o o o o o o o o o o o o o o o o o o a |.CXMX3.@ ZXZXZXZXZXZXZXZXZXZXZX",
"ZXZXZXZXZXZXZXZXZXZXZXo L qXCXjX<.$ o o o o o o o o o o o o o o o o o o o o ( CXCX[ o o o o o o o o o o o o o o o o o o o o a ^.CXCXL.3 ZXZXZXZXZXZXZXZXZXZXZXZX",
"ZXZXZXZXZXZXZXZXZXZXZXZXo } uXCXvXs.3 o o o o o o o o o o o o o o o @ $ > 3 } MXMX} $ @ o o o o o o o o o o o o o o o o o C |.CXCX_.a ZXZXZXZXZXZXZXZXZXZXZXZXZX",
"ZXZXZXZXZXZXZXZXZXZXZXZXZX@ @.qXCXMX_.F o o o o o o o o w n / ;.s.L.`.*X:X:XqXCXCXqX-X|.T.c.3.( n y $ o o o o o o o o $ X.2XCXCX_.f ZXZXZXZXZXZXZXZXZXZXZXZXZXZX",
"ZXZXZXZXZXZXZXZXZXZXZXZXZXZXo / :XCXCXqXt.y o o ; n <.A.+XuXMXCXCXCXCXCXCXCXCXCXCXCXCXCXCXCXCXCXgX-XL.w.L 3 o o o o f b.jXCXMXD.a ZXZXZXZXZXZXZXZXZXZXZXZXZXZXZX",
"ZXZXZXZXZXZXZXZXZXZXZXZXZXZXZXo x D.MXCXCX+X} <.|.uXMXCXCXCXCXMXuX:X.X_.W.L.A.A.L.T.^.|.-XqXvXCXCXCXCXCXgX*Xa.F y #.:XCXCXuXw.3 ZXZXZXZXZXZXZXZXZXZXZXZXZXZXZXZX",
"ZXZXZXZXZXZXZXZXZXZXZXZXZXZXZXZXZX> @.:XCXCXjXCXCXCXvXqX|.c.#.L n f w > $ @ o o @ @ ; 8 a x F X.a._.7XjXCXCXCXtX:XvXCXCX|.Q @ ZXZXZXZXZXZXZXZXZXZXZXZXZXZXZXZXZX",
"ZXZXZXZXZXZXZXZXZXZXZXZXZXZXZXZXZXZX$ h.CXCXCXMX2XB.} k ; o o o o o o o o o o o o o o o o o o o o @ y ( s.*XMXCXCXCXvXs.y o ZXZXZXZXZXZXZXZXZXZXZXZXZXZXZXZXZXZX",
"ZXZXZXZXZXZXZXZXZXZXZXZXZXZXZXZXZXZXZX:XCXjX_.@.a $ o o o o o o o o o o @ $ $ ; $ @ o o o o o o o o o o o w ( L.uXCX7XC ZXZXZXZXZXZXZXZXZXZXZXZXZXZXZXZXZXZXZXZX",
"ZXZXZXZXZXZXZXZXZXZXZXZXZXZXZXZXZXZXZX} s.[ ; o o o o o @ > f Q @.5.h.A.L.T.W.W.T.L.A.c.t.#./ x 3 $ o o o o o @ L s.#.ZXZXZXZXZXZXZXZXZXZXZXZXZXZXZXZXZXZXZXZXZX",
"ZXZXZXZXZXZXZXZXZXZXZXZXZXZXZXZXZXZXZXo o o o o o 8 L ;.D.*XuXjXvXCXCXCXCXCXCXCXCXCXCXCXCXMXjXuX:XT.5./ y @ o o o @ o ZXZXZXZXZXZXZXZXZXZXZXZXZXZXZXZXZXZXZXZXZX",
"ZXZXZXZXZXZXZXZXZXZXZXZXZXZXZXZXZXZXZXo o o 8 Q b.+XgXCXCXCXCXCXvXuXtX7X:X:X:X:X:X:X7XqXuXvXCXCXCXCXCXjX:XD.} y o o o ZXZXZXZXZXZXZXZXZXZXZXZXZXZXZXZXZXZXZXZXZX",
"ZXZXZXZXZXZXZXZXZXZXZXZXZXZXZXZXZXZXZXo w ;..XvXCXCXCXvXtX`.b.<.} T n y 8 > > ; > 3 a x F [ ;.h.^.7XvXCXCXCXMX-Xt.k @ ZXZXZXZXZXZXZXZXZXZXZXZXZXZXZXZXZXZXZXZXZX",
"ZXZXZXZXZXZXZXZXZXZXZXZXZXZXZXZXZXZXZX<.*XMXCXCXgX.Xs./ f 3 @ o o o o o o o o o o o o o o o o o > a L w.`.tXCXCXCX7Xa.ZXZXZXZXZXZXZXZXZXZXZXZXZXZXZXZXZXZXZXZXZX",
"ZXZXZXZXZXZXZXZXZXZXZXZXZXZXZXZXZXZXZX7XCXCX7Xh.Q 3 o o o o o o o o o o o o o o o o o o o o o o o o o o ; S w.*XMXCXuXZXZXZXZXZXZXZXZXZXZXZXZXZXZXZXZXZXZXZXZXZX",
"ZXZXZXZXZXZXZXZXZXZXZXZXZXZXZXZXZXZXZXt._.w.f @ o o o o o o ; f S Q } #.<.5.t.t.5.5.*.X.( F k 3 o o o o o o o 8 *._.c.ZXZXZXZXZXZXZXZXZXZXZXZXZXZXZXZXZXZXZXZXZX",
"ZXZXZXZXZXZXZXZXZXZXZXZXZXZXZXZXZXZXZX@ > o o o o $ y F 3.D.|.:XtXvXCXCXCXCXCXCXCXCXCXCXMXuX2X+XL.w./ a ; o o o o > $ ZXZXZXZXZXZXZXZXZXZXZXZXZXZXZXZXZXZXZXZXZX",
"ZXZXZXZXZXZXZXZXZXZXZXZXZXZXZXZXZXZXZXo o o o f #.A.2XMXCXCXCXCXCXCXMXMXvXvXvXjXvXvXvXMXCXCXCXCXCXCXvXqXW.<.n @ o o o ZXZXZXZXZXZXZXZXZXZXZXZXZXZXZXZXZXZXZXZXZX",
"ZXZXZXZXZXZXZXZXZXZXZXZXZXZXZXZXZXZXZXo ; L B.7XMXCXCXCXvX7X.XL.s.*.[ T C n k k x C L [ #.t.D.|.:XgXCXCXCXCXtXT.[ 3 o ZXZXZXZXZXZXZXZXZXZXZXZXZXZXZXZXZXZXZXZXZX",
"ZXZXZXZXZXZXZXZXZXZXZXZXZXZXZXZXZXZXZXQ D.gXCXCXCXtX^.5./ k > o o o o o o o o o o o o o o o o $ f T ;.L.qXvXCXCXvX`.X.ZXZXZXZXZXZXZXZXZXZXZXZXZXZXZXZXZXZXZXZXZX",
"ZXZXZXZXZXZXZXZXZXZXZXZXZXZXZXZXZXZXZX7XCXCXjX`.<.x ; o o o o o o o o o o o o o o o o o o o o o o o o $ a @.T.uXCXCXqXZXZXZXZXZXZXZXZXZXZXZXZXZXZXZXZXZXZXZXZXZX",
"ZXZXZXZXZXZXZXZXZXZXZXZXZXZXZXZXZXZXZXvXtXT./ > o o o o o o o o o o o o o o o o o o o o o o o o o o o o o o ; S b.7XtXZXZXZXZXZXZXZXZXZXZXZXZXZXZXZXZXZXZXZXZXZX",
"ZXZXZXZXZXZXZXZXZXZXZXZXZXZXZXZXZXZXZXZXZX; o o o o o o o o o o o o o o o o o o o o o o o o o o o o o o o o o o @ T ZXZXZXZXZXZXZXZXZXZXZXZXZXZXZXZXZXZXZXZXZXZX",
"ZXZXZXZXZXZXZXZXZXZXZXZXZXZXZXZXZXZXZXZXZXZXZXo o o o o o o o o o o o o o o o o o o o o o o o o o o o o o o o ZXZXZXZXZXZXZXZXZXZXZXZXZXZXZXZXZXZXZXZXZXZXZXZXZX",
"ZXZXZXZXZXZXZXZXZXZXZXZXZXZXZXZXZXZXZXZXZXZXZXZXZXo o o o o o o o o o o o o o o o o o o o o o o o o o o o ZXZXZXZXZXZXZXZXZXZXZXZXZXZXZXZXZXZXZXZXZXZXZXZXZXZXZX",
"ZXZXZXZXZXZXZXZXZXZXZXZXZXZXZXZXZXZXZXZXZXZXZXZXZXZXZXZXo o o o o o o o o o o o o o o o o o o o o o ZXZXZXZXZXZXZXZXZXZXZXZXZXZXZXZXZXZXZXZXZXZXZXZXZXZXZXZXZXZX",
"ZXZXZXZXZXZXZXZXZXZXZXZXZXZXZXZXZXZXZXZXZXZXZXZXZXZXZXZXZXZXZXZXZXZXo o o o o o o o o o ZXZXZXZXZXZXZXZXZXZXZXZXZXZXZXZXZXZXZXZXZXZXZXZXZXZXZXZXZXZXZXZXZXZXZXZX",
"ZXZXZXZXZXZXZXZXZXZXZXZXZXZXZXZXZXZXZXZXZXZXZXZXZXZXZXZXZXZXZXZXZXZXZXZXZXZXZXZXZXZXZXZXZXZXZXZXZXZXZXZXZXZXZXZXZXZXZXZXZXZXZXZXZXZXZXZXZXZXZXZXZXZXZXZXZXZXZXZX",
"ZXZXZXZXZXZXZXZXZXZXZXZXZXZXZXZXZXZXZXZXZXZXZXZXZXZXZXZXZXZXZXZXZXZXZXZXZXZXZXZXZXZXZXZXZXZXZXZXZXZXZXZXZXZXZXZXZXZXZXZXZXZXZXZXZXZXZXZXZXZXZXZXZXZXZXZXZXZXZXZX",
"ZXZXZXZXZXZXZXZXZXZXZXZXZXZXZXZXZXZXZXZXZXZXZXZXZXZXZXZXZXZXZXZXZXZXZXZXZXZXZXZXZXZXZXZXZXZXZXZXZXZXZXZXZXZXZXZXZXZXZXZXZXZXZXZXZXZXZXZXZXZXZXZXZXZXZXZXZXZXZXZX",
"ZXZXZXZXZXZXZXZXZXZXZXZXZXZXZXZXZXZXZXZXZXZXZXZXZXZXZXZXZXZXZXZXZXZXZXZXZXZXZXZXZXZXZXZXZXZXZXZXZXZXZXZXZXZXZXZXZXZXZXZXZXZXZXZXZXZXZXZXZXZXZXZXZXZXZXZXZXZXZXZX",
"ZXZXZXZXZXZXZXZXZXZXZXZXZXZXZXZXZXZXZXZXZXZXZXZXZXZXZXZXZXZXZXZXZXZXZXZXZXZXZXZXZXZXZXZXZXZXZXZXZXZXZXZXZXZXZXZXZXZXZXZXZXZXZXZXZXZXZXZXZXZXZXZXZXZXZXZXZXZXZXZX",
"ZXZXZXZXZXZXZXZXZXZXZXZXZXZXZXZXZXZXZXZXZXZXZXZXZXZXZXZXZXZXZXZXZXZXZXZXZXZXZXZXZXZXZXZXZXZXZXZXZXZXZXZXZXZXZXZXZXZXZXZXZXZXZXZXZXZXZXZXZXZXZXZXZXZXZXZXZXZXZXZX",
"ZXZXZXZXZXZXZXZXZXZXZXZXZXZXZXZXZXZXZXZXZXZXZXZXZXZXZXZXZXZXZXZXZXZXZXZXZXZXZXZXZXZXZXZXZXZXZXZXZXZXZXZXZXZXZXZXZXZXZXZXZXZXZXZXZXZXZXZXZXZXZXZXZXZXZXZXZXZXZXZX",
"ZXZXZXZXZXZXZXZXZXZXZXZXZXZXZXZXZXZXZXZXZXZXZXZXZXZXZXZXZXZXZXZXZXZXZXZXZXZXZXZXZXZXZXZXZXZXZXZXZXZXZXZXZXZXZXZXZXZXZXZXZXZXZXZXZXZXZXZXZXZXZXZXZXZXZXZXZXZXZXZX"
};
