/* XPM */
static char *xpm_[] = {
/* columns rows colors chars-per-pixel */
"80 80 224 2 ",
"   c black",
".  c #010101",
"X  c #020202",
"o  c gray1",
"O  c #040404",
"+  c gray2",
"@  c #060606",
"#  c #070707",
"$  c gray3",
"%  c #090909",
"&  c gray4",
"*  c #0B0B0B",
"=  c #0C0C0C",
"-  c gray5",
";  c #0E0E0E",
":  c gray6",
">  c #101010",
",  c #111111",
"<  c gray7",
"1  c #131313",
"2  c gray8",
"3  c #151515",
"4  c #161616",
"5  c gray9",
"6  c #181818",
"7  c #191919",
"8  c gray10",
"9  c #1B1B1B",
"0  c gray11",
"q  c #1D1D1D",
"w  c #1E1E1E",
"e  c gray12",
"r  c #202020",
"t  c gray13",
"y  c #222222",
"u  c #232323",
"i  c gray14",
"p  c #252525",
"a  c gray15",
"s  c #272727",
"d  c #282828",
"f  c gray16",
"g  c #2A2A2A",
"h  c gray17",
"j  c #2C2C2C",
"k  c #2D2D2D",
"l  c gray18",
"z  c #2F2F2F",
"x  c gray19",
"c  c #313131",
"v  c #323232",
"b  c gray20",
"n  c #343434",
"m  c #353535",
"M  c gray21",
"N  c gray22",
"B  c #393939",
"V  c gray23",
"C  c #3C3C3C",
"Z  c gray24",
"A  c #3E3E3E",
"S  c #3F3F3F",
"D  c gray25",
"F  c #414141",
"G  c gray26",
"H  c #434343",
"J  c #444444",
"K  c gray28",
"L  c #484848",
"P  c #494949",
"I  c gray29",
"U  c #4B4B4B",
"Y  c #4C4C4C",
"T  c gray30",
"R  c gray32",
"E  c #535353",
"W  c gray33",
"Q  c #555555",
"!  c #565656",
"~  c gray34",
"^  c #585858",
"/  c gray35",
"(  c #5B5B5B",
")  c gray36",
"_  c #5D5D5D",
"`  c gray37",
"'  c #5F5F5F",
"]  c #606060",
"[  c gray38",
"{  c #626262",
"}  c gray39",
"|  c #656565",
" . c gray40",
".. c #676767",
"X. c #686868",
"o. c DimGray",
"O. c #6A6A6A",
"+. c gray43",
"@. c #6F6F6F",
"#. c gray44",
"$. c #717171",
"%. c #727272",
"&. c gray45",
"*. c #747474",
"=. c gray46",
"-. c #777777",
";. c gray47",
":. c #797979",
">. c gray48",
",. c #7B7B7B",
"<. c #7C7C7C",
"1. c gray49",
"2. c #7E7E7E",
"3. c gray50",
"4. c #808080",
"5. c #818181",
"6. c gray51",
"7. c #838383",
"8. c #848484",
"9. c gray52",
"0. c #868686",
"q. c gray53",
"w. c #888888",
"e. c #898989",
"r. c gray54",
"t. c #8B8B8B",
"y. c gray55",
"u. c #8D8D8D",
"i. c #8E8E8E",
"p. c gray56",
"a. c #909090",
"s. c gray57",
"d. c #939393",
"f. c gray58",
"g. c #959595",
"h. c #979797",
"j. c #989898",
"k. c gray60",
"l. c #9A9A9A",
"z. c gray61",
"x. c #9D9D9D",
"c. c gray62",
"v. c #9F9F9F",
"b. c #A0A0A0",
"n. c #A2A2A2",
"m. c gray64",
"M. c #A4A4A4",
"N. c #A5A5A5",
"B. c gray65",
"V. c #A7A7A7",
"C. c gray66",
"Z. c #A9A9A9",
"A. c #AAAAAA",
"S. c #ACACAC",
"D. c gray68",
"F. c #AEAEAE",
"G. c #AFAFAF",
"H. c gray69",
"J. c #B1B1B1",
"K. c #B2B2B2",
"L. c gray70",
"P. c #B4B4B4",
"I. c gray71",
"U. c #B6B6B6",
"Y. c gray72",
"T. c #B9B9B9",
"R. c gray73",
"E. c #BBBBBB",
"W. c gray75",
"Q. c #C0C0C0",
"!. c #C1C1C1",
"~. c gray76",
"^. c #C3C3C3",
"/. c #C5C5C5",
"(. c #C8C8C8",
"). c gray79",
"_. c #CACACA",
"`. c #CBCBCB",
"'. c gray80",
"]. c #CECECE",
"[. c gray81",
"{. c #D0D0D0",
"}. c LightGray",
"|. c gray83",
" X c #D5D5D5",
".X c gray84",
"XX c #D7D7D7",
"oX c #D8D8D8",
"OX c #DADADA",
"+X c gray86",
"@X c gainsboro",
"#X c #DDDDDD",
"$X c #DFDFDF",
"%X c gray88",
"&X c #E1E1E1",
"*X c #E2E2E2",
"=X c gray89",
"-X c #E4E4E4",
";X c #E6E6E6",
":X c #E7E7E7",
">X c gray91",
",X c #E9E9E9",
"<X c #EAEAEA",
"1X c gray92",
"2X c #ECECEC",
"3X c #EEEEEE",
"4X c #EFEFEF",
"5X c gray94",
"6X c #F1F1F1",
"7X c gray95",
"8X c #F3F3F3",
"9X c #F4F4F4",
"0X c gray96",
"qX c #F6F6F6",
"wX c gray97",
"eX c #F8F8F8",
"rX c #F9F9F9",
"tX c gray98",
"yX c #FBFBFB",
"uX c gray99",
"iX c #FDFDFD",
"pX c #FEFEFE",
"aX c white",
"sX c green",
/* pixels */
"sXsXsXsXsXsXsXsXsXsXsXsXsXsXsXsXsXsXsXsXsXsXsXsXsXsXsXsXsXsXsXsXsXsXsXsXsXsXsXsXsXsXsXsXsXsXsXsXsXsXsXsXsXsXsXsXsXsXsXsXsXsXsXsXsXsXsXsXsXsXsXsXsXsXsXsXsXsXsXsX",
"sXsXsXsXsXsXsXsXsXsXsXsXsXsXsXsXsXsXsXsXsXsXsXsXsXsXsXsXsXsXsXsXsXsXsXsXsXsXsXsXsXsXsXsXsXsXsXsXsXsXsXsXsXsXsXsXsXsXsXsXsXsXsXsXsXsXsXsXsXsXsXsXsXsXsXsXsXsXsXsX",
"sXsXsXsXsXsXsXsXsXsXsXsXsXsXsXsXsXsXsXsXsXsXsXsXsXsXsXsXsXsXsXsXsXsXsXsXsXsXsXsXsXsXsXsXsXsXsXsXsXsXsXsXsXsXsXsXsXsXsXsXsXsXsXsXsXsXsXsXsXsXsXsXsXsXsXsXsXsXsXsX",
"sXsXsXsXsXsXsXsXsXsXsXsXsXsXsXsXsXsXsXsXsXsXsXsXsXsXsXsXsXsXsXsXsXsXsXsXsXsXsXsXsXsXsXsXsXsXsXsXsXsXsXsXsXsXsXsXsXsXsXsXsXsXsXsXsXsXsXsXsXsXsXsXsXsXsXsXsXsXsXsX",
"sXsXsXsXsXsXsXsXsXsXsXsXsXsXsXsXsXsXsXsXsXsXsXsXsXsXsXsXsXsXsXsXsXsXsXsXsXsXsXsXsXsXsXsXsXsXsXsXsXsXsXsXsXsXsXsXsXsXsXsXsXsXsXsXsXsXsXsXsXsXsXsXsXsXsXsXsXsXsXsX",
"sXsXsXsXsXsXsXsXsXsXsXsXsXsXsXsXsXsXsXsXsXsXsXsXsXsXsXsXsXsXsXsXsXsXsXsXsXsXsXsXsXsXsXsXsXsXsXsXsXsXsXsXsXsXsXsXsXsXsXsXsXsXsXsXsXsXsXsXsXsXsXsXsXsXsXsXsXsXsXsX",
"sXsXsXsXsXsXsXsXsXsXsXsXsXsXsXsXsXsXsXsXsXsXsXsXsXsXsXsXsXsXsXsXsXsXsXsXsXsXsXsXsXsXsXsXsXsXsXsXsXsXsXsXsXsXsXsXsXsXsXsXsXsXsXsXsXsXsXsXsXsXsXsXsXsXsXsXsXsXsXsX",
"sXsXsXsXsXsXsXsXsXsXsXsXsXsXsXsXsXsXsXsXsXsXsXsXsXsXsXsXsXsXsXsXsXsXsXsXsXsXsXsXsXsXsXsXsXsXsXsXsXsXsXsXsXsXsXsXsXsXsXsXsXsXsXsXsXsXsXsXsXsXsXsXsXsXsXsXsXsXsXsX",
"sXsXsXsXsXsXsXsXsXsXsXsXsXsXsXsXsXsXsXsXsXsXsXsXsXsXsXsXsXsXsXsXsXsXsXsXsXsXsXsXsXsXsXsXsXsXsXsXsXsXsXsXsXsXsXsXsXsXsXsXsXsXsXsXsXsXsXsXsXsXsXsXsXsXsXsXsXsXsXsX",
"sXsXsXsXsXsXsXsXsXsXsXsXsXsXsXsXsXsXsXsXsXsXsXsXsXsXsXsXsXsXsXsXsXsXsXsXsXsXsX    sXsXsXsXsXsXsXsXsXsXsXsXsXsXsXsXsXsXsXsXsXsXsXsXsXsXsXsXsXsXsXsXsXsXsXsXsXsXsX",
"sXsXsXsXsXsXsXsXsXsXsXsXsXsXsXsXsXsXsXsXsXsXsXsXsXsXsXsXsXsXsXsXsXsXsXsXsX            sXsXsXsXsXsXsXsXsXsXsXsXsXsXsXsXsXsXsXsXsXsXsXsXsXsXsXsXsXsXsXsXsXsXsXsXsX",
"sXsXsXsXsXsXsXsXsXsXsXsXsXsXsXsXsXsXsXsXsXsXsX        sXsXsXsXsXsXsXsXsX    O 7 q       sXsXsXsXsXsXsXsXsX        sXsXsXsXsXsXsXsXsXsXsXsXsXsXsXsXsXsXsXsXsXsXsX",
"sXsXsXsXsXsXsXsXsXsXsXsXsXsXsXsXsXsXsXsXsXsX            sXsXsXsXsXsXsX       .`.'. .      sXsXsXsXsXsXsX            sXsXsXsXsXsXsXsXsXsXsXsXsXsXsXsXsXsXsXsXsXsX",
"sXsXsXsXsXsXsXsXsXsXsXsXsXsXsXsXsXsXsXsXsX    > B b *     sXsXsXsXsXsX    b OXaXaX@Xk     sXsXsXsXsXsX    * b B >     sXsXsXsXsXsXsXsXsXsXsXsXsXsXsXsXsXsXsXsXsX",
"sXsXsXsXsXsXsXsXsXsXsXsXsXsXsXsXsXsXsXsX    > l.7X-X-.    sXsXsXsXsXsX    G 1XaXaX1XC     sXsXsXsXsXsX  O >.-X4Xl.>     sXsXsXsXsXsXsXsXsXsXsXsXsXsXsXsXsXsXsXsX",
"sXsXsXsXsXsXsXsXsXsXsXsXsXsXsXsXsXsXsXsX    U 7XaXaX@Xi     sXsXsXsXsX    > Z.aXaXZ.>     sXsXsXsXsX    i @XaXaX7XY     sXsXsXsXsXsXsXsXsXsXsXsXsXsXsXsXsXsXsXsX",
"sXsXsXsXsXsXsXsXsXsX  sXsXsXsXsXsXsXsXsX    Y 4XaXaXOXi     sXsXsXsXsXsX    7 ' ' 7     sXsXsXsXsXsX    i OXaXaX4XU     sXsXsXsXsXsXsXsXsX  sXsXsXsXsXsXsXsXsXsX",
"sXsXsXsXsXsXsXsX            sXsXsXsXsXsX    > l.7X1X-.O   sXsXsXsXsXsXsX                sXsXsXsXsXsXsX    -.1X7Xl.>     sXsXsXsXsXsX            sXsXsXsXsXsXsXsX",
"sXsXsXsXsXsXsX    O 5 *       sXsXsXsXsXsX    > n k *     sXsXsXsXsXsXsXsXsX        sXsXsXsXsXsXsXsXsX    * b n :     sXsXsXsXsXsX      * 5       sXsXsXsXsXsXsX",
"sXsXsXsXsXsX    > <.W.c.k     sXsXsXsXsXsXsX            sXsXsXsXsXsXsXsXsXsX        sXsXsXsXsXsXsXsXsXsX            sXsXsXsXsXsXsX    k c.!.<.>     sXsXsXsXsXsX",
"sXsXsXsXsXsX    ' yXaXaXc.*   sXsXsXsXsXsXsXsX        sXsXsXsXsXsXsXsXsXsXsX        sXsXsXsXsXsXsXsXsXsXsX        sXsXsXsXsXsXsXsX  : c.aXaXyX'     sXsXsXsXsXsX",
"sXsXsXsXsXsX    <.aXaXaXW.5     sXsXsXsXsXsXsXsX        sXsXsXsXsXsXsXsXsXsX        sXsXsXsXsXsXsXsXsXsX        sXsXsXsXsXsXsXsX    5 W.aXaXaX<.    sXsXsXsXsXsX",
"sXsXsXsXsXsX    G -XaXwX<.O   sXsXsXsXsXsXsXsXsX        sXsXsXsXsXsXsXsXsXsX        sXsXsXsXsXsXsXsXsXsX        sXsXsXsXsXsXsXsXsX  O <.wXaX*XG     sXsXsXsXsXsX",
"sXsXsXsXsXsX    O G 6.' >     sXsXsXsXsXsXsXsXsX        sXsXsXsXsXsXsXsXsX            sXsXsXsXsXsXsXsXsX        sXsXsXsXsXsXsXsXsX    : ' 6.G O     sXsXsXsXsXsX",
"sXsXsXsXsXsXsX              sXsXsXsXsXsXsXsXsXsX          sXsXsXsXsXsXsXsX    : :     sXsXsXsXsXsXsXsX          sXsXsXsXsXsXsXsXsXsX              sXsXsXsXsXsXsX",
"sXsXsXsXsXsXsXsX            sXsXsXsXsXsXsXsXsXsX          sXsXsXsXsXsXsXsX    C C     sXsXsXsXsXsXsXsX          sXsXsXsXsXsXsXsXsXsX            sXsXsXsXsXsXsXsX",
"sXsXsXsXsXsXsXsXsXsXsX        sXsXsXsXsXsXsXsXsX    q O     sXsXsXsXsXsXsX    -.-.    sXsXsXsXsXsXsX    O q     sXsXsXsXsXsXsXsXsX        sXsXsXsXsXsXsXsXsXsXsX",
"sXsXsXsXsXsXsXsXsXsXsX        sXsXsXsXsXsXsXsXsX    Q n     sXsXsXsXsXsXsX    n.N.    sXsXsXsXsXsXsX    b Q     sXsXsXsXsXsXsXsXsX        sXsXsXsXsXsXsXsXsXsXsX",
"sXsXsXsXsXsXsXsXsXsXsX          sXsXsXsXsXsXsXsX    &.>.    sXsXsXsXsXsX    7 /./.5     sXsXsXsXsXsX    >.&.    sXsXsXsXsXsXsXsX          sXsXsXsXsXsXsXsXsXsXsX",
"sXsXsXsXsXsXsXsXsXsXsX            sXsXsXsXsXsXsX    >.!.7     sXsXsXsXsX    b -X*Xb     sXsXsXsXsX    7 !.>.    sXsXsXsXsXsXsX            sXsXsXsXsXsXsXsXsXsXsX",
"sXsXsXsXsXsXsXsXsXsXsX    O :     sXsXsXsXsXsXsX    <.wXY     sXsXsXsXsX    U yXyXY     sXsXsXsXsX    Y wX<.    sXsXsXsXsXsXsX    :       sXsXsXsXsXsXsXsXsXsXsX",
"sXsXsXsXsXsXsXsXsXsXsXsX    E q     sXsXsXsXsXsX    8.aXc.    sXsXsXsXsX    >.aXaX>.    sXsXsXsXsX    c.aX6.    sXsXsXsXsXsX    q Q     sXsXsXsXsXsXsXsXsXsXsXsX",
"sXsXsXsXsXsXsXsXsXsXsXsX     .>.O     sXsXsXsXsX    8.aXOXf     sXsXsXsX  O Z.aXaXN.O   sXsXsXsX    f OXaX8.    sXsXsXsXsX    O >. .    sXsXsXsXsXsXsXsXsXsXsXsX",
"sXsXsXsXsXsXsXsXsXsXsXsX    G XXJ     sXsXsXsXsX    u.aXyXO.    sXsXsX    > '.aXaX'.5     sXsXsX    O.yXaXw.    sXsXsXsXsX    J XXG     sXsXsXsXsXsXsXsXsXsXsXsX",
"sXsXsXsXsXsXsXsXsXsXsXsX    q *XY.7     sXsXsXsX    a.aXaXP.>     sXsX    b -XaXaX*Xn     sXsX    : P.aXaXa.    sXsXsXsX    5 Y.*X7     sXsXsXsXsXsXsXsXsXsXsXsX",
"sXsXsXsXsXsXsXsXsXsXsXsX    > Y.aX>.O     sXsXsX    a.aXaX4XC     sXsX    ( wXaXaXwX(     sXsX    B 4XaXaXh.    sXsXsX      >.yXY.:     sXsXsXsXsXsXsXsXsXsXsXsX",
"sXsXsXsXsXsXsXsXsXsXsXsXsX  O u.aX*XB     sXsXsX    l.aXaXaXw.    sXsX    6.aXaXaXaX6.    sXsX    w.aXaXaXl.    sXsXsX    B *XaXu.O   sXsXsXsXsXsXsXsXsXsXsXsXsX",
"sXsXsXsXsXsXsXsXsXsXsXsXsX     .aXaXK.>     sXsX    c.aXaXaX'.q         : Z.aXaXaXaXZ.:         r '.aXaXaXc.    sXsX    5 G.aXaX .    sXsXsXsXsXsXsXsXsXsXsXsXsX",
"sXsXsXsXsXsXsXsXsXsXsXsXsX    J 4XaXyX&.      sX    N.aXaXaXyXQ         r '.aXaXaXaX{.q         Q yXaXaXaXn.    sX      +.yXaX4XJ     sXsXsXsXsXsXsXsXsXsXsXsXsX",
"sXsXsXsXsXsXsXsXsXsXsXsXsX    i {.aXaXOXn           Z.aXaXaXaXN.*       n 4XaXaXaXaX7Xn       O N.aXaXaXaXN.          n @XaXaX{.i     sXsXsXsXsXsXsXsXsXsXsXsXsX",
"sXsXsXsXsXsXsXsXsXsXsXsXsXsX  * W.aXaXaXZ.:         G.aXaXaXaX*Xk       ' yXaXaXaXaXyX'       b @XaXaXaXaXG.        : Z.aXaXaXY.*   sXsXsXsXsXsXsXsXsXsXsXsXsXsX",
"sXsXsXsXsXsXsXsXsXsXsXsXsXsX    a.aXaXaXwXO.        K.aXaXaXaXaX>.      u.aXaXaXaXaXaXu.      >.aXaXaXaXaXK.        O.wXaXaXaXh.    sXsXsXsXsXsXsXsXsXsXsXsXsXsX",
"sXsXsXsXsXsXsXsXsXsXsXsXsXsX    O.yXaXaXaXOXb       K.aXwXyXwXwXK.>     w.!.Y.P.K.K.P.6.    > c.-X7XwXwXyXK.      b OXaXaXaXyX .    sXsXsXsXsXsXsXsXsXsXsXsXsXsX",
"sXsXsXsXsXsXsXsXsXsXsXsXsXsX    C wXaXyX*X`.O.O     U E G n b k i *     > 7 > > : : 5 >     O q f f k n G n     O  .!.{.-XaXwXC     sXsXsXsXsXsXsXsXsXsXsXsXsXsX",
"sXsXsXsXsXsXsXsXsXsXsXsXsXsX    5 +.O.Q b 7 *                                                                       : q C ' { >     sXsXsXsXsXsXsXsXsXsXsXsXsXsX",
"sXsXsXsXsXsXsXsXsXsXsXsXsXsX                        * 7 i b B G Y Q ( ' {  .O.+.+.O. .{ ' ( Q U G B b i 7 *                         sXsXsXsXsXsXsXsXsXsXsXsXsXsX",
"sXsXsXsXsXsXsXsXsXsXsXsXsXsXsX    O 5 q k U O.<.l.G.!.'.XX@X-X1XwXyXyXaXaXaXaXaXaXaXaXaXaXaXwX7X1X*X@XXX'.!.G.h.6.O.U k q 5 *     sXsXsXsXsXsXsXsXsXsXsXsXsXsXsX",
"sXsXsXsXsXsXsXsXsXsXsXsXsXsXsX    C P.XX4XyXaXaXaXaXaXaXaXaXaXaXaXaXaXaXaXaXaXaXaXaXaXaXaXaXaXaXaXaXaXaXaXaXaXaXaXyXyX4XXXP.C     sXsXsXsXsXsXsXsXsXsXsXsXsXsXsX",
"sXsXsXsXsXsXsXsXsXsXsXsXsXsXsX    7 K.aXaXaXaXaXaXaXaXaXaXaXaXaXaXaXaXaXaXaXaXaXaXaXaXaXaXaXaXaXaXaXaXaXaXaXaXaXaXaXaXaXaXK.q     sXsXsXsXsXsXsXsXsXsXsXsXsXsXsX",
"sXsXsXsXsXsXsXsXsXsXsXsXsXsXsXsX    i P.aXaXaXaXaXaXaXaXaXaXaXaXaXaXaXaXaXaXaXaXaXaXaXaXaXaXaXaXaXaXaXaXaXaXaXaXaXaXaXaXP.r     sXsXsXsXsXsXsXsXsXsXsXsXsXsXsXsX",
"sXsXsXsXsXsXsXsXsXsXsXsXsXsXsXsX      i W.aXaXaXaXyX4X*XXX'./.!.Y.P.G.Z.Z.Z.Z.N.N.N.Z.Z.G.G.P.Y.!.`.'.XX*X4XyXaXaXaXaXW.i       sXsXsXsXsXsXsXsXsXsXsXsXsXsXsXsX",
"sXsXsXsXsXsXsXsXsXsXsXsXsXsXsXsXsX      C n.u.&.Q U B k f r q 5 > : : O * O O     O * O O * : > 5 q r f b B J ( +.u.n.C       sXsXsXsXsXsXsXsXsXsXsXsXsXsXsXsXsX",
"sXsXsXsXsXsXsXsXsXsXsXsXsXsXsXsXsXsX      O                           O   O O O O   O O                             O       sXsXsXsXsXsXsXsXsXsXsXsXsXsXsXsXsXsX",
"sXsXsXsXsXsXsXsXsXsXsXsXsXsXsXsXsXsXsX      * q f b C J (  .+.>.8.u.a.l.l.l.n.n.N.n.l.l.l.a.u.8.>.+.{ ( U C b f 7 *       sXsXsXsXsXsXsXsXsXsXsXsXsXsXsXsXsXsXsX",
"sXsXsXsXsXsXsXsXsXsXsXsXsXsXsXsXsXsXsXsX    i K.XX-X7XaXaXaXaXaXaXaXaXaXaXaXaXaXaXaXaXaXaXaXaXaXaXaXaXaXyX7X-XXXK.i     sXsXsXsXsXsXsXsXsXsXsXsXsXsXsXsXsXsXsXsX",
"sXsXsXsXsXsXsXsXsXsXsXsXsXsXsXsXsXsXsXsX    > `.aXaXaXaXaXaXaXaXaXaXaXaXaXaXaXaXaXaXaXaXaXaXaXaXaXaXaXaXaXaXaXaX'.>     sXsXsXsXsXsXsXsXsXsXsXsXsXsXsXsXsXsXsXsX",
"sXsXsXsXsXsXsXsXsXsXsXsXsXsXsXsXsXsXsXsXsX  * W.aXaXaXaXyX7X4X1X*X*X@XOXXXXXXX{.{.XXXXOXXXOX@X-X-X4X7XyXaXaXaXaX!.O   sXsXsXsXsXsXsXsXsXsXsXsXsXsXsXsXsXsXsXsXsX",
"sXsXsXsXsXsXsXsXsXsXsXsXsXsXsXsXsXsXsXsX    : N.P.l.8.>. .Q J C b f r 7 5 > > > > > > 7 7 r f n C J Q O.-.w.l.P.N.:     sXsXsXsXsXsXsXsXsXsXsXsXsXsXsXsXsXsXsXsX",
"sXsXsXsXsXsXsXsXsXsXsXsXsXsXsXsXsXsXsXsX    O 5 > O                                                         O > 5 O     sXsXsXsXsXsXsXsXsXsXsXsXsXsXsXsXsXsXsXsX",
"sXsXsXsXsXsXsXsXsXsXsXsXsXsXsXsXsXsXsX            * > > 7 r n C U Q {  .O.+.&.-.-.+.&.O.O.{ Q U G n r 7 > : *             sXsXsXsXsXsXsXsXsXsXsXsXsXsXsXsXsXsXsX",
"sXsXsXsXsXsXsXsXsXsXsXsXsXsXsXsXsXsXsX    5 Y  .8.n.P.`.OX1X1X4X7X7XwXwXyXyXyXyXyXyXyXwXwXwX7X7X7X1X1XOX`.P.n.6. .U 5     sXsXsXsXsXsXsXsXsXsXsXsXsXsXsXsXsXsXsX",
"sXsXsXsXsXsXsXsXsXsXsXsXsXsXsXsXsXsX    r G.wXaXaXaXaXaXaXaXaXaXaXaXaXaXaXaXaXaXaXaXaXaXaXaXaXaXaXaXaXaXaXaXaXaXaX7XG.r     sXsXsXsXsXsXsXsXsXsXsXsXsXsXsXsXsXsX",
"sXsXsXsXsXsXsXsXsXsXsXsXsXsXsXsXsXsX  O 8.aXaXaXaXaXaXaXaXaXaXaXaXaXaXaXaXaXaXaXaXaXaXaXaXaXaXaXaXaXaXaXaXaXaXaXaXaXaX8.O   sXsXsXsXsXsXsXsXsXsXsXsXsXsXsXsXsXsX",
"sXsXsXsXsXsXsXsXsXsXsXsXsXsXsXsXsX    5 '.aXaXaXaXaXaXaXaXaXaXaXaXaXaXaXaXaXaXaXaXaXaXaXaXaXaXaXaXaXaXaXaXaXaXaXaXaXaX'.5     sXsXsXsXsXsXsXsXsXsXsXsXsXsXsXsXsX",
"sXsXsXsXsXsXsXsXsXsXsXsXsXsXsXsXsX    G 4XaXaXaXaXaXaXaXaXaXaXaXaXaXaXaXaXaXaXaXaXaXaXaXaXaXaXaXaXaXaXaXaXaXaXaXaXaXaX4XG     sXsXsXsXsXsXsXsXsXsXsXsXsXsXsXsXsX",
"sXsXsXsXsXsXsXsXsXsXsXsXsXsXsXsX    > K.aXaXaXaXaXaXaXaXaXaXaXaXaXaXaXaXaXaXaXaXaXaXaXaXaXaXaXaXaXaXaXaXaXaXaXaXaXaXaXaXK.>     sXsXsXsXsXsXsXsXsXsXsXsXsXsXsXsX",
"sXsXsXsXsXsXsXsXsXsXsXsXsXsXsXsX    : l.4XwXaXaXaXaXaXaXaXaXaXaXaXaXaXaXaXaXaXaXaXaXaXaXaXaXaXaXaXaXaXaXaXaXaXaXaXaXwX4Xl.:     sXsXsXsXsXsXsXsXsXsXsXsXsXsXsXsX",
"sXsXsXsXsXsXsXsXsXsXsXsXsXsXsXsXsX    5 U { >.h.N.Y.`.XX-X7XwXwXwXyXyXyXyXyXaXyXyXaXyXyXyXyXyXyXwXwX7X-XXX`.P.Z.a.<.{ U 5     sXsXsXsXsXsXsXsXsXsXsXsXsXsXsXsXsX",
"sXsXsXsXsXsXsXsXsXsXsXsXsXsXsXsXsX              * 5 7 r f k B G Y ( '  .O.+.+.&.&.+.+. . .{ Q Y G B k f r 7 5 *             sXsXsXsXsXsXsXsXsXsXsXsXsXsXsXsXsXsX",
"sXsXsXsXsXsXsXsXsXsXsXsXsXsXsXsXsXsXsX                                                                                    sXsXsXsXsXsXsXsXsXsXsXsXsXsXsXsXsXsXsX",
"sXsXsXsXsXsXsXsXsXsXsXsXsXsXsXsXsXsXsXsXsXsXsXsXsXsX                                                        sXsXsXsXsXsXsXsXsXsXsXsXsXsXsXsXsXsXsXsXsXsXsXsXsXsX",
"sXsXsXsXsXsXsXsXsXsXsXsXsXsXsXsXsXsXsXsXsXsXsXsXsXsXsXsXsXsXsXsXsXsXsXsXsXsXsXsXsXsXsXsXsXsXsXsXsXsXsXsXsXsXsXsXsXsXsXsXsXsXsXsXsXsXsXsXsXsXsXsXsXsXsXsXsXsXsXsX",
"sXsXsXsXsXsXsXsXsXsXsXsXsXsXsXsXsXsXsXsXsXsXsXsXsXsXsXsXsXsXsXsXsXsXsXsXsXsXsXsXsXsXsXsXsXsXsXsXsXsXsXsXsXsXsXsXsXsXsXsXsXsXsXsXsXsXsXsXsXsXsXsXsXsXsXsXsXsXsXsX",
"sXsXsXsXsXsXsXsXsXsXsXsXsXsXsXsXsXsXsXsXsXsXsXsXsXsXsXsXsXsXsXsXsXsXsXsXsXsXsXsXsXsXsXsXsXsXsXsXsXsXsXsXsXsXsXsXsXsXsXsXsXsXsXsXsXsXsXsXsXsXsXsXsXsXsXsXsXsXsXsX",
"sXsXsXsXsXsXsXsXsXsXsXsXsXsXsXsXsXsXsXsXsXsXsXsXsXsXsXsXsXsXsXsXsXsXsXsXsXsXsXsXsXsXsXsXsXsXsXsXsXsXsXsXsXsXsXsXsXsXsXsXsXsXsXsXsXsXsXsXsXsXsXsXsXsXsXsXsXsXsXsX",
"sXsXsXsXsXsXsXsXsXsXsXsXsXsXsXsXsXsXsXsXsXsXsXsXsXsXsXsXsXsXsXsXsXsXsXsXsXsXsXsXsXsXsXsXsXsXsXsXsXsXsXsXsXsXsXsXsXsXsXsXsXsXsXsXsXsXsXsXsXsXsXsXsXsXsXsXsXsXsXsX",
"sXsXsXsXsXsXsXsXsXsXsXsXsXsXsXsXsXsXsXsXsXsXsXsXsXsXsXsXsXsXsXsXsXsXsXsXsXsXsXsXsXsXsXsXsXsXsXsXsXsXsXsXsXsXsXsXsXsXsXsXsXsXsXsXsXsXsXsXsXsXsXsXsXsXsXsXsXsXsXsX",
"sXsXsXsXsXsXsXsXsXsXsXsXsXsXsXsXsXsXsXsXsXsXsXsXsXsXsXsXsXsXsXsXsXsXsXsXsXsXsXsXsXsXsXsXsXsXsXsXsXsXsXsXsXsXsXsXsXsXsXsXsXsXsXsXsXsXsXsXsXsXsXsXsXsXsXsXsXsXsXsX",
"sXsXsXsXsXsXsXsXsXsXsXsXsXsXsXsXsXsXsXsXsXsXsXsXsXsXsXsXsXsXsXsXsXsXsXsXsXsXsXsXsXsXsXsXsXsXsXsXsXsXsXsXsXsXsXsXsXsXsXsXsXsXsXsXsXsXsXsXsXsXsXsXsXsXsXsXsXsXsXsX",
"sXsXsXsXsXsXsXsXsXsXsXsXsXsXsXsXsXsXsXsXsXsXsXsXsXsXsXsXsXsXsXsXsXsXsXsXsXsXsXsXsXsXsXsXsXsXsXsXsXsXsXsXsXsXsXsXsXsXsXsXsXsXsXsXsXsXsXsXsXsXsXsXsXsXsXsXsXsXsXsX"
};
