/* XPM */
static char *xpm_[] = {
/* columns rows colors chars-per-pixel */
"80 80 51 1 ",
"  c black",
". c #010101",
"X c gray1",
"o c #060606",
"O c gray4",
"+ c #0B0B0B",
"@ c #101010",
"# c #111111",
"$ c #151515",
"% c #1E1E1E",
"& c gray12",
"* c #202020",
"= c gray14",
"- c #252525",
"; c #2C2C2C",
": c #2D2D2D",
"> c #353535",
", c #373737",
"< c #3C3C3C",
"1 c gray24",
"2 c #3E3E3E",
"3 c #414141",
"4 c gray26",
"5 c #444444",
"6 c gray29",
"7 c #515151",
"8 c #747474",
"9 c gray47",
"0 c #797979",
"q c gray49",
"w c #838383",
"e c #848484",
"r c #868686",
"t c gray53",
"y c #9B9B9B",
"u c #A4A4A4",
"i c #C8C8C8",
"p c #CACACA",
"a c gray80",
"s c #D2D2D2",
"d c LightGray",
"f c #D7D7D7",
"g c #D8D8D8",
"h c gray91",
"j c #E9E9E9",
"k c gray92",
"l c #ECECEC",
"z c #EFEFEF",
"x c #F3F3F3",
"c c #F4F4F4",
"v c white",
/* pixels */
"vvvvvvvvvvvvvvvvvvvvvvvvvvvvvvvvvvvvvvvvvvvvvvvvvvvvvvvvvvvvvvvvvvvvvvvvvvvvvvvv",
"vvvvvvvvvvvvvvvvvvvvvvvvvvvvvvvvvvvvvvvvvvvvvvvvvvvvvvvvvvvvvvvvvvvvvvvvvvvvvvvv",
"vvvvvvvvvvvvvvvvvvvvvvvvvvvvvvvvvvvvvvvvvvvvvvvvvvvvvvvvvvvvvvvvvvvvvvvvvvvvvvvv",
"vvvvvvvvvvvvvvvvvvvvvvvvvvvvvvvvvvvvvvvvvvvvvvvvvvvvvvvvvvvvvvvvvvvvvvvvvvvvvvvv",
"vvvvvvvvvvvvvvvvvvvvvvvvvvvvvvvvvvvvvvvvvvvvvvvvvvvvvvvvvvvvvvvvvvvvvvvvvvvvvvvv",
"vvvvvvvvvvvvvvvvvvvvvvvvvvvvvvvvvvvvvvvvvvvvvvvvvvvvvvvvvvvvvvvvvvvvvvvvvvvvvvvv",
"vvvvvvvvvvvvvvvvvvvvvvvvvvvvvvvvvvvvvvvvvvvvvvvvvvvvvvvvvvvvvvvvvvvvvvvvvvvvvvvv",
"vvvvvvvvvvvvvvvvvvvvvvvvvvvvvvvvvvvvvvvvvvvvvvvvvvvvvvvvvvvvvvvvvvvvvvvvvvvvvvvv",
"vvvvvvvvvvvvvvvvvvvvvvvvvvvvvvvvvvvvvvvvvvvvvvvvvvvvvvvvvvvvvvvvvvvvvvvvvvvvvvvv",
"vvvvvvvvvvvvvvvvvvvvvvvvvvvvvvvvvvvvvvvvvvvvvvvvvvvvvvvvvvvvvvvvvvvvvvvvvvvvvvvv",
"vvvvvvvvvvvvvvvvvvvvvvvvvvvvvvvvvvvvvvvvvvvvvvvvvvvvvvvvvvvvvvvvvvvvvvvvvvvvvvvv",
"vvvvvvvvvvvvvvvvvvvvvvvvvvvvvvvvvvvvvvvvvvvvvvvvvvvvvvvvvvvvvvvvvvvvvvvvvvvvvvvv",
"vvvvvvvvvvvvvvvvvvvvvvvvvvvvvvvvvvvvvvvvvvvvvvvvvvvvvvvvvvvvvvvvvvvvvvvvvvvvvvvv",
"vvvvvvvvvvvvvvvvvvvvvvvvvvvvvvvvvvvvvvvvvvvvvvvvvvvvvvvvvvvvvvvvvvvvvvvvvvvvvvvv",
"vvvvvvvvvvvvvvvvvvvvvvvvvvvvvvvvvvvvvvvvvvvvvvvvvvvvvvvvvvvvvvvvvvvvvvvvvvvvvvvv",
"vvvvvvvvvvvvvvvvvv          vvvvvv            vvvvvv          vvvvvvvvvvvvvvvvvv",
"vvvvvvvvvvvvvvvvvv          vvvvvv            vvvvvv          vvvvvvvvvvvvvvvvvv",
"vvvvvvvvvvvvvvvvvv          vvvvvv            vvvvvv          vvvvvvvvvvvvvvvvvv",
"vvvvvvvvvvvvvvvvvv                                            vvvvvvvvvvvvvvvvvv",
"vvvvvvvvvvvvvvvvvv                                            vvvvvvvvvvvvvvvvvv",
"vvvvvvvvvvvvvvvvvv                                            vvvvvvvvvvvvvvvvvv",
"vvvvvvvvvvvvvvvvvv                                            vvvvvvvvvvvvvvvvvv",
"vvvvvvvvvvvvvvvvvv                                            vvvvvvvvvvvvvvvvvv",
"vvvvvvvvvvvvvvvvvv#><<<<<<<<<<<<<<<<<<<<<<<<<<<<<<<<<<<<<<<<>#vvvvvvvvvvvvvvvvvv",
"vvvvvvvvvvvvvvvvvv0jccccccccxcccccxcccccxcccccxccccxcccxccxcj0vvvvvvvvvvvvvvvvvv",
"vvvvvvvvvvvvvvvvvvqissssssssssssssssssssssssssssssssssssssssiwvvvvvvvvvvvvvvvvvv",
"vvvvvvvvvvvvvvvvvvv:----=--=-==---=-=--=-==---=--=-=-=----=-:vvvvvvvvvvvvvvvvvvv",
"vvvvvvvvvvvvvvvvvvvv                                        vvvvvvvvvvvvvvvvvvvv",
"vvvvvvvvvvvvvvvvvvvvv                                      vvvvvvvvvvvvvvvvvvvvv",
"vvvvvvvvvvvvvvvvvvvvvv  7tttttttttttttttttttttttttttttt7  vvvvvvvvvvvvvvvvvvvvvv",
"vvvvvvvvvvvvvvvvvvvvvvv+waiiiiaiiiiiiiiiiaiiiiiiiiiiiiit+vvvvvvvvvvvvvvvvvvvvvvv",
"vvvvvvvvvvvvvvvvvvvvvvvv#%=%%%=%%=%%=%%=%%=%%=%%=%%=%%=#vvvvvvvvvvvvvvvvvvvvvvvv",
"vvvvvvvvvvvvvvvvvvvvvvvv                                vvvvvvvvvvvvvvvvvvvvvvvv",
"vvvvvvvvvvvvvvvvvvvvvvvv                                vvvvvvvvvvvvvvvvvvvvvvvv",
"vvvvvvvvvvvvvvvvvvvvvvvv                                vvvvvvvvvvvvvvvvvvvvvvvv",
"vvvvvvvvvvvvvvvvvvvvvvvv                                vvvvvvvvvvvvvvvvvvvvvvvv",
"vvvvvvvvvvvvvvvvvvvvvvvv                                vvvvvvvvvvvvvvvvvvvvvvvv",
"vvvvvvvvvvvvvvvvvvvvvvvv                                vvvvvvvvvvvvvvvvvvvvvvvv",
"vvvvvvvvvvvvvvvvvvvvvvvv                                vvvvvvvvvvvvvvvvvvvvvvvv",
"vvvvvvvvvvvvvvvvvvvvvvvv                                vvvvvvvvvvvvvvvvvvvvvvvv",
"vvvvvvvvvvvvvvvvvvvvvvvv                                vvvvvvvvvvvvvvvvvvvvvvvv",
"vvvvvvvvvvvvvvvvvvvvvvvv                                vvvvvvvvvvvvvvvvvvvvvvvv",
"vvvvvvvvvvvvvvvvvvvvvvvv                                vvvvvvvvvvvvvvvvvvvvvvvv",
"vvvvvvvvvvvvvvvvvvvvvvvv                                vvvvvvvvvvvvvvvvvvvvvvvv",
"vvvvvvvvvvvvvvvvvvvvvvvv                                vvvvvvvvvvvvvvvvvvvvvvvv",
"vvvvvvvvvvvvvvvvvvvvvvvv                                vvvvvvvvvvvvvvvvvvvvvvvv",
"vvvvvvvvvvvvvvvvvvvvvvvv                                vvvvvvvvvvvvvvvvvvvvvvvv",
"vvvvvvvvvvvvvvvvvvvvvvvv                                vvvvvvvvvvvvvvvvvvvvvvvv",
"vvvvvvvvvvvvvvvvvvvvvvvv                                vvvvvvvvvvvvvvvvvvvvvvvv",
"vvvvvvvvvvvvvvvvvvvvvvvv                                vvvvvvvvvvvvvvvvvvvvvvvv",
"vvvvvvvvvvvvvvvvvvvvvvvv                                vvvvvvvvvvvvvvvvvvvvvvvv",
"vvvvvvvvvvvvvvvvvvvvvvvv:666666666666666666666666666666:vvvvvvvvvvvvvvvvvvvvvvvv",
"vvvvvvvvvvvvvvvvvvvvvvv+yxxzzzxzzxzzxzzxzxzzxzzxzzxzzzcy+vvvvvvvvvvvvvvvvvvvvvvv",
"vvvvvvvvvvvvvvvvvvvvvv  =>,>>>,>>,>>,>>>>,>>,>>>,>,>>>>%  vvvvvvvvvvvvvvvvvvvvvv",
"vvvvvvvvvvvvvvvvvvvvvv                                    vvvvvvvvvvvvvvvvvvvvvv",
"vvvvvvvvvvvvvvvvvvvvv5444<444444444444444444444444444444445vvvvvvvvvvvvvvvvvvvvv",
"vvvvvvvvvvvvvvvvvvvvujzjzjjjzjjjjjjjjjzjjjzjjzjjzjjjzjjjjzhuvvvvvvvvvvvvvvvvvvvv",
"vvvvvvvvvvvvvvvvvvvv0sggffgfffgfggffgfffffffffffffgfffgffff8vvvvvvvvvvvvvvvvvvvv",
"vvvvvvvvvvvvvvvvvvvv+%=%%==%%==%==%=%==%=%%=%=%=%==%%==%%=%+vvvvvvvvvvvvvvvvvvvv",
"vvvvvvvvvvvvvvvvvvvv                                        vvvvvvvvvvvvvvvvvvvv",
"vvvvvvvvvvvvvvvvvvvv                                        vvvvvvvvvvvvvvvvvvvv",
"vvvvvvvvvvvvvvvvvvvv+%%==%%=%==%=%=%=%%=%==%=%=%=%%=%==%%=%+vvvvvvvvvvvvvvvvvvvv",
"vvvvvvvvvvvvvvvvvvvv8sfffffffffgfffffffffffgfffffffffffgggs8vvvvvvvvvvvvvvvvvvvv",
"vvvvvvvvvvvvvvv    owzzjjzjjjzjjjjzjjzjjjzjjjjzjjzjjjzjjjzjto    vvvvvvvvvvvvvvv",
"vvvvvvvvvvvvvvv     $<444444444444444444444444444444444444<$     vvvvvvvvvvvvvvv",
"vvvvvvvvvvvvvvv                                                  vvvvvvvvvvvvvvv",
"vvvvvvvvvvvvvvv                                                  vvvvvvvvvvvvvvv",
"vvvvvvvvvvvvvvv                                                  vvvvvvvvvvvvvvv",
"vvvvvvvvvvvvvvv                                                  vvvvvvvvvvvvvvv",
"vvvvvvvvvvvvvvv                                                  vvvvvvvvvvvvvvv",
"vvvvvvvvvvvvvvvv                                                vvvvvvvvvvvvvvvv",
"vvvvvvvvvvvvvvvvvvvvvvvvvvvvvvvvvvvvvvvvvvvvvvvvvvvvvvvvvvvvvvvvvvvvvvvvvvvvvvvv",
"vvvvvvvvvvvvvvvvvvvvvvvvvvvvvvvvvvvvvvvvvvvvvvvvvvvvvvvvvvvvvvvvvvvvvvvvvvvvvvvv",
"vvvvvvvvvvvvvvvvvvvvvvvvvvvvvvvvvvvvvvvvvvvvvvvvvvvvvvvvvvvvvvvvvvvvvvvvvvvvvvvv",
"vvvvvvvvvvvvvvvvvvvvvvvvvvvvvvvvvvvvvvvvvvvvvvvvvvvvvvvvvvvvvvvvvvvvvvvvvvvvvvvv",
"vvvvvvvvvvvvvvvvvvvvvvvvvvvvvvvvvvvvvvvvvvvvvvvvvvvvvvvvvvvvvvvvvvvvvvvvvvvvvvvv",
"vvvvvvvvvvvvvvvvvvvvvvvvvvvvvvvvvvvvvvvvvvvvvvvvvvvvvvvvvvvvvvvvvvvvvvvvvvvvvvvv",
"vvvvvvvvvvvvvvvvvvvvvvvvvvvvvvvvvvvvvvvvvvvvvvvvvvvvvvvvvvvvvvvvvvvvvvvvvvvvvvvv",
"vvvvvvvvvvvvvvvvvvvvvvvvvvvvvvvvvvvvvvvvvvvvvvvvvvvvvvvvvvvvvvvvvvvvvvvvvvvvvvvv",
"vvvvvvvvvvvvvvvvvvvvvvvvvvvvvvvvvvvvvvvvvvvvvvvvvvvvvvvvvvvvvvvvvvvvvvvvvvvvvvvv"
};
