/* XPM */
static char *xpm_[] = {
/* columns rows colors chars-per-pixel */
"80 80 254 2 ",
"   c black",
".  c #010101",
"X  c #020202",
"o  c gray1",
"O  c #040404",
"+  c gray2",
"@  c #060606",
"#  c #070707",
"$  c gray3",
"%  c #090909",
"&  c gray4",
"*  c #0B0B0B",
"=  c #0C0C0C",
"-  c gray5",
";  c #0E0E0E",
":  c gray6",
">  c #101010",
",  c #111111",
"<  c gray7",
"1  c #131313",
"2  c gray8",
"3  c #151515",
"4  c #161616",
"5  c gray9",
"6  c #181818",
"7  c #191919",
"8  c gray10",
"9  c #1B1B1B",
"0  c gray11",
"q  c #1D1D1D",
"w  c #1E1E1E",
"e  c gray12",
"r  c #202020",
"t  c gray13",
"y  c #222222",
"u  c #232323",
"i  c gray14",
"p  c #252525",
"a  c gray15",
"s  c #272727",
"d  c #282828",
"f  c gray16",
"g  c #2A2A2A",
"h  c gray17",
"j  c #2C2C2C",
"k  c #2D2D2D",
"l  c gray18",
"z  c #2F2F2F",
"x  c gray19",
"c  c #313131",
"v  c #323232",
"b  c gray20",
"n  c #343434",
"m  c #353535",
"M  c gray21",
"N  c #373737",
"B  c gray22",
"V  c #393939",
"C  c #3A3A3A",
"Z  c gray23",
"A  c #3C3C3C",
"S  c gray24",
"D  c #3E3E3E",
"F  c #3F3F3F",
"G  c gray25",
"H  c #414141",
"J  c gray26",
"K  c #434343",
"L  c #444444",
"P  c gray27",
"I  c #464646",
"U  c gray28",
"Y  c #484848",
"T  c #494949",
"R  c gray29",
"E  c #4B4B4B",
"W  c #4C4C4C",
"Q  c gray30",
"!  c #4E4E4E",
"~  c gray31",
"^  c #505050",
"/  c #515151",
"(  c gray32",
")  c #535353",
"_  c gray33",
"`  c #555555",
"'  c #565656",
"]  c gray34",
"[  c #585858",
"{  c gray35",
"}  c #5A5A5A",
"|  c #5B5B5B",
" . c gray36",
".. c #5D5D5D",
"X. c gray37",
"o. c #5F5F5F",
"O. c #606060",
"+. c gray38",
"@. c #626262",
"#. c gray39",
"$. c #646464",
"%. c #656565",
"&. c gray40",
"*. c #676767",
"=. c #686868",
"-. c DimGray",
";. c #6A6A6A",
":. c gray42",
">. c #6C6C6C",
",. c #6D6D6D",
"<. c gray43",
"1. c #6F6F6F",
"2. c gray44",
"3. c #717171",
"4. c #727272",
"5. c gray45",
"6. c #747474",
"7. c gray46",
"8. c #767676",
"9. c #777777",
"0. c gray47",
"q. c #797979",
"w. c gray48",
"e. c #7B7B7B",
"r. c #7C7C7C",
"t. c gray49",
"y. c #7E7E7E",
"u. c gray50",
"i. c #808080",
"p. c #818181",
"a. c gray51",
"s. c #838383",
"d. c #848484",
"f. c gray52",
"g. c #868686",
"h. c gray53",
"j. c #888888",
"k. c #898989",
"l. c gray54",
"z. c #8B8B8B",
"x. c gray55",
"c. c #8D8D8D",
"v. c #8E8E8E",
"b. c gray56",
"n. c #909090",
"m. c gray57",
"M. c #929292",
"N. c #939393",
"B. c gray58",
"V. c #959595",
"C. c gray59",
"Z. c #979797",
"A. c #989898",
"S. c gray60",
"D. c #9A9A9A",
"F. c #9B9B9B",
"G. c gray61",
"H. c #9D9D9D",
"J. c gray62",
"K. c #9F9F9F",
"L. c #A0A0A0",
"P. c gray63",
"I. c #A2A2A2",
"U. c gray64",
"Y. c #A4A4A4",
"T. c #A5A5A5",
"R. c gray65",
"E. c #A7A7A7",
"W. c gray66",
"Q. c #A9A9A9",
"!. c #AAAAAA",
"~. c gray67",
"^. c #ACACAC",
"/. c gray68",
"(. c #AEAEAE",
"). c #AFAFAF",
"_. c gray69",
"`. c #B1B1B1",
"'. c #B2B2B2",
"]. c gray70",
"[. c #B4B4B4",
"{. c gray71",
"}. c #B6B6B6",
"|. c #B7B7B7",
" X c gray72",
".X c #B9B9B9",
"XX c gray73",
"oX c #BBBBBB",
"OX c #BCBCBC",
"+X c gray74",
"@X c gray",
"#X c gray75",
"$X c #C0C0C0",
"%X c #C1C1C1",
"&X c gray76",
"*X c #C3C3C3",
"=X c gray77",
"-X c #C5C5C5",
";X c #C6C6C6",
":X c gray78",
">X c gray79",
",X c #CACACA",
"<X c #CBCBCB",
"1X c gray80",
"2X c #CDCDCD",
"3X c #CECECE",
"4X c gray81",
"5X c #D0D0D0",
"6X c gray82",
"7X c #D2D2D2",
"8X c LightGray",
"9X c gray83",
"0X c gray84",
"qX c #D7D7D7",
"wX c #D8D8D8",
"eX c gray85",
"rX c #DADADA",
"tX c gray86",
"yX c gainsboro",
"uX c #DDDDDD",
"iX c gray87",
"pX c #DFDFDF",
"aX c gray88",
"sX c #E1E1E1",
"dX c #E2E2E2",
"fX c gray89",
"gX c #E4E4E4",
"hX c gray90",
"jX c #E6E6E6",
"kX c #E7E7E7",
"lX c gray91",
"zX c #E9E9E9",
"xX c #EAEAEA",
"cX c gray92",
"vX c #ECECEC",
"bX c gray93",
"nX c #EEEEEE",
"mX c #EFEFEF",
"MX c gray94",
"NX c #F1F1F1",
"BX c gray95",
"VX c #F3F3F3",
"CX c #F4F4F4",
"ZX c gray96",
"AX c #F6F6F6",
"SX c gray97",
"DX c #F8F8F8",
"FX c #F9F9F9",
"GX c gray98",
"HX c gray99",
"JX c #FDFDFD",
"KX c #FEFEFE",
"LX c white",
"PX c None",
/* pixels */
"PXPXPXPXPXPXPXPXPXPXPXPXPXPXPXPXPXPXPXPXPXPXPXPXPXPXPXPXPXPXPXPXPXPXPXPXPXPXPXPXPXPXPXPXPXPXPXPXPXPXPXPXPXPXPXPXPXPXPXPXPXPXPXPXPXPXPXPXPXPXPXPXPXPXPXPXPXPXPXPX",
"PXPXPXPXPXPXPXPXPXPXPXPXPXPXPXPXPXPXPXPXPXPXPXPXPXPXPXPXPXPXPXPXPXPXPXPXPXPXPXPXPXPXPXPXPXPXPXPXPXPXPXPXPXPXPXPXPXPXPXPXPXPXPXPXPXPXPXPXPXPXPXPXPXPXPXPXPXPXPXPX",
"PXPXPXPXPXPXPXPXPXPXPXPXPXPXPXPXPXPXPXPXPXPXPXPXPXPXPXPXPXPXPXPXPXPXPXPXPXPXPXPXPXPXPXPXPXPXPXPXPXPXPXPXPXPXPXPXPXPXPXPXPXPXPXPXPXPXPXPXPXPXPXPXPXPXPXPXPXPXPXPX",
"PXPXPXPXPXPXPXPXPXPXPXPXPXPXPXPXPXPXPXPXPXPXPXPXPXPXPXPXPXPXPXPXPXPXPXPXPXPXPXPXPXPXPXPXPXPXPXPXPXPXPXPXPXPXPXPXPXPXPXPXPXPXPXPXPXPXPXPXPXPXPXPXPXPXPXPXPXPXPXPX",
"PXPXPXPXPXPXPXPXPXPXPXPXPXPXPXPXPXPXPXPXPXPXPXPXPXPXPXPXPXPXPXPXPXPXPXPXPXPXPXPXPXPXPXPXPXPXPXPXPXPXPXPXPXPXPXPXPXPXPXPXPXPXPXPXPXPXPXPXPXPXPXPXPXPXPXPXPXPXPXPX",
"PXPXPXPXPXPXPXPXPXPXPXPXPXPXPXPXPXPXPXPXPXPXPXPXPXPXPXPXPXPXPXPXPXPXPXPXPXPXPXPXPXPXPXPXPXPXPXPXPXPXPXPXPXPXPXPXPXPXPXPXPXPXPXPXPXPXPXPXPXPXPXPXPXPXPXPXPXPXPXPX",
"PXPXPXPXPXPXPXPXPXPXPXPXPXPXPXPXPXPXPXPXPXPXPXPXPXPXPXPXPXPXPXPXPXPXPXPXPXPXPXPXPXPXPXPXPXPXPXPXPXPXPXPXPXPXPXPXPXPXPXPXPXPXPXPXPXPXPXPXPXPXPXPXPXPXPXPXPXPXPXPX",
"PXPXPXPXPXPXPXPXPXPXPXPXPXPXPXPXPXPXPXPXPXPXPXPXPXPXPXPXPXPXPXPXPXPXPXPXPXPXPXPXPXPXPXPXPXPXPXPXPXPXPXPXPXPXPXPXPXPXPXPXPXPXPXPXPXPXPXPXPXPXPXPXPXPXPXPXPXPXPXPX",
"PXPXPXPXPXPXPXPXPXPXPXPXPXPXPXPXPXPXPXPXPXPXPXPXPXPXPXPXPXPXPXPXPXPXPXPXPXPXPXPXPXPXPXPXPXPXPXPXPXPXPXPXPXPXPXPXPXPXPXPXPXPXPXPXPXPXPXPXPXPXPXPXPXPXPXPXPXPXPXPX",
"PXPXPXPXPXPXPXPXPXPXPXPXPXPXPXPXPXPXPXPXPXPXPXPXPXPXPXPXPXPXPXPXPXPXPXPXPXPXPX      PXPXPXPXPXPXPXPXPXPXPXPXPXPXPXPXPXPXPXPXPXPXPXPXPXPXPXPXPXPXPXPXPXPXPXPXPXPX",
"PXPXPXPXPXPXPXPXPXPXPXPXPXPXPXPXPXPXPXPXPXPXPXPXPXPXPXPXPXPXPXPXPXPXPXPXPX            PXPXPXPXPXPXPXPXPXPXPXPXPXPXPXPXPXPXPXPXPXPXPXPXPXPXPXPXPXPXPXPXPXPXPXPXPX",
"PXPXPXPXPXPXPXPXPXPXPXPXPXPXPXPXPXPXPXPXPXPXPXPX      PXPXPXPXPXPXPXPXPX    * 8 a 4 +   PXPXPXPXPXPXPXPXPXPXPXPXPXPXPXPXPXPXPXPXPXPXPXPXPXPXPXPXPXPXPXPXPXPXPXPX",
"PXPXPXPXPXPXPXPXPXPXPXPXPXPXPXPXPXPXPXPXPXPX              PXPXPXPXPXPXPX    M U.>Xg.x     PXPXPXPXPXPXPXPX          PXPXPXPXPXPXPXPXPXPXPXPXPXPXPXPXPXPXPXPXPXPX",
"PXPXPXPXPXPXPXPXPXPXPXPXPXPXPXPXPXPXPXPXPX    > T [ M +   PXPXPXPXPXPXPX  * %.vXJX2X%.    PXPXPXPXPXPXPX              PXPXPXPXPXPXPXPXPXPXPXPXPXPXPXPXPXPXPXPXPX",
"PXPXPXPXPXPXPXPXPXPXPXPXPXPXPXPXPXPXPXPXPX  > I Q.*Xj.d +   PXPXPXPXPXPX  * #.zXJX>X%.    PXPXPXPXPXPXPX  > C [ H 4     PXPXPXPXPXPXPXPXPXPXPXPXPXPXPXPXPXPXPXPX",
"PXPXPXPXPXPXPXPXPXPXPXPXPXPXPXPXPXPXPXPXPX  r u.vXJX>X[ :   PXPXPXPXPXPX    M F.:Xa.l     PXPXPXPXPXPX    I Q.vXOXH     PXPXPXPXPXPXPXPXPXPXPXPXPXPXPXPXPXPXPXPX",
"PXPXPXPXPXPXPXPXPXPXPXPXPXPXPXPXPXPXPXPXPX  8 %.kXJXOXD *   PXPXPXPXPXPX    + 8 q 4 +   PXPXPXPXPXPXPX    8.iXJXCX-.*   PXPXPXPXPXPXPXPXPXPXPXPXPXPXPXPXPXPXPXPX",
"PXPXPXPXPXPXPXPXPXPX    PXPXPXPXPXPXPXPXPX  + a %.8.' 4   PXPXPXPXPXPXPXPXPX          PXPXPXPXPXPXPXPX    ' OXGX8X/     PXPXPXPXPXPXPXPX      PXPXPXPXPXPXPXPXPX",
"PXPXPXPXPXPXPXPX            PXPXPXPXPXPXPXPX    * : *     PXPXPXPXPXPXPXPXPX          PXPXPXPXPXPXPXPX    r #.m.-.r     PXPXPXPXPXPXPX            PXPXPXPXPXPXPX",
"PXPXPXPXPXPXPX    > q r > +   PXPXPXPXPXPXPXPX          PXPXPXPXPXPXPXPXPXPXPX      PXPXPXPXPXPXPXPXPXPX              PXPXPXPXPXPXPX    4 r q :     PXPXPXPXPXPX",
"PXPXPXPXPXPXPX    #.}.*X#.8     PXPXPXPXPXPXPXPX      PXPXPXPXPXPXPXPXPXPXPXPX      PXPXPXPXPXPXPXPXPXPXPX          PXPXPXPXPXPXPX    4 g.:XQ.I *   PXPXPXPXPXPX",
"PXPXPXPXPXPXPX  4 H.JXCX`.C     PXPXPXPXPXPXPXPX        PXPXPXPXPXPXPXPXPXPX          PXPXPXPXPXPXPXPXPXPX        PXPXPXPXPXPXPXPX    M 2XJXkXb.4     PXPXPXPXPX",
"PXPXPXPXPXPXPX  4 F.GXCX).C     PXPXPXPXPXPXPXPX        PXPXPXPXPXPXPXPXPXPX          PXPXPXPXPXPXPXPXPXPX        PXPXPXPXPXPXPXPX  + M 2XJXdXb.4     PXPXPXPXPX",
"PXPXPXPXPXPXPX    o.`.OXo.8     PXPXPXPXPXPXPXPX        PXPXPXPXPXPXPXPXPXPX    +     PXPXPXPXPXPXPXPXPXPX        PXPXPXPXPXPXPXPX    > a.*XE.H *   PXPXPXPXPXPX",
"PXPXPXPXPXPXPX    > q r : +   PXPXPXPXPXPXPXPXPX          PXPXPXPXPXPXPXPXPX  + 4 *   PXPXPXPXPXPXPXPXPX          PXPXPXPXPXPXPXPXPX  + 4 q 8 *     PXPXPXPXPXPX",
"PXPXPXPXPXPXPXPX              PXPXPXPXPXPXPXPXPX          PXPXPXPXPXPXPXPX    * ~ r   PXPXPXPXPXPXPXPXPX          PXPXPXPXPXPXPXPXPX              PXPXPXPXPXPXPX",
"PXPXPXPXPXPXPXPXPXPX          PXPXPXPXPXPXPXPXPX    : 4   PXPXPXPXPXPXPXPX    q g.D     PXPXPXPXPXPXPXPX  + *     PXPXPXPXPXPXPXPXPX          PXPXPXPXPXPXPXPXPX",
"PXPXPXPXPXPXPXPXPXPXPXPX        PXPXPXPXPXPXPXPX    r I :   PXPXPXPXPXPXPX  * H `.~     PXPXPXPXPXPXPX    q q     PXPXPXPXPXPXPXPX        PXPXPXPXPXPXPXPXPXPXPX",
"PXPXPXPXPXPXPXPXPXPXPXPX        PXPXPXPXPXPXPXPX    D j.4   PXPXPXPXPXPXPX  8 %.eXo.    PXPXPXPXPXPXPX    / ~     PXPXPXPXPXPXPX          PXPXPXPXPXPXPXPXPXPXPX",
"PXPXPXPXPXPXPXPXPXPXPXPX          PXPXPXPXPXPXPX    ' *Xd     PXPXPXPXPXPX  a g.zX4.+   PXPXPXPXPXPX  + r 8.%.    PXPXPXPXPXPXPX          PXPXPXPXPXPXPXPXPXPXPX",
"PXPXPXPXPXPXPXPXPXPXPXPX            PXPXPXPXPXPX    #.dX/ :   PXPXPXPXPX    M Q.VXj.r   PXPXPXPXPXPX  : o.F.<.    PXPXPXPXPXPX          PXPXPXPXPXPXPXPXPXPXPXPX",
"PXPXPXPXPXPXPXPXPXPXPXPX    + *     PXPXPXPXPXPX    #.vXm.d     PXPXPXPX    I >XCXU.C     PXPXPXPX    8 U.}.-.    PXPXPXPXPXPX  + + +   PXPXPXPXPXPXPXPXPXPXPXPX",
"PXPXPXPXPXPXPXPXPXPXPXPXPX  8 C >     PXPXPXPXPX    #.CX8XT     PXPXPXPX    ' zXJX.X'     PXPXPXPX    M 8X2X%.    PXPXPXPXPX  * l r :   PXPXPXPXPXPXPXPXPXPXPXPX",
"PXPXPXPXPXPXPXPXPXPXPXPXPX  q ~ ' q     PXPXPXPX    o.JXCX<.:   PXPXPXPX  + -.GXJX8X<.    PXPXPXPX  q <.kX8X%.    PXPXPXPX    4 a.D     PXPXPXPXPXPXPXPXPXPXPXPX",
"PXPXPXPXPXPXPXPXPXPXPXPXPX  > T E./     PXPXPXPX    o.JXJXH.M     PXPXPX  q a.JXJXVXg.    PXPXPX    C `.VX8X-.    PXPXPXPX  : I }.~     PXPXPXPXPXPXPXPXPXPXPXPX",
"PXPXPXPXPXPXPXPXPXPXPXPXPX    C eXb.a     PXPXPX    o.JXJX8X-.    PXPXPX  x H.JXJXJXH.*   PXPXPX    [ zXGX8X%.    PXPXPX    C V.}.I     PXPXPXPXPXPXPXPXPXPXPXPX",
"PXPXPXPXPXPXPXPXPXPXPXPXPX    r 8X9X4.+   PXPXPX    o.JXJXGXF.*   PXPX    ~ `.JXJXJX`.r + PXPXPX  a j.JXJX2X%.    PXPX    > 4.dXE.M     PXPXPXPXPXPXPXPXPXPXPXPX",
"PXPXPXPXPXPXPXPXPXPXPXPXPX    q .XVX`.D +   PXPX    o.JXJXJX.XD *   PX    -.8XJXJXJX*XH *   PX    ' *XJXJX2X-.    PXPX    ' *XvXb.d   PXPXPXPXPXPXPXPXPXPXPXPXPX",
"PXPXPXPXPXPXPXPXPXPXPXPXPXPX  4 H.vXkXm.8     PX    o.JXJXJXeXu.>         a.kXJXJXJX2X#.:       * j.zXJXJX2X-.    PX  + r H.CXzX4.q   PXPXPXPXPXPXPXPXPXPXPXPXPX",
"PXPXPXPXPXPXPXPXPXPXPXPXPXPX  4 a.iXJXeX~ :         o.JXJXJXVX}.r       + F.JXJXJXJXiXa.4     + d `.JXJXJX2X%.        > <.8XJXkX' >   PXPXPXPXPXPXPXPXPXPXPXPXPX",
"PXPXPXPXPXPXPXPXPXPXPXPXPXPX  : %.2XJXCX).C         o.JXJXJXJXiXI *     8 ).JXJXJXJXvXE.8     > -.8XJXJXJX2X-.        M :XGXJXdXC +   PXPXPXPXPXPXPXPXPXPXPXPXPX",
"PXPXPXPXPXPXPXPXPXPXPXPXPXPX  : T :XJXJXzXq.8       o.JXJXJXJXvXa.a   * C OXJXJXJXJXJX>Xr     q ).VXJXJXJX2X-.      a b.vXJXJX9Xa     PXPXPXPXPXPXPXPXPXPXPXPXPX",
"PXPXPXPXPXPXPXPXPXPXPXPXPXPX  + l }.JXJXJX*Xo.+     #.JXJXJXJXVX.XD   * T ).iX9X8X8XeX}.a     M >XCXGXJXJX9X-.    : %.iXJXJXGXOXq     PXPXPXPXPXPXPXPXPXPXPXPXPX",
"PXPXPXPXPXPXPXPXPXPXPXPXPXPXPX  > Q.JXGXVXkXb.>     / eXdXeX8X:X).D   * C <.q.4.%.%.<.%.q   : D H..X*X2XeX`.[     l j.zXVXGXzXU.8   PXPXPXPXPXPXPXPXPXPXPXPXPXPX",
"PXPXPXPXPXPXPXPXPXPXPXPXPXPXPX  + m.kX*XU.g./ 8 +   : a r a r q 8 *   + * > > > > > > > +     : 8 q q r r q :     q T q.V.OXOXa.4   PXPXPXPXPXPXPXPXPXPXPXPXPXPX",
"PXPXPXPXPXPXPXPXPXPXPXPXPXPXPX    M / H x a 4 +                   * > 4 q q a d l d a r q 4 > *                   + > q d H H l +   PXPXPXPXPXPXPXPXPXPXPXPXPXPX",
"PXPXPXPXPXPXPXPXPXPXPXPXPXPXPX          * 4 r d M H T ' [ #.%.-.<.8.q.u.a.j.m.V.V.m.b.j.a.u.q.4.<.%.#.o.[ / I D M d q > *           PXPXPXPXPXPXPXPXPXPXPXPXPXPX",
"PXPXPXPXPXPXPXPXPXPXPXPXPXPXPX    + 8 C / %.u.m.E.OX8XzXCXJXJXJXJXJXJXJXJXJXJXJXJXJXJXJXJXJXJXJXJXJXJXJXCXkX2X.XE.b.8.#.~ M 8       PXPXPXPXPXPXPXPXPXPXPXPXPXPX",
"PXPXPXPXPXPXPXPXPXPXPXPXPXPXPX    q q.iXkXkXvXVXVXCXGXJXJXJXJXJXJXJXJXJXJXJXJXJXJXJXJXJXJXJXJXJXJXJXJXJXJXJXGXCXCXvXvXkXdX8Xq.+   PXPXPXPXPXPXPXPXPXPXPXPXPXPXPX",
"PXPXPXPXPXPXPXPXPXPXPXPXPXPXPXPX  * / *XJXJXJXJXJXJXJXJXJXJXJXJXJXJXJXJXJXJXJXJXJXJXJXJXJXJXJXJXJXJXJXJXJXJXJXJXJXJXJXJXJX).I     PXPXPXPXPXPXPXPXPXPXPXPXPXPXPX",
"PXPXPXPXPXPXPXPXPXPXPXPXPXPXPXPX    4 o.2XJXJXJXJXJXJXGXvXvXzXzXkXdXdXiXiXeX9XeX9XeXeXeXiXdXdXkXkXkXzXvXVXCXJXJXJXJXJXGX*X~ *   PXPXPXPXPXPXPXPXPXPXPXPXPXPXPXPX",
"PXPXPXPXPXPXPXPXPXPXPXPXPXPXPXPXPX    4 a.2XzXkXdXiX8XOXQ.U.H.V.V.m.j.g.a.u.8.8.4.4.8.u.a.g.j.m.m.F.H.E.Q.*X9XiXkXkXzX8X[ 4     PXPXPXPXPXPXPXPXPXPXPXPXPXPXPXPX",
"PXPXPXPXPXPXPXPXPXPXPXPXPXPXPXPXPXPX    8 T #.' H l r q 8 8 4 8 4 4 4 4 > 4 > > > > 4 > > 4 4 4 4 8 8 8 q q r x I [ o.I 4     PXPXPXPXPXPXPXPXPXPXPXPXPXPXPXPXPX",
"PXPXPXPXPXPXPXPXPXPXPXPXPXPXPXPXPXPXPX    : 4 *       * 8 q a a d l x M C D I I T I H D C M x l d a r q 4 *       > > :     PXPXPXPXPXPXPXPXPXPXPXPXPXPXPXPXPXPX",
"PXPXPXPXPXPXPXPXPXPXPXPXPXPXPXPXPXPXPX      : l T [ %.8.a.j.m.V.V.F.H.U.E.Q.).`.`.`.).E.E.U.H.F.V.m.m.b.g.8.%.[ ~ r +     PXPXPXPXPXPXPXPXPXPXPXPXPXPXPXPXPXPXPX",
"PXPXPXPXPXPXPXPXPXPXPXPXPXPXPXPXPXPXPXPX    a q.8XCXJXJXJXJXJXJXJXJXJXJXJXJXJXJXJXJXJXJXJXJXJXJXJXJXJXJXJXJXJXVXiX%.>     PXPXPXPXPXPXPXPXPXPXPXPXPXPXPXPXPXPXPX",
"PXPXPXPXPXPXPXPXPXPXPXPXPXPXPXPXPXPXPXPXPX  q <.zXJXJXJXJXJXJXJXJXJXJXJXJXJXJXJXJXJXJXJXJXJXJXJXJXJXJXJXJXJXJXJXVX[     PXPXPXPXPXPXPXPXPXPXPXPXPXPXPXPXPXPXPXPX",
"PXPXPXPXPXPXPXPXPXPXPXPXPXPXPXPXPXPXPXPXPX  r q.kXvXiX2X*X`.E.H.F.F.m.b.j.g.a.u.q.u.a.g.j.m.V.V.H.H.Q.`.*X8XiXvXCX#.    PXPXPXPXPXPXPXPXPXPXPXPXPXPXPXPXPXPXPXPX",
"PXPXPXPXPXPXPXPXPXPXPXPXPXPXPXPXPXPXPXPXPX  8 / g.g.4.%.' I C x l d d r q 8 > > : > 4 8 q a a d x M D T [ %.8.g.V.H +   PXPXPXPXPXPXPXPXPXPXPXPXPXPXPXPXPXPXPXPX",
"PXPXPXPXPXPXPXPXPXPXPXPXPXPXPXPXPXPXPXPX          + * * : > 4 4 4 4 8 8 8 8 q q q q 8 8 8 8 8 4 4 4 > : : : * +         PXPXPXPXPXPXPXPXPXPXPXPXPXPXPXPXPXPXPXPX",
"PXPXPXPXPXPXPXPXPXPXPXPXPXPXPXPXPXPXPXPX      + : r M T [ 4.u.j.b.m.F.U.E.Q.`.}..X}.).Q.E.H.F.m.b.g.u.-.[ I x r :         PXPXPXPXPXPXPXPXPXPXPXPXPXPXPXPXPXPXPX",
"PXPXPXPXPXPXPXPXPXPXPXPXPXPXPXPXPXPXPX    x 8.H.Q.`..X*X2X9XeXiXdXdXkXvXzXvXVXCXCXCXVXvXzXzXkXkXiXiXeX8X>X*X.X`.E.H.-.q +   PXPXPXPXPXPXPXPXPXPXPXPXPXPXPXPXPXPX",
"PXPXPXPXPXPXPXPXPXPXPXPXPXPXPXPXPXPX  + r g.iXJXJXJXJXJXJXJXJXJXJXJXJXJXJXJXJXJXJXJXJXJXJXJXJXJXJXJXJXJXJXJXJXJXJXJX*X[ :   PXPXPXPXPXPXPXPXPXPXPXPXPXPXPXPXPXPX",
"PXPXPXPXPXPXPXPXPXPXPXPXPXPXPXPXPXPX  : [ >XJXJXJXJXJXJXJXJXJXJXJXJXJXJXJXJXJXJXJXJXJXJXJXJXJXJXJXJXJXJXJXJXJXJXJXJXkXV.4   PXPXPXPXPXPXPXPXPXPXPXPXPXPXPXPXPXPX",
"PXPXPXPXPXPXPXPXPXPXPXPXPXPXPXPXPXPX  4 b.dXJXJXJXJXJXJXJXJXJXJXJXJXJXJXJXJXJXJXJXJXJXJXJXJXJXJXJXJXJXJXJXJXJXJXJXJXzXH.8     PXPXPXPXPXPXPXPXPXPXPXPXPXPXPXPXPX",
"PXPXPXPXPXPXPXPXPXPXPXPXPXPXPXPXPX    l :XGXJXJXJXJXJXJXJXJXJXJXJXJXJXJXJXJXJXJXJXJXJXJXJXJXJXJXJXJXJXJXJXJXJXJXJXJXGX:Xx     PXPXPXPXPXPXPXPXPXPXPXPXPXPXPXPXPX",
"PXPXPXPXPXPXPXPXPXPXPXPXPXPXPXPXPX  * C 9XJXJXJXJXJXJXJXJXJXJXJXJXJXJXJXJXJXJXJXJXJXJXJXJXJXJXJXJXJXJXJXJXJXJXJXJXJXJXdX' >   PXPXPXPXPXPXPXPXPXPXPXPXPXPXPXPXPX",
"PXPXPXPXPXPXPXPXPXPXPXPXPXPXPXPXPX  + l H.2XeXiXkXkXzXzXvXVXVXCXCXCXCXCXGXCXGXGXGXGXGXGXGXCXCXVXCXVXVXVXvXzXkXkXdXiXeX.X[ 8   PXPXPXPXPXPXPXPXPXPXPXPXPXPXPXPXPX",
"PXPXPXPXPXPXPXPXPXPXPXPXPXPXPXPXPX    * 4 q a M I ' %.q.j.F.U.E.).`.}..X*X:X2X2X8X2X>X:X*X.X}.`.Q.E.H.F.j.8.%./ H x a q : +   PXPXPXPXPXPXPXPXPXPXPXPXPXPXPXPXPX",
"PXPXPXPXPXPXPXPXPXPXPXPXPXPXPXPXPXPXPX          * > 8 r d l x M M C C D H H I T T T I H H D C C C M x l d r 4 : +           PXPXPXPXPXPXPXPXPXPXPXPXPXPXPXPXPXPX",
"PXPXPXPXPXPXPXPXPXPXPXPXPXPXPXPXPXPXPXPX                                                                                  PXPXPXPXPXPXPXPXPXPXPXPXPXPXPXPXPXPXPX",
"PXPXPXPXPXPXPXPXPXPXPXPXPXPXPXPXPXPXPXPXPXPXPXPXPXPXPXPXPXPX                                          PXPXPXPXPXPXPXPXPXPXPXPXPXPXPXPXPXPXPXPXPXPXPXPXPXPXPXPXPX",
"PXPXPXPXPXPXPXPXPXPXPXPXPXPXPXPXPXPXPXPXPXPXPXPXPXPXPXPXPXPXPXPXPXPXPXPXPXPXPXPXPXPXPXPXPXPXPXPXPXPXPXPXPXPXPXPXPXPXPXPXPXPXPXPXPXPXPXPXPXPXPXPXPXPXPXPXPXPXPXPX",
"PXPXPXPXPXPXPXPXPXPXPXPXPXPXPXPXPXPXPXPXPXPXPXPXPXPXPXPXPXPXPXPXPXPXPXPXPXPXPXPXPXPXPXPXPXPXPXPXPXPXPXPXPXPXPXPXPXPXPXPXPXPXPXPXPXPXPXPXPXPXPXPXPXPXPXPXPXPXPXPX",
"PXPXPXPXPXPXPXPXPXPXPXPXPXPXPXPXPXPXPXPXPXPXPXPXPXPXPXPXPXPXPXPXPXPXPXPXPXPXPXPXPXPXPXPXPXPXPXPXPXPXPXPXPXPXPXPXPXPXPXPXPXPXPXPXPXPXPXPXPXPXPXPXPXPXPXPXPXPXPXPX",
"PXPXPXPXPXPXPXPXPXPXPXPXPXPXPXPXPXPXPXPXPXPXPXPXPXPXPXPXPXPXPXPXPXPXPXPXPXPXPXPXPXPXPXPXPXPXPXPXPXPXPXPXPXPXPXPXPXPXPXPXPXPXPXPXPXPXPXPXPXPXPXPXPXPXPXPXPXPXPXPX",
"PXPXPXPXPXPXPXPXPXPXPXPXPXPXPXPXPXPXPXPXPXPXPXPXPXPXPXPXPXPXPXPXPXPXPXPXPXPXPXPXPXPXPXPXPXPXPXPXPXPXPXPXPXPXPXPXPXPXPXPXPXPXPXPXPXPXPXPXPXPXPXPXPXPXPXPXPXPXPXPX",
"PXPXPXPXPXPXPXPXPXPXPXPXPXPXPXPXPXPXPXPXPXPXPXPXPXPXPXPXPXPXPXPXPXPXPXPXPXPXPXPXPXPXPXPXPXPXPXPXPXPXPXPXPXPXPXPXPXPXPXPXPXPXPXPXPXPXPXPXPXPXPXPXPXPXPXPXPXPXPXPX",
"PXPXPXPXPXPXPXPXPXPXPXPXPXPXPXPXPXPXPXPXPXPXPXPXPXPXPXPXPXPXPXPXPXPXPXPXPXPXPXPXPXPXPXPXPXPXPXPXPXPXPXPXPXPXPXPXPXPXPXPXPXPXPXPXPXPXPXPXPXPXPXPXPXPXPXPXPXPXPXPX",
"PXPXPXPXPXPXPXPXPXPXPXPXPXPXPXPXPXPXPXPXPXPXPXPXPXPXPXPXPXPXPXPXPXPXPXPXPXPXPXPXPXPXPXPXPXPXPXPXPXPXPXPXPXPXPXPXPXPXPXPXPXPXPXPXPXPXPXPXPXPXPXPXPXPXPXPXPXPXPXPX"
};
