/* XPM */
static char *xpm_[] = {
/* columns rows colors chars-per-pixel */
"80 80 250 2 ",
"   c black",
".  c #010101",
"X  c #020202",
"o  c gray1",
"O  c #040404",
"+  c gray2",
"@  c #060606",
"#  c #070707",
"$  c gray3",
"%  c #090909",
"&  c gray4",
"*  c #0B0B0B",
"=  c #0C0C0C",
"-  c gray5",
";  c #0E0E0E",
":  c gray6",
">  c #101010",
",  c #111111",
"<  c gray7",
"1  c #131313",
"2  c gray8",
"3  c #151515",
"4  c #161616",
"5  c gray9",
"6  c #181818",
"7  c #191919",
"8  c gray10",
"9  c #1B1B1B",
"0  c gray11",
"q  c #1D1D1D",
"w  c #1E1E1E",
"e  c gray12",
"r  c #202020",
"t  c gray13",
"y  c #222222",
"u  c #232323",
"i  c gray14",
"p  c #252525",
"a  c gray15",
"s  c #272727",
"d  c #282828",
"f  c gray16",
"g  c #2A2A2A",
"h  c gray17",
"j  c #2C2C2C",
"k  c #2D2D2D",
"l  c gray18",
"z  c #2F2F2F",
"x  c gray19",
"c  c #313131",
"v  c #323232",
"b  c gray20",
"n  c #343434",
"m  c #353535",
"M  c gray21",
"N  c #373737",
"B  c gray22",
"V  c #393939",
"C  c #3A3A3A",
"Z  c gray23",
"A  c #3C3C3C",
"S  c gray24",
"D  c #3E3E3E",
"F  c #3F3F3F",
"G  c gray25",
"H  c #414141",
"J  c gray26",
"K  c #434343",
"L  c #444444",
"P  c gray27",
"I  c #464646",
"U  c gray28",
"Y  c #484848",
"T  c #494949",
"R  c gray29",
"E  c #4B4B4B",
"W  c #4C4C4C",
"Q  c gray30",
"!  c #4E4E4E",
"~  c gray31",
"^  c #505050",
"/  c #515151",
"(  c gray32",
")  c #535353",
"_  c gray33",
"`  c #555555",
"'  c #565656",
"]  c gray34",
"[  c #585858",
"{  c gray35",
"}  c #5A5A5A",
"|  c #5B5B5B",
" . c gray36",
".. c #5D5D5D",
"X. c gray37",
"o. c #5F5F5F",
"O. c #606060",
"+. c gray38",
"@. c #626262",
"#. c gray39",
"$. c #646464",
"%. c gray40",
"&. c #676767",
"*. c #686868",
"=. c DimGray",
"-. c #6A6A6A",
";. c gray42",
":. c #6C6C6C",
">. c #6D6D6D",
",. c #6F6F6F",
"<. c gray44",
"1. c #717171",
"2. c #727272",
"3. c gray45",
"4. c #747474",
"5. c gray46",
"6. c #767676",
"7. c #777777",
"8. c gray47",
"9. c #797979",
"0. c gray48",
"q. c #7C7C7C",
"w. c gray49",
"e. c #7E7E7E",
"r. c gray50",
"t. c #808080",
"y. c #818181",
"u. c #838383",
"i. c #848484",
"p. c gray52",
"a. c #868686",
"s. c gray53",
"d. c #888888",
"f. c #898989",
"g. c gray54",
"h. c gray55",
"j. c #8D8D8D",
"k. c #8E8E8E",
"l. c gray56",
"z. c #909090",
"x. c gray57",
"c. c #929292",
"v. c #939393",
"b. c gray58",
"n. c #959595",
"m. c gray59",
"M. c #979797",
"N. c gray60",
"B. c #9A9A9A",
"V. c #9B9B9B",
"C. c gray61",
"Z. c #9D9D9D",
"A. c gray62",
"S. c #9F9F9F",
"D. c #A0A0A0",
"F. c gray63",
"G. c #A2A2A2",
"H. c gray64",
"J. c #A4A4A4",
"K. c #A5A5A5",
"L. c gray65",
"P. c #A7A7A7",
"I. c gray66",
"U. c #A9A9A9",
"Y. c #AAAAAA",
"T. c gray67",
"R. c #ACACAC",
"E. c gray68",
"W. c #AEAEAE",
"Q. c #AFAFAF",
"!. c gray69",
"~. c #B1B1B1",
"^. c #B2B2B2",
"/. c gray70",
"(. c #B4B4B4",
"). c gray71",
"_. c #B6B6B6",
"`. c gray72",
"'. c #B9B9B9",
"]. c gray73",
"[. c #BBBBBB",
"{. c #BCBCBC",
"}. c gray74",
"|. c gray",
" X c gray75",
".X c #C0C0C0",
"XX c #C1C1C1",
"oX c gray76",
"OX c #C3C3C3",
"+X c gray77",
"@X c #C5C5C5",
"#X c #C6C6C6",
"$X c gray78",
"%X c #C8C8C8",
"&X c gray79",
"*X c #CACACA",
"=X c #CBCBCB",
"-X c gray80",
";X c #CDCDCD",
":X c #CECECE",
">X c gray81",
",X c #D0D0D0",
"<X c gray82",
"1X c #D2D2D2",
"2X c LightGray",
"3X c gray83",
"4X c #D5D5D5",
"5X c gray84",
"6X c #D7D7D7",
"7X c #D8D8D8",
"8X c gray85",
"9X c #DADADA",
"0X c gray86",
"qX c gainsboro",
"wX c #DDDDDD",
"eX c gray87",
"rX c #DFDFDF",
"tX c gray88",
"yX c #E1E1E1",
"uX c #E2E2E2",
"iX c gray89",
"pX c #E4E4E4",
"aX c gray90",
"sX c #E6E6E6",
"dX c #E7E7E7",
"fX c gray91",
"gX c #E9E9E9",
"hX c #EAEAEA",
"jX c gray92",
"kX c #ECECEC",
"lX c gray93",
"zX c #EEEEEE",
"xX c #EFEFEF",
"cX c gray94",
"vX c #F1F1F1",
"bX c gray95",
"nX c #F3F3F3",
"mX c #F4F4F4",
"MX c gray96",
"NX c #F6F6F6",
"BX c gray97",
"VX c #F8F8F8",
"CX c #F9F9F9",
"ZX c gray98",
"AX c #FBFBFB",
"SX c gray99",
"DX c #FDFDFD",
"FX c #FEFEFE",
"GX c white",
"HX c None",
/* pixels */
"HXHXHXHXHXHXHXHXHXHXHXHXHXHXHXHXHXHXHXHXHXHXHXHXHXHXHXHXHXHXHXHXHXHXHXHXHXHXHXHXHXHXHXHXHXHXHXHXHXHXHXHXHXHXHXHXHXHXHXHXHXHXHXHXHXHXHXHXHXHXHXHXHXHXHXHXHXHXHXHX",
"HXHXHXHXHXHXHXHXHXHXHXHXHXHXHXHXHXHXHXHXHXHXHXHXHXHXHXHXHXHXHXHXHXHXHXHXHXHXHXHXHXHXHXHXHXHXHXHXHXHXHXHXHXHXHXHXHXHXHXHXHXHXHXHXHXHXHXHXHXHXHXHXHXHXHXHXHXHXHXHX",
"HXHXHXHXHXHXHXHXHXHXHXHXHXHXHXHXHXHXHXHXHXHXHXHXHXHXHXHXHXHXHXHXHXHXHXHXHXHXHXHXHXHXHXHXHXHXHXHXHXHXHXHXHXHXHXHXHXHXHXHXHXHXHXHXHXHXHXHXHXHXHXHXHXHXHXHXHXHXHXHX",
"HXHXHXHXHXHXHXHXHXHXHXHXHXHXHXHXHXHXHXHXHXHXHXHXHXHXHXHXHXHXHXHXHXHXHXHXHXHXHXHXHXHXHXHXHXHXHXHXHXHXHXHXHXHXHXHXHXHXHXHXHXHXHXHXHXHXHXHXHXHXHXHXHXHXHXHXHXHXHXHX",
"HXHXHXHXHXHXHXHXHXHXHXHXHXHXHXHXHXHXHXHXHXHXHXHXHXHXHXHXHXHXHXHXHXHXHXHXHXHXHXHXHXHXHXHXHXHXHXHXHXHXHXHXHXHXHXHXHXHXHXHXHXHXHXHXHXHXHXHXHXHXHXHXHXHXHXHXHXHXHXHX",
"HXHXHXHXHXHXHXHXHXHXHXHXHXHXHXHXHXHXHXHXHXHXHXHXHXHXHXHXHXHXHXHXHXHXHXHXHXHXHXHXHXHXHXHXHXHXHXHXHXHXHXHXHXHXHXHXHXHXHXHXHXHXHXHXHXHXHXHXHXHXHXHXHXHXHXHXHXHXHXHX",
"HXHXHXHXHXHXHXHXHXHXHXHXHXHXHXHXHXHXHXHXHXHXHXHXHXHXHXHXHXHXHXHXHXHXHXHXHXHXHXHXHXHXHXHXHXHXHXHXHXHXHXHXHXHXHXHXHXHXHXHXHXHXHXHXHXHXHXHXHXHXHXHXHXHXHXHXHXHXHXHX",
"HXHXHXHXHXHXHXHXHXHXHXHXHXHXHXHXHXHXHXHXHXHXHXHXHXHXHXHXHXHXHXHXHXHXHXHXHXHXHXHXHXHXHXHXHXHXHXHXHXHXHXHXHXHXHXHXHXHXHXHXHXHXHXHXHXHXHXHXHXHXHXHXHXHXHXHXHXHXHXHX",
"HXHXHXHXHXHXHXHXHXHXHXHXHXHXHXHXHXHXHXHXHXHXHXHXHXHXHXHXHXHXHXHXHXHXHXHXHXHXHXHXHXHXHXHXHXHXHXHXHXHXHXHXHXHXHXHXHXHXHXHXHXHXHXHXHXHXHXHXHXHXHXHXHXHXHXHXHXHXHXHX",
"HXHXHXHXHXHXHXHXHXHXHXHXHXHXHXHXHXHXHXHXHXHXHXHXHXHXHXHXHXHXHXHXHXHXHXHXHXHXHXHX    HXHXHXHXHXHXHXHXHXHXHXHXHXHXHXHXHXHXHXHXHXHXHXHXHXHXHXHXHXHXHXHXHXHXHXHXHXHX",
"HXHXHXHXHXHXHXHXHXHXHXHXHXHXHXHXHXHXHXHXHXHXHXHXHXHXHXHXHXHXHXHXHXHXHXHXHXHXHXHX    HXHXHXHXHXHXHXHXHXHXHXHXHXHXHXHXHXHXHXHXHXHXHXHXHXHXHXHXHXHXHXHXHXHXHXHXHXHX",
"HXHXHXHXHXHXHXHXHXHXHXHXHXHXHXHXHXHXHXHXHXHXHXHXHXHXHXHXHXHXHXHXHXHXHXHXHXHXHXHX      HXHXHXHXHXHXHXHXHXHXHXHXHXHXHXHXHXHXHXHXHXHXHXHXHXHXHXHXHXHXHXHXHXHXHXHXHX",
"HXHXHXHXHXHXHXHXHXHXHXHXHXHXHXHXHXHXHXHXHXHXHXHXHXHXHXHXHXHXHXHXHXHXHXHX                    HXHXHXHXHXHXHXHXHXHXHXHXHXHXHXHXHXHXHXHXHXHXHXHXHXHXHXHXHXHXHXHXHXHX",
"HXHXHXHXHXHXHXHXHXHXHXHXHXHXHXHXHXHXHXHXHXHXHXHXHXHXHXHXHXHXHXHXHXHXHXHX                    HXHXHXHXHXHXHXHXHXHXHXHXHXHXHXHXHXHXHXHXHXHXHXHXHXHXHXHXHXHXHXHXHXHX",
"HXHXHXHXHXHXHXHXHXHXHXHXHXHXHXHXHXHXHXHXHXHXHXHXHXHXHXHXHXHXHXHXHXHXHXHX                    HXHXHXHXHXHXHXHXHXHXHXHXHXHXHXHXHXHXHXHXHXHXHXHXHXHXHXHXHXHXHXHXHXHX",
"HXHXHXHXHXHXHXHXHXHXHXHXHXHXHXHXHXHXHXHXHXHXHXHXHXHXHXHXHXHXHXHXHXHXHXHXHXHXHXHX    HXHXHXHXHXHXHXHXHXHXHXHXHXHXHXHXHXHXHXHXHXHXHXHXHXHXHXHXHXHXHXHXHXHXHXHXHXHX",
"HXHXHXHXHXHXHXHXHXHXHXHXHXHXHXHXHXHXHXHXHXHXHXHXHXHXHXHXHXHXHXHXHXHXHXHXHXHXHXHX    HXHXHXHXHXHXHXHXHXHXHXHXHXHXHXHXHXHXHXHXHXHXHXHXHXHXHXHXHXHXHXHXHXHXHXHXHXHX",
"HXHXHXHXHXHXHXHXHXHXHXHXHXHXHXHXHXHXHXHXHXHXHXHXHXHXHXHXHXHXHXHXHXHXHXHXHXHXHXHX    HXHXHXHXHXHXHXHXHXHXHXHXHXHXHXHXHXHXHXHXHXHXHXHXHXHXHXHXHXHXHXHXHXHXHXHXHXHX",
"HXHXHXHXHXHXHXHXHXHXHXHXHXHXHXHXHXHXHXHXHXHXHXHXHXHXHXHXHXHXHXHXHXHXHXHXHXHXHXHX    HXHXHXHXHXHXHXHXHXHXHXHXHXHXHXHXHXHXHXHXHXHXHXHXHXHXHXHXHXHXHXHXHXHXHXHXHXHX",
"HXHXHXHXHXHXHXHXHXHXHXHXHXHXHXHXHXHXHXHXHXHXHXHXHXHXHXHXHXHXHXHXHXHXHXHXHXHXHX        HXHXHXHXHXHXHXHXHXHXHXHXHXHXHXHXHXHXHXHXHXHXHXHXHXHXHXHXHXHXHXHXHXHXHXHXHX",
"HXHXHXHXHXHXHXHXHXHXHXHXHXHXHXHXHXHXHXHXHXHXHXHXHXHXHXHXHXHXHXHXHXHXHXHXHX              HXHXHXHXHXHXHXHXHXHXHXHXHXHXHXHXHXHXHXHXHXHXHXHXHXHXHXHXHXHXHXHXHXHXHXHX",
"HXHXHXHXHXHXHXHXHXHXHXHXHXHXHXHXHXHXHXHXHXHXHXHXHXHXHXHXHXHXHXHXHXHXHXHX    O 5 F m 8     HXHXHXHXHXHXHXHXHXHXHXHXHXHXHXHXHXHXHXHXHXHXHXHXHXHXHXHXHXHXHXHXHXHXHX",
"HXHXHXHXHXHXHXHXHXHXHXHXHXHXHXHXHXHXHXHXHXHXHXHXHXHXHXHXHXHXHXHXHXHXHXHX  $ m 7.D.S.1.m O   HXHXHXHXHXHXHXHXHXHXHXHXHXHXHXHXHXHXHXHXHXHXHXHXHXHXHXHXHXHXHXHXHXHX",
"HXHXHXHXHXHXHXHXHXHXHXHXHXHXHXHXHXHXHXHXHXHXHXHXHXHXHXHXHXHXHXHXHXHXHX    c x.vXGXGXpXS.s     HXHXHXHXHXHXHXHXHXHXHXHXHXHXHXHXHXHXHXHXHXHXHXHXHXHXHXHXHXHXHXHXHX",
"HXHXHXHXHXHXHXHXHXHXHXHXHXHXHXHXHXHXHXHXHXHXHXHXHXHXHXHXHXHXHXHXHXHXHX  = p.pXGXGXGXGXyX,.q     HXHXHXHXHXHXHXHXHXHXHXHXHXHXHXHXHXHXHXHXHXHXHXHXHXHXHXHXHXHXHXHX",
"HXHXHXHXHXHXHXHXHXHXHXHXHXHXHXHXHXHXHXHXHXHXHXHXHXHXHXHXHXHXHXHXHXHX  O G ].GXGXGXGXGXNX|.F     HXHXHXHXHXHXHXHXHXHXHXHXHXHXHXHXHXHXHXHXHXHXHXHXHXHXHXHXHXHXHXHX",
"HXHXHXHXHXHXHXHXHXHXHXHXHXHXHXHXHXHXHXHXHX      HXHXHXHXHXHXHXHXHXHX  1 7.5XGXGXGXGXGXGXxX|     HXHXHXHXHXHXHXHXHX      HXHXHXHXHXHXHXHXHXHXHXHXHXHXHXHXHXHXHXHX",
"HXHXHXHXHXHXHXHXHXHXHXHXHXHXHXHXHX      O O $ $         HXHXHXHXHXHX  5 h.yXGXGXGXGXGXGXGX;.    HXHXHXHX        O $ $ O         HXHXHXHXHXHXHXHXHXHXHXHXHXHXHXHX",
"HXHXHXHXHXHXHXHXHXHXHXHXHXHXHX        O 1 k B d 5 O           HXHXHX  5 p.eXGXGXGXGXGXGXGX$.    HXHX          $ q c B d 1           HXHXHXHXHXHXHXHXHXHXHXHXHXHX",
"HXHXHXHXHXHXHXHXHXHXHXHXHXHX      d #.n.I._.]._.R.S.w.E 8             1 7.5XGXGXGXGXGXGXNX..            d ..g.L.R.].].^.L.n.;.k       HXHXHXHXHXHXHXHXHXHXHXHXHX",
"HXHXHXHXHXHXHXHXHXHXHXHXHX    = L g.=XZXGXGXGXGXGXGXpX^.w._ s         = ^ +XGXGXGXGXGXZX5XE       = c ..h.OXxXGXGXGXGXGXGXZX1Xx.^ q O   HXHXHXHXHXHXHXHXHXHXHXHX",
"HXHXHXHXHXHXHXHXHXHXHXHXHX  = L +XNXGXGXGXGXGXGXGXGXGXGXGX7Xg.c 1     O r I.GXGXGXGXGXvXD.c     5 L V.jXGXGXGXGXGXGXGXGXGXGXGXZX5X1.s     HXHXHXHXHXHXHXHXHXHXHX",
"HXHXHXHXHXHXHXHXHXHXHXHX    B R.xXGXGXGXGXGXGXGXGXGXGXGXGXZXxX|.| 8     O h.vXGXGXGXGXpX~ =   8 7.=XvXGXGXGXGXGXGXGXGXGXGXGXGXGXZX7Xu.1     HXHXHXHXHXHXHXHXHXHX",
"HXHXHXHXHXHXHXHXHXHXHX    r u.xXGXGXGXGXGXGXGXGXGXGXGXGXGXGXGXNX=Xw.k     _ |.GXGXGXjXD.r   k x.1XNXGXGXGXGXGXGXGXGXGXGXGXGXGXGXGXGX;X1.5     HXHXHXHXHXHXHXHXHX",
"HXHXHXHXHXHXHXHXHXHXHX    ..+XGXGXGXGXGXGXGXGXGXGXGXGXGXGXGXGXGXGX7Xu.s   8 9.xXGXNX^.E O q u.pXGXGXGXGXGXGXGXGXGXGXGXGXGXGXGXGXGXGXZX+XB O   HXHXHXHXHXHXHXHXHX",
"HXHXHXHXHXHXHXHXHXHXHX  O x.NXGXGXGXGXGXGXGXGXGXGXGXGXGXGXGXGXGXGXGX7Xw.r   F R.vX;X;.O 1 7.5XGXGXGXGXGXGXGXGXGXGXGXGXGXGXGXGXGXGXGXGXjX1.q   HXHXHXHXHXHXHXHXHX",
"HXHXHXHXHXHXHXHXHXHX  O r R.GXGXGXGXGXGXGXGXGXGXGXGXGXGXGXGXGXGXGXGXGX7X7.q O E 7Xg.q = ..+XZXGXGXGXGXGXGXGXGXGXGXGXGXGXGXGXGXGXGXGXGXvXS.c     HXHXHXHXHXHXHXHX",
"HXHXHXHXHXHXHXHXHXHX  = L OXGXGXGXGXGXGXGXGXGXGXGXGXGXGXGXGXGXGXGXGXGXGX1X..$ 5 1.B O s ^.vXGXGXGXGXGXGXGXGXGXGXGXGXGXGXGXGXGXGXGXGXGXNX+XL     HXHXHXHXHXHXHXHX",
"HXHXHXHXHXHXHXHXHXHX  = _ =XGXGXGXGXGXGXGXGXGXGXGXGXGXGXGXGXGXGXGXGXGXGXGXI.F   8 $ 1 | pXGXGXGXGXGXGXGXGXGXGXGXGXGXGXGXGXGXGXGXGXGXGXZX=XL     HXHXHXHXHXHXHXHX",
"HXHXHXHXHXHXHXHXHXHX  = E OXGXGXGXGXGXGXGXGXGXGXGXGXGXGXGXGXGXGXGXGXGXGXGXjXg.=     m I.vXGXGXGXGXGXGXGXGXGXGXGXGXGXGXGXGXGXGXGXGXGXGXvX_.F     HXHXHXHXHXHXHXHX",
"HXHXHXHXHXHXHXHXHXHX  $ F ].GXGXGXGXGXGXGXGXGXGXGXGXGXGXGXGXGXGXGXGXGXGXGXGX|.~ =   ..jXGXGXGXGXGXGXGXGXGXGXGXGXGXGXGXGXGXGXGXGXGXGXGXvXS.k     HXHXHXHXHXHXHXHX",
"HXHXHXHXHXHXHXHXHXHXHX  5 D.GXGXGXGXGXGXGXGXGXGXGXGXGXGXGXGXGXGXGXGXGXGXGXGXeXp.5 5 w.GXGXGXGXGXGXGXGXGXGXGXGXGXGXGXGXGXGXGXGXGXGXGXGXpX..5   HXHXHXHXHXHXHXHXHX",
"HXHXHXHXHXHXHXHXHXHXHX    7.7XGXGXGXGXGXGXGXGXGXGXGXGXGXGXGXGXGXGXGXGXGXGXGXjXS.8 s h.GXGXGXGXGXGXGXGXGXGXGXGXGXGXGXGXGXGXGXGXGXGXGXZXOXk     HXHXHXHXHXHXHXHXHX",
"HXHXHXHXHXHXHXHXHXHXHX    B S.NXGXGXGXGXGXGXGXGXGXGXGXGXGXGXGXGXGXGXGXGXGXGXjXS.8 r h.GXGXGXGXGXGXGXGXGXGXGXGXGXGXGXGXGXGXGXGXGXGXGX1X9.1   HXHXHXHXHXHXHXHXHXHX",
"HXHXHXHXHXHXHXHXHXHXHXHX  O ^ =XNXGXGXGXGXGXGXGXGXGXGXGXGXGXGXGXGXGXGXGXGXGXjXS.8 r h.GXGXGXGXGXGXGXGXGXGXGXGXGXGXGXGXGXGXGXGXGXGXjXx.q O   HXHXHXHXHXHXHXHXHXHX",
"HXHXHXHXHXHXHXHXHXHXHXHX    8 ;.5XGXGXGXGXGXGXGXGXGXGXGXGXGXGXGXGXGXGXGXGXGXxXD.8 r h.GXGXGXGXGXGXGXGXGXGXGXGXGXGXGXGXGXGXGXGXGXNXV.B     HXHXHXHXHXHXHXHXHXHXHX",
"HXHXHXHXHXHXHXHXHXHXHXHXHX    8 9.=XNXGXGXGXGXGXGXGXGXGXGXGXGXGXGXGXNXvXpXyX=Xp.5 q w.pXxXNXZXGXGXGXGXGXGXGXGXGXGXGXGXGXGXGXZXpXL.F O   HXHXHXHXHXHXHXHXHXHXHXHX",
"HXHXHXHXHXHXHXHXHXHXHXHXHXHX    = $.|.vXGXGXGXGXGXGXZXNXxXpXyXyX7X=X].I.V.g.1.E $ 5 ^ n.L.].=X5XeXyXpXjXvXZXGXGXGXGXGXGXGXZXeXV.k O     HXHXHXHXHXHXHXHXHXHXHXHX",
"HXHXHXHXHXHXHXHXHXHXHXHXHXHXHX    = E L.vXGXGXGXGXZXeX^.p...G c s r q 8 8 5 1 $ O O = 5 8 q r r k F | w.R.7XNXGXGXGXGXGXGX=X1.q O     HXHXHXHXHXHXHXHXHXHXHXHXHX",
"HXHXHXHXHXHXHXHXHXHXHXHXHXHXHXHX    $ F u.;XjX=Xx.,.~ B r =         $ 5 s c G E ^ L m d 8 =         = q c ~ ;.h.OXvXGXvXR...q     HXHXHXHXHXHXHXHXHXHXHXHXHXHXHX",
"HXHXHXHXHXHXHXHXHXHXHXHXHXHXHXHXHX      q $.p.$.d O   = r F ~ ^ #.;.7.u.h.S.I._._.R.S.x.p.9.;.#._ ~ F d 1     r | x.I.h.L 1     HXHXHXHXHXHXHXHXHXHXHXHXHXHXHXHX",
"HXHXHXHXHXHXHXHXHXHXHXHXHXHXHXHXHXHXHX    O O O 1 8 m ..g.].7XxXZXGXGXGXGXGXGXGXGXGXGXGXGXGXGXZXvXeX|.x.$.B r 1 O = 1 $       HXHXHXHXHXHXHXHXHXHXHXHXHXHXHXHXHX",
"HXHXHXHXHXHXHXHXHXHXHXHXHXHXHXHXHXHXHXHX    O s ,.R.7XpXxXNXGXGXGXGXGXGXGXGXGXGXGXGXGXGXGXGXGXGXGXZXNXxXpXeX_.7.c =       HXHXHXHXHXHXHXHXHXHXHXHXHXHXHXHXHXHXHX",
"HXHXHXHXHXHXHXHXHXHXHXHXHXHXHXHXHXHXHXHX    B L.1XNXGXGXGXZXpX7X=X|.^.L.V.h.w.7.1.w.g.n.L.^.|.=X7XpXZXGXGXGXZX5X_.L     HXHXHXHXHXHXHXHXHXHXHXHXHXHXHXHXHXHXHXHX",
"HXHXHXHXHXHXHXHXHXHXHXHXHXHXHXHXHXHXHXHX    ..ZXGXxX5XOXI.x.w.7.$._ E B k r 5 $ O 1 r k B L ^ #.1.w.x.I.|.1XjXGXGX;.    HXHXHXHXHXHXHXHXHXHXHXHXHXHXHXHXHXHXHXHX",
"HXHXHXHXHXHXHXHXHXHXHXHXHXHXHXHXHXHXHXHX    ^ 7X;XL.1.L 8 $ O $ = = 1 5 5 8 8 q q q 8 5 1 1 1 = $ O O 5 F ,.V.=XyX#.    HXHXHXHXHXHXHXHXHXHXHXHXHXHXHXHXHXHXHXHX",
"HXHXHXHXHXHXHXHXHXHXHXHXHXHXHXHXHXHXHXHX    d $.k 8 1 =   1 s B ~ ..,.w.h.S.R.|.|.^.D.x.u.,...^ F d 1   $ = 8 k #.c O   HXHXHXHXHXHXHXHXHXHXHXHXHXHXHXHXHXHXHXHX",
"HXHXHXHXHXHXHXHXHXHXHXHXHXHXHXHXHXHXHXHX    $ 5   1 m ..u.D._.|.+X=X5X7XyXjXvXZXZXvXjXyX7X5X;X+X|._.L.g.$.F 5   1 $     HXHXHXHXHXHXHXHXHXHXHXHXHXHXHXHXHXHXHXHX",
"HXHXHXHXHXHXHXHXHXHXHXHXHXHXHXHXHXHXHXHX    $ s ~ 7.D.+XjXGXGXGXGXGXGXGXGXGXGXNXNXZXGXGXGXGXGXGXGXGXGXvX;XI.w.^ c =     HXHXHXHXHXHXHXHXHXHXHXHXHXHXHXHXHXHXHXHX",
"HXHXHXHXHXHXHXHXHXHXHXHXHXHXHXHXHXHXHXHX    k g.5XNXGXGXNXvXxXjXjXpXyXyXeX5X+X_._.OX1XeXyXyXpXjXjXxXvXNXGXGXZXeXS.c     HXHXHXHXHXHXHXHXHXHXHXHXHXHXHXHXHXHXHXHX",
"HXHXHXHXHXHXHXHXHXHXHXHXHXHXHXHXHXHXHXHX    ^ yXNXGXGXNX;XI.h.w.,...~ B d r r q 8 q r d B E _ ;.9.g.D.=XvXGXGXZXxX#.    HXHXHXHXHXHXHXHXHXHXHXHXHXHXHXHXHXHXHXHX",
"HXHXHXHXHXHXHXHXHXHXHXHXHXHXHXHXHXHXHXHX    | vX;XL.u...E c s q 5 =         $ 1 5 $         = 1 8 s c L ..9.S.=XNX,.    HXHXHXHXHXHXHXHXHXHXHXHXHXHXHXHXHXHXHXHX",
"HXHXHXHXHXHXHXHXHXHXHXHXHXHXHXHXHXHXHXHX    B x.$.F 5     8 d m B L ~ _ ..$.7.w.w.7.;..._ ~ L F m d q O   1 m #.x.L     HXHXHXHXHXHXHXHXHXHXHXHXHXHXHXHXHXHXHXHX",
"HXHXHXHXHXHXHXHXHXHXHXHXHXHXHXHXHXHXHXHX    O 1 $ = 5 s E 1.n.I.].=X7XjXZXZXGXGXGXZXGXZXxXeX;X|.R.V.9.~ d q 1 $ $ $ O   HXHXHXHXHXHXHXHXHXHXHXHXHXHXHXHXHXHXHXHX",
"HXHXHXHXHXHXHXHXHXHXHXHXHXHXHXHXHXHXHXHX      $ r $.L.;XeXjXxXvXvXZXZXGXGXGXGXGXGXGXGXGXGXZXNXNXvXvXjXyX1XI.,.k $       HXHXHXHXHXHXHXHXHXHXHXHXHXHXHXHXHXHXHXHX",
"HXHXHXHXHXHXHXHXHXHXHXHXHXHXHXHXHXHXHXHX        5 _ D.7XGXGXGXGXGXGXGXGXGXGXGXGXGXGXGXGXGXGXGXGXGXGXGXGXyXR.#.8         HXHXHXHXHXHXHXHXHXHXHXHXHXHXHXHXHXHXHXHX",
"HXHXHXHXHXHXHXHXHXHXHXHXHXHXHXHXHXHXHXHXHX        s ~ 7.S.].=X5XyXjXvXZXGXGXGXGXGXGXGXGXGXvXjXyX7X;X|.D.u._ d O       HXHXHXHXHXHXHXHXHXHXHXHXHXHXHXHXHXHXHXHXHX",
"HXHXHXHXHXHXHXHXHXHXHXHXHXHXHXHXHXHXHXHXHXHXHX          $ m ..7.p.S.^.OX1XeXyXyXpXyXyX5X+X^.S.h.9.#.F 1           HXHXHXHXHXHXHXHXHXHXHXHXHXHXHXHXHXHXHXHXHXHXHX",
"HXHXHXHXHXHXHXHXHXHXHXHXHXHXHXHXHXHXHXHXHXHXHXHXHXHX      O 1 1 5 8 8 q r c G _ _ L c s q q 8 5 1 1 $       HXHXHXHXHXHXHXHXHXHXHXHXHXHXHXHXHXHXHXHXHXHXHXHXHXHX",
"HXHXHXHXHXHXHXHXHXHXHXHXHXHXHXHXHXHXHXHXHXHXHXHXHXHXHXHXHX                  $ = 1 $                   HXHXHXHXHXHXHXHXHXHXHXHXHXHXHXHXHXHXHXHXHXHXHXHXHXHXHXHXHX",
"HXHXHXHXHXHXHXHXHXHXHXHXHXHXHXHXHXHXHXHXHXHXHXHXHXHXHXHXHXHXHXHXHXHXHX                    HXHXHXHXHXHXHXHXHXHXHXHXHXHXHXHXHXHXHXHXHXHXHXHXHXHXHXHXHXHXHXHXHXHXHX",
"HXHXHXHXHXHXHXHXHXHXHXHXHXHXHXHXHXHXHXHXHXHXHXHXHXHXHXHXHXHXHXHXHXHXHXHXHXHXHXHXHXHXHXHXHXHXHXHXHXHXHXHXHXHXHXHXHXHXHXHXHXHXHXHXHXHXHXHXHXHXHXHXHXHXHXHXHXHXHXHX",
"HXHXHXHXHXHXHXHXHXHXHXHXHXHXHXHXHXHXHXHXHXHXHXHXHXHXHXHXHXHXHXHXHXHXHXHXHXHXHXHXHXHXHXHXHXHXHXHXHXHXHXHXHXHXHXHXHXHXHXHXHXHXHXHXHXHXHXHXHXHXHXHXHXHXHXHXHXHXHXHX",
"HXHXHXHXHXHXHXHXHXHXHXHXHXHXHXHXHXHXHXHXHXHXHXHXHXHXHXHXHXHXHXHXHXHXHXHXHXHXHXHXHXHXHXHXHXHXHXHXHXHXHXHXHXHXHXHXHXHXHXHXHXHXHXHXHXHXHXHXHXHXHXHXHXHXHXHXHXHXHXHX",
"HXHXHXHXHXHXHXHXHXHXHXHXHXHXHXHXHXHXHXHXHXHXHXHXHXHXHXHXHXHXHXHXHXHXHXHXHXHXHXHXHXHXHXHXHXHXHXHXHXHXHXHXHXHXHXHXHXHXHXHXHXHXHXHXHXHXHXHXHXHXHXHXHXHXHXHXHXHXHXHX",
"HXHXHXHXHXHXHXHXHXHXHXHXHXHXHXHXHXHXHXHXHXHXHXHXHXHXHXHXHXHXHXHXHXHXHXHXHXHXHXHXHXHXHXHXHXHXHXHXHXHXHXHXHXHXHXHXHXHXHXHXHXHXHXHXHXHXHXHXHXHXHXHXHXHXHXHXHXHXHXHX",
"HXHXHXHXHXHXHXHXHXHXHXHXHXHXHXHXHXHXHXHXHXHXHXHXHXHXHXHXHXHXHXHXHXHXHXHXHXHXHXHXHXHXHXHXHXHXHXHXHXHXHXHXHXHXHXHXHXHXHXHXHXHXHXHXHXHXHXHXHXHXHXHXHXHXHXHXHXHXHXHX",
"HXHXHXHXHXHXHXHXHXHXHXHXHXHXHXHXHXHXHXHXHXHXHXHXHXHXHXHXHXHXHXHXHXHXHXHXHXHXHXHXHXHXHXHXHXHXHXHXHXHXHXHXHXHXHXHXHXHXHXHXHXHXHXHXHXHXHXHXHXHXHXHXHXHXHXHXHXHXHXHX",
"HXHXHXHXHXHXHXHXHXHXHXHXHXHXHXHXHXHXHXHXHXHXHXHXHXHXHXHXHXHXHXHXHXHXHXHXHXHXHXHXHXHXHXHXHXHXHXHXHXHXHXHXHXHXHXHXHXHXHXHXHXHXHXHXHXHXHXHXHXHXHXHXHXHXHXHXHXHXHXHX",
"HXHXHXHXHXHXHXHXHXHXHXHXHXHXHXHXHXHXHXHXHXHXHXHXHXHXHXHXHXHXHXHXHXHXHXHXHXHXHXHXHXHXHXHXHXHXHXHXHXHXHXHXHXHXHXHXHXHXHXHXHXHXHXHXHXHXHXHXHXHXHXHXHXHXHXHXHXHXHXHX"
};
