/* XPM */
static char *xpm_[] = {
/* columns rows colors chars-per-pixel */
"80 80 163 2 ",
"   c black",
".  c #010101",
"X  c #020202",
"o  c gray1",
"O  c #040404",
"+  c gray2",
"@  c #070707",
"#  c gray3",
"$  c #090909",
"%  c gray4",
"&  c #0B0B0B",
"*  c #0C0C0C",
"=  c gray5",
"-  c #0E0E0E",
";  c gray6",
":  c #101010",
">  c #111111",
",  c gray7",
"<  c #151515",
"1  c #161616",
"2  c gray9",
"3  c #191919",
"4  c gray10",
"5  c #1B1B1B",
"6  c gray11",
"7  c #1D1D1D",
"8  c #1E1E1E",
"9  c gray12",
"0  c #202020",
"q  c gray13",
"w  c #222222",
"e  c #232323",
"r  c gray14",
"t  c gray15",
"y  c #272727",
"u  c #2A2A2A",
"i  c gray17",
"p  c #2D2D2D",
"a  c gray18",
"s  c #2F2F2F",
"d  c gray19",
"f  c #323232",
"g  c #353535",
"h  c gray21",
"j  c gray22",
"k  c #393939",
"l  c #3C3C3C",
"z  c #3E3E3E",
"x  c #414141",
"c  c #434343",
"v  c #484848",
"b  c #494949",
"n  c gray29",
"m  c #4B4B4B",
"M  c #4C4C4C",
"N  c #4E4E4E",
"B  c #505050",
"V  c gray32",
"C  c #555555",
"Z  c #565656",
"A  c #585858",
"S  c gray35",
"D  c #5A5A5A",
"F  c #5B5B5B",
"G  c gray36",
"H  c #5D5D5D",
"J  c gray37",
"K  c #5F5F5F",
"L  c #606060",
"P  c gray38",
"I  c #626262",
"U  c gray39",
"Y  c #646464",
"T  c #656565",
"R  c gray40",
"E  c #676767",
"W  c #686868",
"Q  c #6A6A6A",
"!  c gray42",
"~  c #6C6C6C",
"^  c #6D6D6D",
"/  c gray43",
"(  c #747474",
")  c gray46",
"_  c #7B7B7B",
"`  c gray49",
"'  c #7E7E7E",
"]  c #838383",
"[  c #848484",
"{  c gray53",
"}  c #888888",
"|  c #8B8B8B",
" . c gray55",
".. c #8D8D8D",
"X. c #8E8E8E",
"o. c gray56",
"O. c gray58",
"+. c gray59",
"@. c gray61",
"#. c gray62",
"$. c #A0A0A0",
"%. c #A2A2A2",
"&. c gray65",
"*. c #AAAAAA",
"=. c gray67",
"-. c #ACACAC",
";. c gray68",
":. c #AEAEAE",
">. c gray69",
",. c #B1B1B1",
"<. c gray70",
"1. c gray71",
"2. c #B7B7B7",
"3. c #B9B9B9",
"4. c gray73",
"5. c #BBBBBB",
"6. c gray74",
"7. c gray75",
"8. c #C0C0C0",
"9. c #C1C1C1",
"0. c gray76",
"q. c #C3C3C3",
"w. c gray78",
"e. c gray79",
"r. c #CACACA",
"t. c #CBCBCB",
"y. c gray80",
"u. c #CDCDCD",
"i. c #CECECE",
"p. c gray81",
"a. c #D0D0D0",
"s. c gray82",
"d. c #D2D2D2",
"f. c #DADADA",
"g. c gray86",
"h. c gainsboro",
"j. c #DDDDDD",
"k. c gray87",
"l. c gray88",
"z. c #E1E1E1",
"x. c #E2E2E2",
"c. c #E4E4E4",
"v. c gray90",
"b. c #E6E6E6",
"n. c #E7E7E7",
"m. c gray91",
"M. c #E9E9E9",
"N. c #EAEAEA",
"B. c gray92",
"V. c gray93",
"C. c #EEEEEE",
"Z. c #F1F1F1",
"A. c gray95",
"S. c #F4F4F4",
"D. c gray96",
"F. c #F6F6F6",
"G. c gray97",
"H. c #F8F8F8",
"J. c #FBFBFB",
"K. c #FDFDFD",
"L. c #FEFEFE",
"P. c white",
"I. c None",
/* pixels */
"I.I.I.I.I.I.I.I.I.I.I.I.I.I.I.I.I.I.I.I.I.I.I.I.I.I.I.I.I.I.I.I.I.I.I.I.I.I.I.I.I.I.I.I.I.I.I.I.I.I.I.I.I.I.I.I.I.I.I.I.I.I.I.I.I.I.I.I.I.I.I.I.I.I.I.I.I.I.I.I.",
"I.I.I.I.I.I.I.I.I.I.I.I.I.I.I.I.I.I.I.I.I.I.I.I.I.I.I.I.I.I.I.I.I.I.I.I.I.I.I.I.I.I.I.I.I.I.I.I.I.I.I.I.I.I.I.I.I.I.I.I.I.I.I.I.I.I.I.I.I.I.I.I.I.I.I.I.I.I.I.I.",
"I.I.I.I.I.I.I.I.I.I.I.I.I.I.I.I.I.I.I.I.I.I.I.I.I.I.I.I.I.I.I.I.I.I.I.I.I.I.I.I.I.I.I.I.I.I.I.I.I.I.I.I.I.I.I.I.I.I.I.I.I.I.I.I.I.I.I.I.I.I.I.I.I.I.I.I.I.I.I.I.",
"I.I.I.I.I.I.I.I.I.I.I.I.I.I.I.I.I.I.I.I.I.I.I.I.I.I.I.I.I.I.I.I.I.I.I.I.I.I.I.I.I.I.I.I.I.I.I.I.I.I.I.I.I.I.I.I.I.I.I.I.I.I.I.I.I.I.I.I.I.I.I.I.I.I.I.I.I.I.I.I.",
"I.I.I.I.I.I.I.I.I.I.I.I.I.I.I.I.I.I.I.I.I.I.I.I.I.I.I.I.I.I.I.I.I.I.I.I.I.I.I.I.I.I.I.I.I.I.I.I.I.I.I.I.I.I.I.I.I.I.I.I.I.I.I.I.I.I.I.I.I.I.I.I.I.I.I.I.I.I.I.I.",
"I.I.I.I.I.I.I.I.I.I.I.I.I.I.I.I.I.I.I.I.I.I.I.I.I.I.I.I.I.I.I.I.I.I.I.I.I.I.I.I.I.I.I.I.I.I.I.I.I.I.I.I.I.I.I.I.I.I.I.I.I.I.I.I.I.I.I.I.I.I.I.I.I.I.I.I.I.I.I.I.",
"I.I.I.I.I.I.I.I.I.I.I.I.I.I.I.I.I.I.I.I.I.I.I.I.I.I.I.I.I.I.I.I.I.I.I.I.I.I.I.I.I.I.I.I.I.I.I.I.I.I.I.I.I.I.I.I.I.I.I.I.I.I.I.I.I.I.I.I.I.I.I.I.I.I.I.I.I.I.I.I.",
"I.I.I.I.I.I.I.I.I.I.I.I.I.I.I.I.I.I.I.I.I.I.I.I.I.I.I.I.I.I.I.I.I.I.I.I.I.I.I.I.I.I.I.I.I.I.I.I.I.I.I.I.I.I.I.I.I.I.I.I.I.I.I.I.I.I.I.I.I.I.I.I.I.I.I.I.I.I.I.I.",
"I.I.I.I.I.I.I.I.I.I.I.I.I.I.I.I.I.I.I.I.I.I.I.I.I.I.I.I.I.I.I.I.I.I.I.I.I.I.I.I.I.I.I.I.I.I.I.I.I.I.I.I.I.I.I.I.I.I.I.I.I.I.I.I.I.I.I.I.I.I.I.I.I.I.I.I.I.I.I.I.",
"I.I.I.I.I.I.I.I.I.I.I.I.I.I.I.I.I.I.I.I.I.I.I.I.I.I.I.I.I.I.I.I.I.I.I.I.I.I.I.I.I.I.I.I.I.I.I.I.I.I.I.I.I.I.I.I.I.I.I.I.I.I.I.I.I.I.I.I.I.I.I.I.I.I.I.I.I.I.I.I.",
"I.I.I.I.I.I.I.I.I.I.I.I.I.I.I.I.I.I.I.I.I.I.I.I.I.I.I.I.I.I.I.I.I.I.I.I.I.I.I.I.I.I.I.I.I.I.I.I.I.I.I.I.I.I.I.I.I.I.I.I.I.I.I.I.I.I.I.I.I.I.I.I.I.I.I.I.I.I.I.I.",
"I.I.I.I.I.I.I.I.I.I.I.I.I.I.I.I.I.I.I.I.I.I.I.I.I.I.I.I.I.I.I.I.I.I.I.I.I.I.I.I.I.I.I.I.I.I.I.I.I.I.I.I.I.I.I.I.I.I.I.I.I.I.I.I.I.I.I.I.I.I.I.I.I.I.I.I.I.I.I.I.",
"I.I.I.I.I.I.I.I.I.I.I.I.I.I.I.I.I.I.I.I.I.I.I.I.I.I.I.I.I.I.I.I.I.I.I.I.I.I.I.I.I.I.I.I.I.I.I.I.I.I.I.I.I.I.I.I.I.I.I.I.I.I.I.I.I.I.I.I.I.I.I.I.I.I.I.I.I.I.I.I.",
"I.I.I.I.I.I.I.I.I.I.I.I.I.I.I.I.I.I.I.I.I.              I.I.I.I.I.I.I.I.I.                  I.I.I.I.I.I.I.I.I.              I.I.I.I.I.I.I.I.I.I.I.I.I.I.I.I.I.I.",
"I.I.I.I.I.I.I.I.I.I.I.I.I.I.I.I.I.I.I.I.                  I.I.I.I.I.I.I.                      I.I.I.I.I.I.I.                  I.I.I.I.I.I.I.I.I.I.I.I.I.I.I.I.I.",
"I.I.I.I.I.I.I.I.I.I.I.I.I.I.I.I.I.I.I.I.  + : q q t 3     I.I.I.I.I.I.I.  + : t q q t 6 : +   I.I.I.I.I.I.    + 6 q t q : +   I.I.I.I.I.I.I.I.I.I.I.I.I.I.I.I.I.",
"I.I.I.I.I.I.I.I.I.I.I.I.I.I.I.I.I.I.I.I.  6 ) h.h.b.O.:     I.I.I.I.I.    6 ) g.h.h.l.e.~ 6     I.I.I.I.I.    3 ;.g.l.e.! 6   I.I.I.I.I.I.I.I.I.I.I.I.I.I.I.I.I.",
"I.I.I.I.I.I.I.I.I.I.I.I.I.I.I.I.I.I.I.I.  q | P.P.P.>.3                   t  .P.P.P.P.Z.[ q                   q d.P.P.Z.` q   I.I.I.I.I.I.I.I.I.I.I.I.I.I.I.I.I.",
"I.I.I.I.I.I.I.I.I.I.I.I.I.I.I.I.I.I.I.I.  q | P.P.P.e.P i 3 3 3 3 6 6 6 6 H 2.P.P.P.P.D.>.B 6 6 6 3 3 6 6 3 t P h.P.P.V.` q   I.I.I.I.I.I.I.I.I.I.I.I.I.I.I.I.I.",
"I.I.I.I.I.I.I.I.I.I.I.I.I.I.I.I.I.I.I.I.  q [ P.P.P.D.y.` ! ~ ( ( ~ ~ ~ ) 0.H.P.P.P.P.P.H.;.) ~ ~ ~ ( ~ ~ !  .e.H.P.P.N.` q   I.I.I.I.I.I.I.I.I.I.I.I.I.I.I.I.I.",
"I.I.I.I.I.I.I.I.I.I.I.I.I.I.I.I.I.I.I.I.  q [ P.P.P.P.H.N.N.b.N.b.N.b.N.N.D.P.P.P.P.P.P.P.Z.N.b.N.b.b.N.b.N.N.D.P.P.P.N._ q   I.I.I.I.I.I.I.I.I.I.I.I.I.I.I.I.I.",
"I.I.I.I.I.I.I.I.I.I.I.I.I.I.I.I.I.I.I.I.  3 ~ y.y.y.y.y.d.d.d.d.d.d.d.d.d.y.y.y.y.y.y.y.y.d.d.d.d.d.d.d.d.d.d.d.y.y.y.7.P 3   I.I.I.I.I.I.I.I.I.I.I.I.I.I.I.I.I.",
"I.I.I.I.I.I.I.I.I.I.I.I.I.I.I.I.I.I.I.I.  ; h R P R R P P R R P R P P R P R R P R P R R R P P R R P R R P P R P R P R H s ;   I.I.I.I.I.I.I.I.I.I.I.I.I.I.I.I.I.",
"I.I.I.I.I.I.I.I.I.I.I.I.I.I.I.I.I.I.I.I.        & & ; & & ; & ; & & ; & ; & & ; & & ; & & & ; ; & ; & & ; & ; & & ; & +       I.I.I.I.I.I.I.I.I.I.I.I.I.I.I.I.I.",
"I.I.I.I.I.I.I.I.I.I.I.I.I.I.I.I.I.I.I.I.      : j b M b b M M b b M b b M b M b b M M b M M b b M b M b M b M b b b f ;       I.I.I.I.I.I.I.I.I.I.I.I.I.I.I.I.I.",
"I.I.I.I.I.I.I.I.I.I.I.I.I.I.I.I.I.I.I.I.I.    & i [ 7.e.w.w.w.w.w.w.w.w.e.w.w.e.w.w.w.w.w.w.w.w.w.w.e.w.w.w.e.w.0.) i +     I.I.I.I.I.I.I.I.I.I.I.I.I.I.I.I.I.I.",
"I.I.I.I.I.I.I.I.I.I.I.I.I.I.I.I.I.I.I.I.I.I.    ; R 5.b.b.b.N.b.b.b.b.b.b.b.b.N.b.b.b.b.b.b.b.b.b.N.b.b.b.N.N.l.5.Z :     I.I.I.I.I.I.I.I.I.I.I.I.I.I.I.I.I.I.I.",
"I.I.I.I.I.I.I.I.I.I.I.I.I.I.I.I.I.I.I.I.I.I.I.    ; b +.@.@.@.#.#.#.#.@.#.@.@.@.@.@.#.#.#.#.#.@.@.@.@.@.@.@.#. .x ;     I.I.I.I.I.I.I.I.I.I.I.I.I.I.I.I.I.I.I.I.",
"I.I.I.I.I.I.I.I.I.I.I.I.I.I.I.I.I.I.I.I.I.I.I.I.  & t B P R P P P P P P P P R P P P R P P P P P P P R P P R H M q &   I.I.I.I.I.I.I.I.I.I.I.I.I.I.I.I.I.I.I.I.I.",
"I.I.I.I.I.I.I.I.I.I.I.I.I.I.I.I.I.I.I.I.I.I.I.I.I.  2 M ;.0.0.7.0.0.0.0.0.7.7.0.7.0.0.7.0.0.0.0.0.7.7.0.0.0.#.M :   I.I.I.I.I.I.I.I.I.I.I.I.I.I.I.I.I.I.I.I.I.I.",
"I.I.I.I.I.I.I.I.I.I.I.I.I.I.I.I.I.I.I.I.I.I.I.I.I.  : F N.P.P.P.P.P.P.P.P.P.P.P.P.P.P.P.P.P.P.P.P.P.P.P.P.P.y.F ;   I.I.I.I.I.I.I.I.I.I.I.I.I.I.I.I.I.I.I.I.I.I.",
"I.I.I.I.I.I.I.I.I.I.I.I.I.I.I.I.I.I.I.I.I.I.I.I.I.  : F b.P.P.P.P.P.P.P.P.P.P.P.P.P.P.P.P.P.P.P.P.P.P.P.P.P.e.F ;   I.I.I.I.I.I.I.I.I.I.I.I.I.I.I.I.I.I.I.I.I.I.",
"I.I.I.I.I.I.I.I.I.I.I.I.I.I.I.I.I.I.I.I.I.I.I.I.I.  : F b.P.P.P.P.P.P.P.P.P.P.P.P.P.P.P.P.P.P.P.P.P.P.P.P.P.e.F ;   I.I.I.I.I.I.I.I.I.I.I.I.I.I.I.I.I.I.I.I.I.I.",
"I.I.I.I.I.I.I.I.I.I.I.I.I.I.I.I.I.I.I.I.I.I.I.I.I.  : F b.P.P.P.P.P.P.P.P.P.P.P.P.P.P.P.P.P.P.P.P.P.P.P.P.P.e.F ;   I.I.I.I.I.I.I.I.I.I.I.I.I.I.I.I.I.I.I.I.I.I.",
"I.I.I.I.I.I.I.I.I.I.I.I.I.I.I.I.I.I.I.I.I.I.I.I.I.  : F b.P.P.P.P.P.P.P.P.P.P.P.P.P.P.P.P.P.P.P.P.P.P.P.P.P.e.F ;   I.I.I.I.I.I.I.I.I.I.I.I.I.I.I.I.I.I.I.I.I.I.",
"I.I.I.I.I.I.I.I.I.I.I.I.I.I.I.I.I.I.I.I.I.I.I.I.I.  : F l.P.P.P.P.P.P.P.P.P.P.P.P.P.P.P.P.P.P.P.P.P.P.P.P.P.e.F &   I.I.I.I.I.I.I.I.I.I.I.I.I.I.I.I.I.I.I.I.I.I.",
"I.I.I.I.I.I.I.I.I.I.I.I.I.I.I.I.I.I.I.I.I.I.I.I.I.  : F l.P.P.P.P.P.P.P.P.P.P.P.P.P.P.P.P.P.P.P.P.P.P.P.P.P.e.F ;   I.I.I.I.I.I.I.I.I.I.I.I.I.I.I.I.I.I.I.I.I.I.",
"I.I.I.I.I.I.I.I.I.I.I.I.I.I.I.I.I.I.I.I.I.I.I.I.I.  : F b.P.P.P.P.P.P.P.P.P.P.P.P.P.P.P.P.P.P.P.P.P.P.P.P.P.e.F ;   I.I.I.I.I.I.I.I.I.I.I.I.I.I.I.I.I.I.I.I.I.I.",
"I.I.I.I.I.I.I.I.I.I.I.I.I.I.I.I.I.I.I.I.I.I.I.I.I.  : F b.P.P.P.P.P.P.P.P.P.P.P.P.P.P.P.P.P.P.P.P.P.P.P.P.P.e.F &   I.I.I.I.I.I.I.I.I.I.I.I.I.I.I.I.I.I.I.I.I.I.",
"I.I.I.I.I.I.I.I.I.I.I.I.I.I.I.I.I.I.I.I.I.I.I.I.I.  : F b.P.P.P.P.P.P.P.P.P.P.P.P.P.P.P.P.P.P.P.P.P.P.P.P.P.e.F ;   I.I.I.I.I.I.I.I.I.I.I.I.I.I.I.I.I.I.I.I.I.I.",
"I.I.I.I.I.I.I.I.I.I.I.I.I.I.I.I.I.I.I.I.I.I.I.I.I.  : F b.P.P.P.P.P.P.P.P.P.P.P.P.P.P.P.P.P.P.P.P.P.P.P.P.P.e.F ;   I.I.I.I.I.I.I.I.I.I.I.I.I.I.I.I.I.I.I.I.I.I.",
"I.I.I.I.I.I.I.I.I.I.I.I.I.I.I.I.I.I.I.I.I.I.I.I.I.  : F b.P.P.P.P.P.P.P.P.P.P.P.P.P.P.P.P.P.P.P.P.P.P.P.P.P.e.F ;   I.I.I.I.I.I.I.I.I.I.I.I.I.I.I.I.I.I.I.I.I.I.",
"I.I.I.I.I.I.I.I.I.I.I.I.I.I.I.I.I.I.I.I.I.I.I.I.I.  : F b.P.P.P.P.P.P.P.P.P.P.P.P.P.P.P.P.P.P.P.P.P.P.P.P.P.e.F &   I.I.I.I.I.I.I.I.I.I.I.I.I.I.I.I.I.I.I.I.I.I.",
"I.I.I.I.I.I.I.I.I.I.I.I.I.I.I.I.I.I.I.I.I.I.I.I.I.  : F l.P.P.P.P.P.P.P.P.P.P.P.P.P.P.P.P.P.P.P.P.P.P.P.P.P.e.F ;   I.I.I.I.I.I.I.I.I.I.I.I.I.I.I.I.I.I.I.I.I.I.",
"I.I.I.I.I.I.I.I.I.I.I.I.I.I.I.I.I.I.I.I.I.I.I.I.I.  : F l.P.P.P.P.P.P.P.P.P.P.P.P.P.P.P.P.P.P.P.P.P.P.P.P.P.e.F ;   I.I.I.I.I.I.I.I.I.I.I.I.I.I.I.I.I.I.I.I.I.I.",
"I.I.I.I.I.I.I.I.I.I.I.I.I.I.I.I.I.I.I.I.I.I.I.I.I.  : F b.P.P.P.P.P.P.P.P.P.P.P.P.P.P.P.P.P.P.P.P.P.P.P.P.P.e.F ;   I.I.I.I.I.I.I.I.I.I.I.I.I.I.I.I.I.I.I.I.I.I.",
"I.I.I.I.I.I.I.I.I.I.I.I.I.I.I.I.I.I.I.I.I.I.I.I.I.  : F b.P.P.P.P.P.P.P.P.P.P.P.P.P.P.P.P.P.P.P.P.P.P.P.P.P.e.F &   I.I.I.I.I.I.I.I.I.I.I.I.I.I.I.I.I.I.I.I.I.I.",
"I.I.I.I.I.I.I.I.I.I.I.I.I.I.I.I.I.I.I.I.I.I.I.I.I.  : F b.P.P.P.P.P.P.P.P.P.P.P.P.P.P.P.P.P.P.P.P.P.P.P.P.P.e.F ;   I.I.I.I.I.I.I.I.I.I.I.I.I.I.I.I.I.I.I.I.I.I.",
"I.I.I.I.I.I.I.I.I.I.I.I.I.I.I.I.I.I.I.I.I.I.I.I.I.  : F b.P.P.P.P.P.H.P.P.P.H.P.P.P.P.P.P.P.P.P.P.P.P.P.P.P.e.F &   I.I.I.I.I.I.I.I.I.I.I.I.I.I.I.I.I.I.I.I.I.I.",
"I.I.I.I.I.I.I.I.I.I.I.I.I.I.I.I.I.I.I.I.I.I.I.I.I.  + s _ O.| |  . . .|  . . .| | | | | | | | | | | | |  . .~ s +   I.I.I.I.I.I.I.I.I.I.I.I.I.I.I.I.I.I.I.I.I.I.",
"I.I.I.I.I.I.I.I.I.I.I.I.I.I.I.I.I.I.I.I.I.I.I.I.I.  & t H ~ ! ! ! ! ! ! ! ! ! ! ! ! ! ! ! R ! ! ! ! ! ! ! ! Z i +   I.I.I.I.I.I.I.I.I.I.I.I.I.I.I.I.I.I.I.I.I.I.",
"I.I.I.I.I.I.I.I.I.I.I.I.I.I.I.I.I.I.I.I.I.I.I.I.    6 P =.7.5.5.5.5.5.5.5.5.5.7.5.5.5.5.5.5.5.7.5.5.5.5.5.7.$.H :     I.I.I.I.I.I.I.I.I.I.I.I.I.I.I.I.I.I.I.I.I.",
"I.I.I.I.I.I.I.I.I.I.I.I.I.I.I.I.I.I.I.I.I.I.I.I.    x 0.V.D.D.D.Z.D.D.Z.D.D.D.Z.Z.Z.D.D.Z.D.D.Z.Z.Z.D.D.D.D.V.7.i     I.I.I.I.I.I.I.I.I.I.I.I.I.I.I.I.I.I.I.I.I.",
"I.I.I.I.I.I.I.I.I.I.I.I.I.I.I.I.I.I.I.I.I.I.I.    : F 0.y.d.y.d.y.d.y.d.y.d.y.d.y.d.d.y.d.y.y.d.d.y.y.d.d.y.y.2.M :     I.I.I.I.I.I.I.I.I.I.I.I.I.I.I.I.I.I.I.I.",
"I.I.I.I.I.I.I.I.I.I.I.I.I.I.I.I.I.I.I.I.I.I.      : l R R R R R R R R R R R R R R R R R ! R R R R R R R R R ! P j :     I.I.I.I.I.I.I.I.I.I.I.I.I.I.I.I.I.I.I.I.",
"I.I.I.I.I.I.I.I.I.I.I.I.I.I.I.I.I.I.I.I.I.I.      + + + + +   +   + + + + +   + + + +     + + + + +   +   +   + +         I.I.I.I.I.I.I.I.I.I.I.I.I.I.I.I.I.I.I.",
"I.I.I.I.I.I.I.I.I.I.I.I.I.I.I.I.I.I.I.I.I.      2 3 6 3 3 3 3 3 3 6 3 3 3 6 3 3 3 3 3 3 3 6 3 3 6 3 3 3 3 3 3 3 6 6 :     I.I.I.I.I.I.I.I.I.I.I.I.I.I.I.I.I.I.I.",
"I.I.I.I.I.I.I.I.I.I.I.I.I.I.I.I.I.I.I.I.I.    2 | ;.;.;.;.;.;.=.;.;.;.;.;.;.;.;.;.=.;.;.;.;.;.;.;.;.;.;.;.;.;.=.;.2.( ;   I.I.I.I.I.I.I.I.I.I.I.I.I.I.I.I.I.I.I.",
"I.I.I.I.I.I.I.I.I.I.I.I.I.I.I.I.I.I.I.I.I.    q y.P.P.P.P.P.P.P.P.P.P.P.P.P.P.P.P.P.P.P.P.P.P.P.P.P.P.P.P.P.P.P.P.P.;.2   I.I.I.I.I.I.I.I.I.I.I.I.I.I.I.I.I.I.I.",
"I.I.I.I.I.I.I.I.I.I.I.I.I.I.I.I.I.I.I.I.I.    6 w.P.P.P.P.P.P.P.P.P.P.P.P.P.P.P.P.P.P.P.P.P.P.P.P.P.P.P.P.P.P.P.P.P.=.2 + I.I.I.I.I.I.I.I.I.I.I.I.I.I.I.I.I.I.I.",
"I.I.I.I.I.I.I.I.I.I.I.I.I.I.I.I.I.I.I.I.I.    6 w.H.P.P.P.P.P.P.P.P.P.P.P.P.P.P.P.P.P.P.P.P.P.P.P.P.P.P.P.P.P.P.P.P.=.2   I.I.I.I.I.I.I.I.I.I.I.I.I.I.I.I.I.I.I.",
"I.I.I.I.I.I.I.I.I.I.I.I.I.I.I.I.I.I.          ; b F H H H H H H F H H H H H H F H H H H F H H H H H H F H H H H H H l &           I.I.I.I.I.I.I.I.I.I.I.I.I.I.I.",
"I.I.I.I.I.I.I.I.I.I.I.I.I.I.I.I.                                                                                                    I.I.I.I.I.I.I.I.I.I.I.I.I.I.",
"I.I.I.I.I.I.I.I.I.I.I.I.I.I.I.I.    ; q q q q q q t q q q t q q q q q t q q q q q t q q q q q t q q q q q t q q q q q q t q q q &     I.I.I.I.I.I.I.I.I.I.I.I.I.",
"I.I.I.I.I.I.I.I.I.I.I.I.I.I.I.I.    b e.g.h.h.h.h.h.h.h.h.h.h.h.h.h.h.h.h.h.h.h.h.h.h.h.h.h.h.h.h.h.h.h.h.h.h.h.h.h.h.h.h.h.l.0.f     I.I.I.I.I.I.I.I.I.I.I.I.I.",
"I.I.I.I.I.I.I.I.I.I.I.I.I.I.I.I.    F H.P.P.P.P.P.P.P.P.P.P.P.P.P.P.P.P.P.P.P.P.P.P.P.P.P.P.P.P.P.P.P.P.P.P.P.P.P.P.P.P.P.P.P.Z.j     I.I.I.I.I.I.I.I.I.I.I.I.I.",
"I.I.I.I.I.I.I.I.I.I.I.I.I.I.I.I.    h O.$.$.%.$.$.%.%.$.%.$.$.%.%.%.%.%.$.%.%.$.%.$.$.%.%.%.%.%.$.%.%.$.%.$.$.%.%.%.%.%.$.%.=. .t     I.I.I.I.I.I.I.I.I.I.I.I.I.",
"I.I.I.I.I.I.I.I.I.I.I.I.I.I.I.I.        +           +     +         +       +     +         +       +     +         +                 I.I.I.I.I.I.I.I.I.I.I.I.I.",
"I.I.I.I.I.I.I.I.I.I.I.I.I.I.I.I.I.                                                                                                  I.I.I.I.I.I.I.I.I.I.I.I.I.I.",
"I.I.I.I.I.I.I.I.I.I.I.I.I.I.I.I.I.I.I.I.I.I.I.I.I.I.I.I.I.I.I.I.I.I.I.I.I.I.I.I.I.I.I.I.I.I.I.I.I.I.I.I.I.I.I.I.I.I.I.I.I.I.I.I.I.I.I.I.I.I.I.I.I.I.I.I.I.I.I.I.",
"I.I.I.I.I.I.I.I.I.I.I.I.I.I.I.I.I.I.I.I.I.I.I.I.I.I.I.I.I.I.I.I.I.I.I.I.I.I.I.I.I.I.I.I.I.I.I.I.I.I.I.I.I.I.I.I.I.I.I.I.I.I.I.I.I.I.I.I.I.I.I.I.I.I.I.I.I.I.I.I.",
"I.I.I.I.I.I.I.I.I.I.I.I.I.I.I.I.I.I.I.I.I.I.I.I.I.I.I.I.I.I.I.I.I.I.I.I.I.I.I.I.I.I.I.I.I.I.I.I.I.I.I.I.I.I.I.I.I.I.I.I.I.I.I.I.I.I.I.I.I.I.I.I.I.I.I.I.I.I.I.I.",
"I.I.I.I.I.I.I.I.I.I.I.I.I.I.I.I.I.I.I.I.I.I.I.I.I.I.I.I.I.I.I.I.I.I.I.I.I.I.I.I.I.I.I.I.I.I.I.I.I.I.I.I.I.I.I.I.I.I.I.I.I.I.I.I.I.I.I.I.I.I.I.I.I.I.I.I.I.I.I.I.",
"I.I.I.I.I.I.I.I.I.I.I.I.I.I.I.I.I.I.I.I.I.I.I.I.I.I.I.I.I.I.I.I.I.I.I.I.I.I.I.I.I.I.I.I.I.I.I.I.I.I.I.I.I.I.I.I.I.I.I.I.I.I.I.I.I.I.I.I.I.I.I.I.I.I.I.I.I.I.I.I.",
"I.I.I.I.I.I.I.I.I.I.I.I.I.I.I.I.I.I.I.I.I.I.I.I.I.I.I.I.I.I.I.I.I.I.I.I.I.I.I.I.I.I.I.I.I.I.I.I.I.I.I.I.I.I.I.I.I.I.I.I.I.I.I.I.I.I.I.I.I.I.I.I.I.I.I.I.I.I.I.I.",
"I.I.I.I.I.I.I.I.I.I.I.I.I.I.I.I.I.I.I.I.I.I.I.I.I.I.I.I.I.I.I.I.I.I.I.I.I.I.I.I.I.I.I.I.I.I.I.I.I.I.I.I.I.I.I.I.I.I.I.I.I.I.I.I.I.I.I.I.I.I.I.I.I.I.I.I.I.I.I.I.",
"I.I.I.I.I.I.I.I.I.I.I.I.I.I.I.I.I.I.I.I.I.I.I.I.I.I.I.I.I.I.I.I.I.I.I.I.I.I.I.I.I.I.I.I.I.I.I.I.I.I.I.I.I.I.I.I.I.I.I.I.I.I.I.I.I.I.I.I.I.I.I.I.I.I.I.I.I.I.I.I.",
"I.I.I.I.I.I.I.I.I.I.I.I.I.I.I.I.I.I.I.I.I.I.I.I.I.I.I.I.I.I.I.I.I.I.I.I.I.I.I.I.I.I.I.I.I.I.I.I.I.I.I.I.I.I.I.I.I.I.I.I.I.I.I.I.I.I.I.I.I.I.I.I.I.I.I.I.I.I.I.I.",
"I.I.I.I.I.I.I.I.I.I.I.I.I.I.I.I.I.I.I.I.I.I.I.I.I.I.I.I.I.I.I.I.I.I.I.I.I.I.I.I.I.I.I.I.I.I.I.I.I.I.I.I.I.I.I.I.I.I.I.I.I.I.I.I.I.I.I.I.I.I.I.I.I.I.I.I.I.I.I.I.",
"I.I.I.I.I.I.I.I.I.I.I.I.I.I.I.I.I.I.I.I.I.I.I.I.I.I.I.I.I.I.I.I.I.I.I.I.I.I.I.I.I.I.I.I.I.I.I.I.I.I.I.I.I.I.I.I.I.I.I.I.I.I.I.I.I.I.I.I.I.I.I.I.I.I.I.I.I.I.I.I."
};
