/* XPM */
static char *xpm_[] = {
/* columns rows colors chars-per-pixel */
"80 80 186 2 ",
"   c black",
".  c #010101",
"X  c #020202",
"o  c gray1",
"O  c #040404",
"+  c gray2",
"@  c #060606",
"#  c #070707",
"$  c gray3",
"%  c #090909",
"&  c gray4",
"*  c #0C0C0C",
"=  c gray5",
"-  c #0E0E0E",
";  c gray6",
":  c #101010",
">  c #111111",
",  c gray7",
"<  c #131313",
"1  c gray8",
"2  c #151515",
"3  c #161616",
"4  c gray9",
"5  c #181818",
"6  c #191919",
"7  c gray10",
"8  c #1B1B1B",
"9  c gray11",
"0  c #1E1E1E",
"q  c gray13",
"w  c #222222",
"e  c #232323",
"r  c gray15",
"t  c #272727",
"y  c gray16",
"u  c #2D2D2D",
"i  c gray18",
"p  c #2F2F2F",
"a  c gray19",
"s  c #323232",
"d  c gray20",
"f  c #343434",
"g  c #353535",
"h  c #373737",
"j  c gray22",
"k  c #393939",
"l  c #3A3A3A",
"z  c gray23",
"x  c #3C3C3C",
"c  c gray24",
"v  c #444444",
"b  c gray27",
"n  c #464646",
"m  c gray28",
"M  c #484848",
"N  c #494949",
"B  c gray29",
"V  c #4C4C4C",
"C  c gray30",
"Z  c #4E4E4E",
"A  c gray31",
"S  c #505050",
"D  c #515151",
"F  c #535353",
"G  c gray33",
"H  c #555555",
"J  c #565656",
"K  c gray34",
"L  c #585858",
"P  c #5A5A5A",
"I  c gray36",
"U  c gray37",
"Y  c #5F5F5F",
"T  c #606060",
"R  c gray38",
"E  c #626262",
"W  c gray40",
"Q  c #676767",
"!  c #686868",
"~  c #6A6A6A",
"^  c gray44",
"/  c #727272",
"(  c gray46",
")  c #767676",
"_  c #777777",
"`  c gray47",
"'  c #797979",
"]  c gray48",
"[  c #7B7B7B",
"{  c gray49",
"}  c #7E7E7E",
"|  c gray50",
" . c #808080",
".. c #818181",
"X. c gray51",
"o. c #838383",
"O. c #848484",
"+. c gray52",
"@. c #868686",
"#. c gray53",
"$. c #898989",
"%. c gray54",
"&. c #8B8B8B",
"*. c #8D8D8D",
"=. c #8E8E8E",
"-. c gray56",
";. c #909090",
":. c gray57",
">. c #929292",
",. c #939393",
"<. c gray58",
"1. c gray59",
"2. c gray60",
"3. c #9B9B9B",
"4. c #9F9F9F",
"5. c #A0A0A0",
"6. c gray63",
"7. c #A4A4A4",
"8. c #A5A5A5",
"9. c gray65",
"0. c gray66",
"q. c #AAAAAA",
"w. c gray68",
"e. c #AFAFAF",
"r. c #B2B2B2",
"t. c gray70",
"y. c #B4B4B4",
"u. c gray71",
"i. c #B6B6B6",
"p. c #B7B7B7",
"a. c gray72",
"s. c #B9B9B9",
"d. c gray73",
"f. c #BBBBBB",
"g. c #BCBCBC",
"h. c gray74",
"j. c gray75",
"k. c #C0C0C0",
"l. c #C1C1C1",
"z. c gray76",
"x. c gray77",
"c. c #C5C5C5",
"v. c gray79",
"b. c #CACACA",
"n. c #CBCBCB",
"m. c gray80",
"M. c #CDCDCD",
"N. c #CECECE",
"B. c gray81",
"V. c #D0D0D0",
"C. c gray85",
"Z. c #DADADA",
"A. c gray86",
"S. c gainsboro",
"D. c #DDDDDD",
"F. c #DFDFDF",
"G. c #E1E1E1",
"H. c #E2E2E2",
"J. c gray89",
"K. c #E4E4E4",
"L. c gray90",
"P. c #E6E6E6",
"I. c gray91",
"U. c #E9E9E9",
"Y. c #EAEAEA",
"T. c gray92",
"R. c #ECECEC",
"E. c gray93",
"W. c #EEEEEE",
"Q. c #EFEFEF",
"!. c #F1F1F1",
"~. c gray95",
"^. c #F3F3F3",
"/. c #F4F4F4",
"(. c gray96",
"). c #F6F6F6",
"_. c gray97",
"`. c #F8F8F8",
"'. c #F9F9F9",
"]. c gray98",
"[. c #FBFBFB",
"{. c gray99",
"}. c #FDFDFD",
"|. c #FEFEFE",
" X c white",
".X c white",
/* pixels */
".X.X.X.X.X.X.X.X.X.X.X.X.X.X.X.X.X.X.X.X.X.X.X.X.X.X.X.X.X.X.X.X.X.X.X.X.X.X.X.X.X.X.X.X.X.X.X.X.X.X.X.X.X.X.X.X.X.X.X.X.X.X.X.X.X.X.X.X.X.X.X.X.X.X.X.X.X.X.X.X",
".X.X.X.X.X.X.X.X.X.X.X.X.X.X.X.X.X.X.X.X.X.X.X.X.X.X.X.X.X.X.X.X.X.X.X.X.X.X.X.X.X.X.X.X.X.X.X.X.X.X.X.X.X.X.X.X.X.X.X.X.X.X.X.X.X.X.X.X.X.X.X.X.X.X.X.X.X.X.X.X",
".X.X.X.X.X.X.X.X.X.X.X.X.X.X.X.X.X.X.X.X.X.X.X.X.X.X.X.X.X.X.X.X.X.X.X.X.X.X.X.X.X.X.X.X.X.X.X.X.X.X.X.X.X.X.X.X.X.X.X.X.X.X.X.X.X.X.X.X.X.X.X.X.X.X.X.X.X.X.X.X",
".X.X.X.X.X.X.X.X.X.X.X.X.X.X.X.X.X.X.X.X.X.X.X.X.X.X.X.X.X.X.X.X.X.X.X.X.X.X.X.X.X.X.X.X.X.X.X.X.X.X.X.X.X.X.X.X.X.X.X.X.X.X.X.X.X.X.X.X.X.X.X.X.X.X.X.X.X.X.X.X",
".X.X.X.X.X.X.X.X.X.X.X.X.X.X.X.X.X.X.X.X.X.X.X.X.X.X.X.X.X.X.X.X.X.X.X.X.X.X.X.X.X.X.X.X.X.X.X.X.X.X.X.X.X.X.X.X.X.X.X.X.X.X.X.X.X.X.X.X.X.X.X.X.X.X.X.X.X.X.X.X",
".X.X.X.X.X.X.X.X.X.X.X.X.X.X.X.X.X.X.X.X.X.X.X.X.X.X.X.X.X.X.X.X.X.X.X.X.X.X.X.X.X.X.X.X.X.X.X.X.X.X.X.X.X.X.X.X.X.X.X.X.X.X.X.X.X.X.X.X.X.X.X.X.X.X.X.X.X.X.X.X",
".X.X.X.X.X.X.X.X.X.X.X.X.X.X.X.X.X.X.X.X.X.X.X.X.X.X.X.X.X.X.X.X.X.X.X.X.X.X.X.X.X.X.X.X.X.X.X.X.X.X.X.X.X.X.X.X.X.X.X.X.X.X.X.X.X.X.X.X.X.X.X.X.X.X.X.X.X.X.X.X",
".X.X.X.X.X.X.X.X.X.X.X.X.X.X.X.X.X.X.X.X.X.X.X.X.X.X.X.X.X.X.X.X.X.X.X.X.X.X.X.X.X.X.X.X.X.X.X.X.X.X.X.X.X.X.X.X.X.X.X.X.X.X.X.X.X.X.X.X.X.X.X.X.X.X.X.X.X.X.X.X",
".X.X.X.X.X.X.X.X.X.X.X.X.X.X.X.X.X.X.X.X.X.X.X.X.X.X.X.X.X.X.X.X.X.X.X.X.X.X.X.X.X.X.X.X.X.X.X.X.X.X.X.X.X.X.X.X.X.X.X.X.X.X.X.X.X.X.X.X.X.X.X.X.X.X.X.X.X.X.X.X",
".X.X.X.X.X.X.X.X.X.X.X.X.X.X.X.X.X.X.X.X.X.X.X.X.X.X.X.X.X.X.X.X.X.X.X.X.X            .X.X.X.X.X.X.X.X.X.X.X.X.X.X.X.X.X.X.X.X.X.X.X.X.X.X.X.X.X.X.X.X.X.X.X.X.X",
".X.X.X.X.X.X.X.X.X.X.X.X.X.X.X.X.X.X.X.X.X.X.X.X.X.X.X.X.X.X.X.X.X.X.X.X      = =       .X.X.X.X.X.X.X.X.X.X.X.X.X.X.X.X.X.X.X.X.X.X.X.X.X.X.X.X.X.X.X.X.X.X.X.X",
".X.X.X.X.X.X.X.X.X.X.X.X.X.X.X.X.X.X.X.X.X.X.X.X.X.X.X.X.X.X.X.X.X.X.X    < ' k.k.' <     .X.X.X.X.X.X.X.X.X.X.X.X.X.X.X.X.X.X.X.X.X.X.X.X.X.X.X.X.X.X.X.X.X.X.X",
".X.X.X.X.X.X.X.X.X.X.X.X.X.X.X.X.X.X.X.X.X.X.X.X.X.X.X.X.X.X.X.X.X.X.X  # @.|.|.|.[.@.#   .X.X.X.X.X.X.X.X.X.X.X.X.X.X.X.X.X.X.X.X.X.X.X.X.X.X.X.X.X.X.X.X.X.X.X",
".X.X.X.X.X.X.X.X.X.X.X.X.X.X.X.X.X.X.X.X.X.X.X.X.X.X.X.X.X.X.X.X.X.X    e S.|.|.|.|.A.e     .X.X.X.X.X.X.X.X.X.X.X.X.X.X.X.X.X.X.X.X.X.X.X.X.X.X.X.X.X.X.X.X.X.X",
".X.X.X.X.X.X.X.X.X.X.X.X.X.X.X.X.X.X.X.X.X.X.X.X.X.X.X.X.X.X.X.X.X.X    y Y.|.|.|.|.Y.y     .X.X.X.X.X.X.X.X.X.X.X.X.X.X.X.X.X.X.X.X.X.X.X.X.X.X.X.X.X.X.X.X.X.X",
".X.X.X.X.X.X.X.X.X.X.X.X.X.X.X.X.X.X.X.X.X.X.X.X.X.X.X.X.X.X.X.X.X.X    < i.|.|.|.|.i.<     .X.X.X.X.X.X.X.X.X.X.X.X.X.X.X.X.X.X.X.X.X.X.X.X.X.X.X.X.X.X.X.X.X.X",
".X.X.X.X.X.X.X.X.X.X.X.X.X.X.X.X.X.X.X.X.X.X.X.X.X.X.X.X.X.X.X.X.X.X.X    x x.E.E.x.x     .X.X.X.X.X.X.X.X.X.X.X.X.X.X.X.X.X.X.X.X.X.X.X.X.X.X.X.X.X.X.X.X.X.X.X",
".X.X.X.X.X.X.X.X.X.X.X.X.X.X.X.X.X.X.X.X.X.X.X.X.X.X.X.X.X.X.X.X.X.X.X      0 M m 0       .X.X.X.X.X.X.X.X.X.X.X.X.X.X.X.X.X.X.X.X.X.X.X.X.X.X.X.X.X.X.X.X.X.X.X",
".X.X.X.X.X.X.X.X.X.X.X.X.X.X.X.X.X.X.X.X.X.X.X.X.X.X.X.X.X.X.X.X.X.X.X.X                .X.X.X.X.X.X.X.X.X.X.X.X.X.X.X.X.X.X.X.X.X.X.X.X.X.X.X.X.X.X.X.X.X.X.X.X",
".X.X.X.X.X.X.X.X.X.X.X.X.X.X.X.X.X.X.X.X.X.X.X.X.X.X.X.X.X.X.X.X.X.X.X        & &         .X.X.X.X.X.X.X.X.X.X.X.X.X.X.X.X.X.X.X.X.X.X.X.X.X.X.X.X.X.X.X.X.X.X.X",
".X.X.X.X.X.X.X.X.X.X.X.X.X.X.X.X.X.X.X.X.X.X.X.X.X.X.X.X.X.X.X.X.X        2 L 9.9.L 2         .X.X.X.X.X.X.X.X.X.X.X.X.X.X.X.X.X.X.X.X.X.X.X.X.X.X.X.X.X.X.X.X.X",
".X.X.X.X.X.X.X.X.X.X.X.X.X.X.X.X.X.X.X.X.X.X.X.X.X.X.X.X.X.X.X.X      2 E k.(.|.|.!.g.E 2       .X.X.X.X.X.X.X.X.X.X.X.X.X.X.X.X.X.X.X.X.X.X.X.X.X.X.X.X.X.X.X.X",
".X.X.X.X.X.X.X.X.X.X.X.X.X.X.X.X.X.X.X.X.X.X.X.X.X.X.X.X.X.X        M f.[.|.|.|.|.|.|.[.i.M #       .X.X.X.X.X.X.X.X.X.X.X.X.X.X.X.X.X.X.X.X.X.X.X.X.X.X.X.X.X.X",
".X.X.X.X.X.X.X.X.X.X.X.X.X.X.X.X.X.X.X.X.X.X.X.X.X.X.X.X.X      5 @.Y.|.|.|.|.|.|.|.|.|.|.P.@.5       .X.X.X.X.X.X.X.X.X.X.X.X.X.X.X.X.X.X.X.X.X.X.X.X.X.X.X.X.X",
".X.X.X.X.X.X.X.X.X.X.X.X.X.X.X.X.X.X.X.X.X.X.X.X.X.X.X.X      i i.[.|.|.|.|.|.|.|.|.|.|.|.|.|.i.i       .X.X.X.X.X.X.X.X.X.X.X.X.X.X.X.X.X.X.X.X.X.X.X.X.X.X.X.X",
".X.X.X.X.X.X.X.X.X.X.X.X.X.X.X.X.X.X.X.X.X.X.X.X.X.X.X      k b.|.|.|.|.|.|.Y.@.@.Y.|.|.|.|.|.|.b.k       .X.X.X.X.X.X.X.X.X.X.X.X.X.X.X.X.X.X.X.X.X.X.X.X.X.X.X",
".X.X.X.X.X.X.X.X.X.X.X.X.X.X.X.X.X.X.X.X.X.X.X.X.X.X.X    f N.|.|.|.|.|.|.|.t.# # t.|.|.|.|.|.|.|.b.s     .X.X.X.X.X.X.X.X.X.X.X.X.X.X.X.X.X.X.X.X.X.X.X.X.X.X.X",
".X.X.X.X.X.X.X.X.X.X.X.X.X.X.X.X.X.X.X.X.X.X.X.X.X.X    0 g.|.|.|.|.|.|.|.|.9.    9.|.|.|.|.|.|.|.|.f.0     .X.X.X.X.X.X.X.X.X.X.X.X.X.X.X.X.X.X.X.X.X.X.X.X.X.X",
".X.X.X.X.X.X.X.X.X.X.X.X.X.X.X.X.X.X.X.X.X.X.X.X.X    & 1.|.|.|.|.|.|.|.|.|.q.    q.|.|.|.|.|.|.|.|.|.1.&     .X.X.X.X.X.X.X.X.X.X.X.X.X.X.X.X.X.X.X.X.X.X.X.X.X",
".X.X.X.X.X.X.X.X.X.X.X.X.X.X.X.X.X.X.X.X.X.X.X.X.X    S !.|.|.|.|.|.!.k.f.g.'     ' g.f.k.!.|.|.|.|.|.E.S     .X.X.X.X.X.X.X.X.X.X.X.X.X.X.X.X.X.X.X.X.X.X.X.X.X",
".X.X.X.X.X.X.X.X.X.X.X.X.X.X.X.X.X.X.X.X.X.X.X.X    2 f.|.|.|.|.|.|.' = = = &     & = = < _ |.|.|.|.|.|.f.<     .X.X.X.X.X.X.X.X.X.X.X.X.X.X.X.X.X.X.X.X.X.X.X.X",
".X.X.X.X.X.X.X.X.X.X.X.X.X.X.X.X.X.X.X.X.X.X.X.X    S (.|.|.|.|.|.[.!                     Q [.|.|.|.|.|.(.A     .X.X.X.X.X.X.X.X.X.X.X.X.X.X.X.X.X.X.X.X.X.X.X.X",
".X.X.X.X.X.X.X.X.X.X.X.X.X.X.X.X.X.X.X.X.X.X.X.X    7.|.|.|.|.|.|.|.A.>.@.%.L     L %.%.>.A.|.|.|.|.|.|.|.4.    .X.X.X.X.X.X.X.X.X.X.X.X.X.X.X.X.X.X.X.X.X.X.X.X",
".X.X.X.X.X.X.X.X.X.X.X.X.X.X.X.X.X.X.X.X.X.X.X    5 N.|.|.|.|.|.|.|.|.|.|.|.q.    q.|.|.|.|.|.|.|.|.|.|.|.N.5     .X.X.X.X.X.X.X.X.X.X.X.X.X.X.X.X.X.X.X.X.X.X.X",
".X.X.X.X.X.X.X.X.X.X.X.X.X.X.X.X.X.X.X.X.X.X.X    x P.|.|.|.|.|.|.|.|.|.|.|.9.    9.|.|.|.|.|.|.|.|.|.|.|.P.x     .X.X.X.X.X.X.X.X.X.X.X.X.X.X.X.X.X.X.X.X.X.X.X",
".X.X.X.X.X.X.X.X.X.X.X.X.X.X.X.X.X.X.X.X.X.X.X    S (.|.|.|.|.|.|.|.|.|.|.|.9.    9.|.|.|.|.|.|.|.|.|.|.|.!.A     .X.X.X.X.X.X.X.X.X.X.X.X.X.X.X.X.X.X.X.X.X.X.X",
".X.X.X.X.X.X.X.X.X.X.X.X.X.X.X.X.X.X.X.X.X.X.X    H [.|.|.|.|.|.|.|.|.|.|.|.9.    9.|.|.|.|.|.|.|.|.|.|.|.[.S     .X.X.X.X.X.X.X.X.X.X.X.X.X.X.X.X.X.X.X.X.X.X.X",
".X.X.X.X.X.X.X.X.X.X.X.X.X.X.X.X.X.X.X.X.X.X.X    A !.|.|.|.|.|.|.|.|.|.|.|.9.    9.|.|.|.|.|.|.|.|.|.|.|.!.A     .X.X.X.X.X.X.X.X.X.X.X.X.X.X.X.X.X.X.X.X.X.X.X",
".X.X.X.X.X.X.X.X.X.X.X.X.X.X.X.X.X.X.X.X.X.X.X    f J.|.|.|.|.|.|.|.|.|.|.|.9.    9.|.|.|.|.|.|.|.|.|.|.|.J.f     .X.X.X.X.X.X.X.X.X.X.X.X.X.X.X.X.X.X.X.X.X.X.X",
".X.X.X.X.X.X.X.X.X.X.X.X.X.X.X.X.X.X.X.X.X.X.X    2 x.|.|.|.|.|.|.|.|.|.|.|.g.2 2 g.|.|.|.|.|.|.|.|.|.|.|.k.<     .X.X.X.X.X.X.X.X.X.X.X.X.X.X.X.X.X.X.X.X.X.X.X",
".X.X.X.X.X.X.X.X.X.X.X.X.X.X.X.X.X.X.X.X.X.X.X.X    { |.|.|.|.|.|.|.|.|.|.|.(.e.e.(.|.|.|.|.|.|.|.|.|.|.|.{     .X.X.X.X.X.X.X.X.X.X.X.X.X.X.X.X.X.X.X.X.X.X.X.X",
".X.X.X.X.X.X.X.X.X.X.X.X.X.X.X.X.X.X.X.X.X.X.X.X    t N.|.|.|.|.|.|.|.|.|.|.|.|.|.|.|.|.|.|.|.|.|.|.|.|.V.y     .X.X.X.X.X.X.X.X.X.X.X.X.X.X.X.X.X.X.X.X.X.X.X.X",
".X.X.X.X.X.X.X.X.X.X.X.X.X.X.X.X.X.X.X.X.X.X.X.X.X    S Y.|.|.|.|.|.|.|.|.|.|.|.|.|.|.|.|.|.|.|.|.|.|.Y.H     .X.X.X.X.X.X.X.X.X.X.X.X.X.X.X.X.X.X.X.X.X.X.X.X.X",
".X.X.X.X.X.X.X.X.X.X.X.X.X.X.X.X.X.X.X.X.X.X.X.X.X    # I A.|.|.|.|.|.|.|.|.|.|.|.|.|.|.|.|.|.|.|.|.A.L #     .X.X.X.X.X.X.X.X.X.X.X.X.X.X.X.X.X.X.X.X.X.X.X.X.X",
".X.X.X.X.X.X.X.X.X.X.X.X.X.X.X.X.X.X.X.X.X.X.X.X.X.X      s %.g.N.b.b.N.b.b.b.N.N.b.b.N.b.b.b.N.k.%.s       .X.X.X.X.X.X.X.X.X.X.X.X.X.X.X.X.X.X.X.X.X.X.X.X.X.X",
".X.X.X.X.X.X.X.X.X.X.X.X.X.X.X.X.X.X.X.X.X.X.X.X.X.X.X      # < < < < < < < < < < < < < < < < < <         .X.X.X.X.X.X.X.X.X.X.X.X.X.X.X.X.X.X.X.X.X.X.X.X.X.X.X",
".X.X.X.X.X.X.X.X.X.X.X.X.X.X.X.X.X.X.X.X.X.X.X.X.X.X.X.X                                                .X.X.X.X.X.X.X.X.X.X.X.X.X.X.X.X.X.X.X.X.X.X.X.X.X.X.X.X",
".X.X.X.X.X.X.X.X.X.X.X.X.X.X.X.X.X.X.X.X.X.X.X.X.X.X.X.X    = L ' ' ' _ ' _ ' _ ' _ ' _ ' _ ' ' I =     .X.X.X.X.X.X.X.X.X.X.X.X.X.X.X.X.X.X.X.X.X.X.X.X.X.X.X.X",
".X.X.X.X.X.X.X.X.X.X.X.X.X.X.X.X.X.X.X.X.X.X.X.X.X.X.X    < =.(.|.|.|.|.|.|.|.|.|.|.|.|.|.|.|.|.(.=.<     .X.X.X.X.X.X.X.X.X.X.X.X.X.X.X.X.X.X.X.X.X.X.X.X.X.X.X",
".X.X.X.X.X.X.X.X.X.X.X.X.X.X.X.X.X.X.X.X.X.X.X.X.X.X    #  .[.|.|.|.|.|.|.|.|.|.|.|.|.|.|.|.|.|.|.[.{ #     .X.X.X.X.X.X.X.X.X.X.X.X.X.X.X.X.X.X.X.X.X.X.X.X.X.X",
".X.X.X.X.X.X.X.X.X.X.X.X.X.X.X.X.X.X.X.X.X.X.X.X.X.X    M E.|.|.|.|.|.|.|.|.|.|.|.|.|.|.|.|.|.|.|.|.E.m     .X.X.X.X.X.X.X.X.X.X.X.X.X.X.X.X.X.X.X.X.X.X.X.X.X.X",
".X.X.X.X.X.X.X.X.X.X.X.X.X.X.X.X.X.X.X.X.X.X.X.X.X.X  #  .S.A.A.A.S.A.A.A.S.A.A.A.S.A.A.A.S.A.A.S.S.S. .    .X.X.X.X.X.X.X.X.X.X.X.X.X.X.X.X.X.X.X.X.X.X.X.X.X.X",
".X.X.X.X.X.X.X.X.X.X.X.X.X.X.X.X.X.X.X.X.X.X.X.X.X      5 t e e e e e 0 e e 0 e e e e 0 e e 0 e e e e 5       .X.X.X.X.X.X.X.X.X.X.X.X.X.X.X.X.X.X.X.X.X.X.X.X.X",
".X.X.X.X.X.X.X.X.X.X.X.X.X.X.X.X.X.X.X.X.X.X.X.X.X                                                            .X.X.X.X.X.X.X.X.X.X.X.X.X.X.X.X.X.X.X.X.X.X.X.X.X",
".X.X.X.X.X.X.X.X.X.X.X.X.X.X.X.X.X.X.X.X.X.X.X.X.X    t I I E E E I E I E E E E E I E I E E E E E E I I y     .X.X.X.X.X.X.X.X.X.X.X.X.X.X.X.X.X.X.X.X.X.X.X.X.X",
".X.X.X.X.X.X.X.X.X.X.X.X.X.X.X.X.X.X.X.X.X.X.X.X.X    H E.[.(.(.(.[.(.(.(.(.(.(.(.[.(.(.(.(.(.(.(.(.[.E.H     .X.X.X.X.X.X.X.X.X.X.X.X.X.X.X.X.X.X.X.X.X.X.X.X.X",
".X.X.X.X.X.X.X.X.X.X.X.X.X.X.X.X.X.X.X.X.X.X.X.X.X    2 =.P.|.|.|.|.|.|.|.|.|.|.|.|.|.|.|.|.|.|.|.|.P.=.5     .X.X.X.X.X.X.X.X.X.X.X.X.X.X.X.X.X.X.X.X.X.X.X.X.X",
".X.X.X.X.X.X.X.X.X.X.X.X.X.X.X.X.X.X.X.X.X.X.X.X.X.X    # k @.k.E.[.|.|.|.|.|.|.|.|.|.|.|.|.[.E.k.@.k #     .X.X.X.X.X.X.X.X.X.X.X.X.X.X.X.X.X.X.X.X.X.X.X.X.X.X",
".X.X.X.X.X.X.X.X.X.X.X.X.X.X.X.X.X.X.X.X.X.X.X.X.X.X.X        5 s H { 3.i.g.x.x.x.x.g.t.4.{ H i 2         .X.X.X.X.X.X.X.X.X.X.X.X.X.X.X.X.X.X.X.X.X.X.X.X.X.X.X",
".X.X.X.X.X.X.X.X.X.X.X.X.X.X.X.X.X.X.X.X.X.X.X.X.X.X.X.X                  & = < = < &                   .X.X.X.X.X.X.X.X.X.X.X.X.X.X.X.X.X.X.X.X.X.X.X.X.X.X.X.X",
".X.X.X.X.X.X.X.X.X.X.X.X.X.X.X.X.X.X.X.X.X.X.X.X.X.X.X.X.X.X.X                                    .X.X.X.X.X.X.X.X.X.X.X.X.X.X.X.X.X.X.X.X.X.X.X.X.X.X.X.X.X.X.X",
".X.X.X.X.X.X.X.X.X.X.X.X.X.X.X.X.X.X.X.X.X.X.X.X.X.X.X.X.X.X.X.X              = &               .X.X.X.X.X.X.X.X.X.X.X.X.X.X.X.X.X.X.X.X.X.X.X.X.X.X.X.X.X.X.X.X",
".X.X.X.X.X.X.X.X.X.X.X.X.X.X.X.X.X                                        < A 7.9.A <                                         .X.X.X.X.X.X.X.X.X.X.X.X.X.X.X.X.X",
".X.X.X.X.X.X.X.X.X.X.X.X.X                                      < e s A @.x.E.|.|.!.k. .A s 0 < #                                   .X.X.X.X.X.X.X.X.X.X.X.X.X.X",
".X.X.X.X.X.X.X.X.X.X.X.X      # = 5 f m H I ! ! ^ ^ _ ' @.=.3.9.f.N.J.[.|.|.|.|.[.|.|.|.[.J.N.f.9.3.>. .{ _ ^ ^ ! ! E S m s 5 =         .X.X.X.X.X.X.X.X.X.X.X.X",
".X.X.X.X.X.X.X.X.X.X.X    # x  .i.S.E.!.(.(.[.[.[.|.|.|.|.|.|.|.|.|.|.|.[.S.i.' ' i.S.(.|.|.|.|.|.|.|.|.|.|.[.[.[.(.(.(.!.E.S.e.I 2       .X.X.X.X.X.X.X.X.X.X.X",
".X.X.X.X.X.X.X.X.X.X    <  .P.!.A.f.7.>.@._ _ _ _ {  .%.@.%.>.=.@.{ ^ E v i =     = i m E ^ { @.=.=.%.%.%. .{ _ _ _ _ @.>.7.g.A.P.i.m #     .X.X.X.X.X.X.X.X.X.X",
".X.X.X.X.X.X.X.X.X      s >.{ M 5 # #                       #                                     #                     #   # 0 M  .' 5       .X.X.X.X.X.X.X.X.X",
".X.X.X.X.X.X.X.X.X.X      &                                                   .X.X                                                  &       .X.X.X.X.X.X.X.X.X.X",
".X.X.X.X.X.X.X.X.X.X.X            .X.X.X.X.X.X.X.X.X.X.X.X.X.X.X.X.X.X.X.X.X.X.X.X.X.X.X.X.X.X.X.X.X.X.X.X.X.X.X.X.X.X.X.X.X.X            .X.X.X.X.X.X.X.X.X.X.X",
".X.X.X.X.X.X.X.X.X.X.X.X.X.X.X.X.X.X.X.X.X.X.X.X.X.X.X.X.X.X.X.X.X.X.X.X.X.X.X.X.X.X.X.X.X.X.X.X.X.X.X.X.X.X.X.X.X.X.X.X.X.X.X.X.X.X.X.X.X.X.X.X.X.X.X.X.X.X.X.X",
".X.X.X.X.X.X.X.X.X.X.X.X.X.X.X.X.X.X.X.X.X.X.X.X.X.X.X.X.X.X.X.X.X.X.X.X.X.X.X.X.X.X.X.X.X.X.X.X.X.X.X.X.X.X.X.X.X.X.X.X.X.X.X.X.X.X.X.X.X.X.X.X.X.X.X.X.X.X.X.X",
".X.X.X.X.X.X.X.X.X.X.X.X.X.X.X.X.X.X.X.X.X.X.X.X.X.X.X.X.X.X.X.X.X.X.X.X.X.X.X.X.X.X.X.X.X.X.X.X.X.X.X.X.X.X.X.X.X.X.X.X.X.X.X.X.X.X.X.X.X.X.X.X.X.X.X.X.X.X.X.X",
".X.X.X.X.X.X.X.X.X.X.X.X.X.X.X.X.X.X.X.X.X.X.X.X.X.X.X.X.X.X.X.X.X.X.X.X.X.X.X.X.X.X.X.X.X.X.X.X.X.X.X.X.X.X.X.X.X.X.X.X.X.X.X.X.X.X.X.X.X.X.X.X.X.X.X.X.X.X.X.X",
".X.X.X.X.X.X.X.X.X.X.X.X.X.X.X.X.X.X.X.X.X.X.X.X.X.X.X.X.X.X.X.X.X.X.X.X.X.X.X.X.X.X.X.X.X.X.X.X.X.X.X.X.X.X.X.X.X.X.X.X.X.X.X.X.X.X.X.X.X.X.X.X.X.X.X.X.X.X.X.X",
".X.X.X.X.X.X.X.X.X.X.X.X.X.X.X.X.X.X.X.X.X.X.X.X.X.X.X.X.X.X.X.X.X.X.X.X.X.X.X.X.X.X.X.X.X.X.X.X.X.X.X.X.X.X.X.X.X.X.X.X.X.X.X.X.X.X.X.X.X.X.X.X.X.X.X.X.X.X.X.X",
".X.X.X.X.X.X.X.X.X.X.X.X.X.X.X.X.X.X.X.X.X.X.X.X.X.X.X.X.X.X.X.X.X.X.X.X.X.X.X.X.X.X.X.X.X.X.X.X.X.X.X.X.X.X.X.X.X.X.X.X.X.X.X.X.X.X.X.X.X.X.X.X.X.X.X.X.X.X.X.X",
".X.X.X.X.X.X.X.X.X.X.X.X.X.X.X.X.X.X.X.X.X.X.X.X.X.X.X.X.X.X.X.X.X.X.X.X.X.X.X.X.X.X.X.X.X.X.X.X.X.X.X.X.X.X.X.X.X.X.X.X.X.X.X.X.X.X.X.X.X.X.X.X.X.X.X.X.X.X.X.X",
".X.X.X.X.X.X.X.X.X.X.X.X.X.X.X.X.X.X.X.X.X.X.X.X.X.X.X.X.X.X.X.X.X.X.X.X.X.X.X.X.X.X.X.X.X.X.X.X.X.X.X.X.X.X.X.X.X.X.X.X.X.X.X.X.X.X.X.X.X.X.X.X.X.X.X.X.X.X.X.X",
".X.X.X.X.X.X.X.X.X.X.X.X.X.X.X.X.X.X.X.X.X.X.X.X.X.X.X.X.X.X.X.X.X.X.X.X.X.X.X.X.X.X.X.X.X.X.X.X.X.X.X.X.X.X.X.X.X.X.X.X.X.X.X.X.X.X.X.X.X.X.X.X.X.X.X.X.X.X.X.X"
};
